<svg id="Save_the_world" height="512" viewBox="0 0 64 64" width="512" xmlns="http://www.w3.org/2000/svg" data-name="Save the world"><path d="m48 23h-42l2-19h38z" fill="#6fc991"/><path d="m44 23h-34l1-15h32z" fill="#57565c"/><path d="m47 61h-40l-2-34h44z" fill="#6fc991"/><path d="m31.42 18.774 1.215-6.893-3.939-.695-1.216 6.894-2.317 1.622-1.041 5.909 7.878 1.389 1.042-5.909z" fill="#2488ff"/><path d="m19.2 17.967-.5-5.736-3.985.349.5 5.735a3 3 0 0 1 -.69 2.19l-.221.263a3 3 0 0 0 -.69 2.19l.386 4.042h8l-.415-4.739a3 3 0 0 0 -1.06-2.037l-.263-.224a3 3 0 0 1 -1.062-2.033z" fill="#46f8ff"/><path d="m3 23h48v4h-48z" fill="#a2dcb8"/><path d="m61 30-7.372-5.162-2.539-10.323-9.01-6.309-6.963-4.876a2.5 2.5 0 0 0 -3.482.614 2.5 2.5 0 0 0 .614 3.482l6.963 4.874 2.457 1.72 1.311 3.359-1.147 1.641-1.967 1.064-5.165-1.784a2.4 2.4 0 0 0 -2.754.893 2.4 2.4 0 0 0 1.184 3.651l3.87 1.336.41.287 1.229.86 2.481 5.26a6 6 0 0 0 3.016 2.935l9.984 6.308z" fill="#ffcbbe"/><path d="m19 44a8.01 8.01 0 0 1 2.276-5.568l.9 2.414 4.824-5.846-7.474-1.254.993 2.657a9.987 9.987 0 0 0 6.481 17.597v-2a8.009 8.009 0 0 1 -8-8z"/><path d="m37 44a10.011 10.011 0 0 0 -10-10v2a7.985 7.985 0 0 1 5.724 13.568l-.9-2.414-4.824 5.846 7.474 1.254-.993-2.654a10.013 10.013 0 0 0 3.519-7.6z"/><path d="m61.57 29.18-7.06-4.95-2.45-9.95a.964.964 0 0 0 -.4-.58l-3.92-2.75-.75-7.05a1 1 0 0 0 -.99-.9h-9.61l-.7-.49a3.507 3.507 0 0 0 -4.56.49h-23.13a1 1 0 0 0 -.99.9l-1.91 18.1h-2.1a1 1 0 0 0 -1 1v4a1 1 0 0 0 1 1h1.06l1.94 33.06a1 1 0 0 0 1 .94h40a1 1 0 0 0 1-.94l1.36-23.05 4.22 2.66a.972.972 0 0 0 .54.16 1.011 1.011 0 0 0 .82-.43l6.88-9.83a.989.989 0 0 0 -.25-1.39zm-16.47-24.18.47 4.43-6.33-4.43zm-11.64 6.31a.973.973 0 0 0 -.65-.41l-3.94-.69a.982.982 0 0 0 -1.15.81l-1.15 6.48-1.98 1.38a.973.973 0 0 0 -.41.65l-.44 2.47h-1.19a4.023 4.023 0 0 0 -1.39-2.55l-.26-.22a1.931 1.931 0 0 1 -.7-1.35l-.5-5.74a1.011 1.011 0 0 0 -1.09-.91l-3.98.35a1.014 1.014 0 0 0 -.91 1.09l.5 5.74a2 2 0 0 1 -.45 1.45l-.22.26a3.863 3.863 0 0 0 -.87 1.88h-1.61l.87-13h20.81l8.1 5.67 1 2.58-.7 1-1.37.75-4.76-1.65a3.36 3.36 0 0 0 -2.34.07l.94-5.37a.966.966 0 0 0 -.16-.74zm-2.86 8.03.1.15a3.3 3.3 0 0 0 -.02 2.13 2.59 2.59 0 0 0 .17.38h-5.08l.3-1.72 1.98-1.38a.951.951 0 0 0 .41-.65l1.05-5.9 1.97.34-1.04 5.91a.966.966 0 0 0 .16.74zm-14.8-5.85 1.99-.18.41 4.75a3.978 3.978 0 0 0 1.43 2.71l.25.21a2.135 2.135 0 0 1 .65 1.02h-5.79a1.856 1.856 0 0 1 .33-.58l.23-.27a4.069 4.069 0 0 0 .92-2.92zm-6.9-8.49h21.32a3.561 3.561 0 0 0 .38 2h-19.6a1 1 0 0 0 -1 .93l-.94 14.07h-1.95zm-4.9 21v-2h29.41l3.13 1.08 1.3.91.01.01zm42.06 34h-38.12l-1.88-32h32.73l1.42 3.01a7.042 7.042 0 0 0 3.45 3.4l3.77 2.38zm7.78-21.53-9.17-5.79a.914.914 0 0 0 -.14-.07 5.071 5.071 0 0 1 -2.51-2.45l-2.48-5.26a.961.961 0 0 0 -.33-.39l-1.64-1.15a1.965 1.965 0 0 0 -.25-.13l-3.87-1.33a1.414 1.414 0 0 1 -.69-2.13 1.405 1.405 0 0 1 1.16-.6 1.189 1.189 0 0 1 .45.08l5.17 1.78a.978.978 0 0 0 .8-.07l1.97-1.06a1.116 1.116 0 0 0 .34-.31l1.15-1.63a1.017 1.017 0 0 0 .11-.94l-1.31-3.36a1.075 1.075 0 0 0 -.36-.46l-9.42-6.59a1.5 1.5 0 0 1 1.72-2.46l15.67 10.97 2.45 9.96a1.01 1.01 0 0 0 .39.58l6.56 4.59z"/></svg>