<svg id="Capa_1" enable-background="new 0 0 509.013 509.013" height="512" viewBox="0 0 509.013 509.013" width="512" xmlns="http://www.w3.org/2000/svg"><g><g><path d="m353.14 466.493 33.608 32.74c1.149 1.119 2.689 1.745 4.293 1.745h11.618c3.398 0 6.152-2.754 6.152-6.152v-28.334-67.318h-117.8z" fill="#b3adb5"/><path d="m144.954 499.233c-1.149 1.119-2.689 1.745-4.293 1.745h-11.618c-3.398 0-6.152-2.754-6.152-6.152v-28.334-48.955h110.641z" fill="#b3adb5"/><path d="m314.391 290.654c-2.043-.891-4.296-1.393-6.668-1.393-4.61 0-8.79 1.87-11.82 4.9-3.02 3.02-4.89 7.2-4.89 11.81v59.18h33.42 32.1v-65.694z" fill="#f6e2c4"/><path d="m492.752 352.656c0 62.871-50.967 113.837-113.837 113.837h-242.004c-62.871 0-113.837-50.967-113.837-113.837v-79.309h135.286l90.168 56.001h244.223v23.308z" fill="#f8f7f8"/><g><path d="m101.417 282.738h-31.77v-208.43c0-36.544 29.73-66.275 66.274-66.275s66.275 29.731 66.275 66.275v41.748h-31.77v-41.748c0-19.026-15.479-34.505-34.505-34.505-19.025 0-34.503 15.479-34.503 34.505v208.43z" fill="#fcf0b6"/></g><g><path d="m248.528 329.348-90.168-56h-135.286v79.309c0 62.87 50.967 113.837 113.837 113.837h242.003c36.48 0 68.95-17.162 89.783-43.85-12.438 4.666-25.906 7.224-39.973 7.224h-242.003c-62.871 0-113.837-50.967-113.837-113.837 0-3.573 2.896-6.469 6.469-6.469h68.173l80.739 47.039c8.511 4.959 18.217 7.58 28.066 7.58h235.842c.381-3.79.577-7.634.577-11.523v-23.308h-244.222z" fill="#efedee"/><path d="m495.605 349.179c3.263 0 5.908-2.645 5.908-5.908v-19.955c0-3.263-2.645-5.908-5.908-5.908h-239.273c-1.589 0-3.149-.421-4.522-1.221l-83.523-48.662c-5.32-3.098-11.385-4.736-17.541-4.736h-137.338c-3.263 0-5.908 2.645-5.908 5.908v19.955c0 3.263 2.645 5.908 5.908 5.908h135.745c1.589 0 3.149.421 4.521 1.221l82.143 47.857c6.228 3.629 13.307 5.54 20.516 5.54h239.272z" fill="#fbe88c"/><g id="XMLID_283_"><g><path d="m324.433 305.971c0-9.22-7.48-16.71-16.71-16.71h104.03c4.62 0 8.79 1.87 11.82 4.9 3.02 3.02 4.89 7.2 4.89 11.81v102.93c0 4.77-3.87 8.64-8.64 8.64h-86.75c-4.77 0-8.64-3.87-8.64-8.64z" fill="#fcf6ed"/></g></g><path d="m214.259 134.202h-55.899v-28.583c0-5.833 4.729-10.562 10.562-10.562h34.774c5.833 0 10.562 4.729 10.562 10.562v28.583z" fill="#d6d1d6"/><path d="m223.236 123.202h-73.852c-9.479 0-17.163 7.684-17.163 17.163v27.718c0 2.206 1.789 3.995 3.995 3.995h100.187c2.206 0 3.995-1.789 3.995-3.995v-27.718c0-9.479-7.684-17.163-17.162-17.163z" fill="#fcf0b6"/><path d="m160.607 158.639c-4.383 0-7.937-3.553-7.937-7.937v-23.776c0-1.28.151-2.524.417-3.725h-3.704c-9.479 0-17.163 7.684-17.163 17.163v27.717c0 2.206 1.789 3.995 3.995 3.995h100.187c2.206 0 3.995-1.789 3.995-3.995v-9.442z" fill="#fbe88c"/><g fill="#a9e4f9"><circle cx="291.011" cy="228.035" r="19.029"/><circle cx="372.17" cy="228.035" r="15.637"/><circle cx="337.504" cy="156.44" r="33.239"/></g></g><path d="m360.904 401.627c-8.092 0-14.652-6.56-14.652-14.652v-75.409c0-4.663 3.78-8.443 8.443-8.443h73.108c.136 0 .286.015.421.017-.594-3.477-2.264-6.592-4.651-8.98-3.03-3.03-7.2-4.9-11.82-4.9h-104.03c9.23 0 16.71 7.49 16.71 16.71v102.93c0 4.772 3.868 8.64 8.64 8.64h86.75c4.772 0 8.64-3.868 8.64-8.64v-7.274h-67.559z" fill="#fcf1de"/></g><g><path d="m495.604 309.909h-59.64v-3.934c0-13.35-10.86-24.21-24.21-24.21h-104.033c-13.35 0-24.21 10.86-24.21 24.21v3.934h-27.179c-.262 0-.521-.07-.746-.201l-83.524-48.662c-6.465-3.766-13.835-5.756-21.315-5.756h-41.83v-180.982c0-14.891 12.114-27.005 27.004-27.005 14.891 0 27.005 12.114 27.005 27.005v14.293c-7.016 2.481-12.064 9.162-12.064 17.017v10.083h-1.477c-13.6 0-24.663 11.063-24.663 24.662v27.718c0 6.339 5.156 11.495 11.495 11.495h100.188c6.339 0 11.495-5.156 11.495-11.495v-27.718c0-13.599-11.063-24.662-24.662-24.662h-1.478v-10.083c0-7.855-5.049-14.537-12.064-17.017v-14.293c0-40.68-33.095-73.774-73.774-73.774s-73.773 33.095-73.773 73.774v87.761c0 4.143 3.357 7.5 7.5 7.5s7.5-3.357 7.5-7.5v-87.761c0-32.408 26.365-58.774 58.773-58.774s58.774 26.366 58.774 58.774v13.248h-16.77v-13.248c0-23.161-18.844-42.005-42.005-42.005s-42.005 18.844-42.005 42.005v180.982h-16.77v-61.259c0-4.143-3.357-7.5-7.5-7.5s-7.5 3.357-7.5 7.5v61.259h-48.738c-7.393 0-13.408 6.014-13.408 13.408v19.955c0 7.393 6.015 13.407 13.408 13.407h2.166v50.596c0 59.563 43.141 109.239 99.816 119.425v22.746c0 7.528 6.124 13.652 13.652 13.652h11.618c3.58 0 6.963-1.376 9.526-3.874l31.424-30.612h168.48l31.424 30.614c2.565 2.497 5.948 3.872 9.525 3.872h11.619c7.528 0 13.652-6.124 13.652-13.652v-26.729c16.307-5.277 31.433-13.997 44.348-25.776 3.06-2.791 3.277-7.535.486-10.596-2.792-3.061-7.535-3.277-10.596-.486-19.62 17.896-45.062 27.753-71.637 27.753h-242c-58.635 0-106.337-47.702-106.337-106.337v-50.596h19.438c4.143 0 7.5-3.357 7.5-7.5s-3.357-7.5-7.5-7.5h-35.012v-16.77h135.746c4.831 0 9.591 1.285 13.766 3.717l83.525 48.663c2.516 1.465 5.385 2.239 8.295 2.239h60.599v16.77h-60.599c-5.876 0-11.664-1.563-16.74-4.521l-82.14-47.854c-2.516-1.468-5.386-2.243-8.3-2.243h-67.176c-4.143 0-7.5 3.357-7.5 7.5s3.357 7.5 7.5 7.5h67.177c.262 0 .519.069.746.202l82.143 47.856c7.365 4.291 15.765 6.56 24.291 6.56h60.599v52.221c0 8.898 7.24 16.139 16.139 16.139h86.758c8.898 0 16.138-7.24 16.138-16.139v-52.221h49.206c-.687 18.261-6.035 36.004-15.581 51.546-2.168 3.53-1.064 8.148 2.465 10.316 1.225.752 2.58 1.11 3.919 1.11 2.521 0 4.981-1.271 6.397-3.575 11.142-18.141 17.267-38.898 17.826-60.225 5.135-1.881 8.816-6.803 8.816-12.581v-19.955c-.002-7.392-6.017-13.406-13.411-13.406zm-262.706-169.545v24.213h-93.178v-24.213c0-5.328 4.335-9.662 9.663-9.662h8.977 55.898 8.978c5.328 0 9.662 4.334 9.662 9.662zm-67.038-24.662v-10.083c0-1.688 1.374-3.062 3.062-3.062h34.774c1.688 0 3.062 1.374 3.062 3.062v10.083zm235.452 356.217v21.56h-9.723l-20.003-19.486h7.327c7.576 0 15.07-.702 22.399-2.074zm-241.197 2.074-20.003 19.486h-9.722v-19.663c2.159.115 4.333.176 6.521.176h23.204zm138.396-164.084v-3.934c0-5.078 4.132-9.21 9.21-9.21s9.21 4.132 9.21 9.21v3.934zm122.454 98.991c0 .628-.511 1.139-1.138 1.139h-86.758c-.628 0-1.139-.511-1.139-1.139v-102.925c0-3.259-.647-6.369-1.82-9.21h81.645c5.078 0 9.21 4.132 9.21 9.21zm15-83.991h58.048v16.771h-1.241c-.007 0-.013-.001-.019-.001s-.013.001-.019.001h-56.768v-16.771z"/><path d="m150.86 196.311v27.058c0 4.143 3.357 7.5 7.5 7.5s7.5-3.357 7.5-7.5v-27.058c0-4.143-3.357-7.5-7.5-7.5s-7.5 3.357-7.5 7.5z"/><path d="m206.759 196.311v27.058c0 4.143 3.357 7.5 7.5 7.5s7.5-3.357 7.5-7.5v-27.058c0-4.143-3.357-7.5-7.5-7.5s-7.5 3.357-7.5 7.5z"/><path d="m178.81 224.883v16.676c0 4.143 3.357 7.5 7.5 7.5s7.5-3.357 7.5-7.5v-16.676c0-4.143-3.357-7.5-7.5-7.5s-7.5 3.358-7.5 7.5z"/><path d="m291.011 254.564c14.628 0 26.529-11.901 26.529-26.529s-11.901-26.529-26.529-26.529-26.529 11.901-26.529 26.529 11.901 26.529 26.529 26.529zm0-38.059c6.357 0 11.529 5.172 11.529 11.529s-5.172 11.529-11.529 11.529-11.529-5.172-11.529-11.529 5.171-11.529 11.529-11.529z"/><path d="m349.033 228.035c0 12.758 10.379 23.137 23.137 23.137s23.137-10.379 23.137-23.137-10.379-23.137-23.137-23.137-23.137 10.379-23.137 23.137zm31.274 0c0 4.486-3.65 8.137-8.137 8.137s-8.137-3.65-8.137-8.137 3.65-8.137 8.137-8.137 8.137 3.65 8.137 8.137z"/><path d="m337.504 197.178c22.463 0 40.738-18.275 40.738-40.738s-18.275-40.738-40.738-40.738c-22.464 0-40.739 18.275-40.739 40.738s18.275 40.738 40.739 40.738zm0-66.476c14.192 0 25.738 11.546 25.738 25.738s-11.546 25.738-25.738 25.738-25.739-11.546-25.739-25.738 11.547-25.738 25.739-25.738z"/></g></g></svg>