<svg height="512pt" viewBox="0 0 512 512" width="512pt" xmlns="http://www.w3.org/2000/svg"><path d="m401.066406 298.667969v187.730469c-.027344 9.414062-7.652344 17.039062-17.066406 17.066406h-256c-9.414062-.027344-17.039062-7.652344-17.066406-17.066406v-199.082032c-.019532-3.695312 1.179687-7.292968 3.414062-10.238281l17.066406-22.785156c3.234376-4.285157 8.285157-6.808594 13.652344-6.828125h68.265625c5.367188.019531 10.421875 2.542968 13.65625 6.828125l15.359375 20.480469c3.234375 4.285156 8.285156 6.808593 13.652344 6.828124h128c9.414062.027344 17.039062 7.652344 17.066406 17.066407zm0 0" fill="#00838f"/><path d="m375.464844 298.667969v187.730469c-.027344 9.414062-7.652344 17.039062-17.066406 17.066406h-230.398438c-9.414062-.027344-17.039062-7.652344-17.066406-17.066406v-199.082032c-.019532-3.695312 1.179687-7.292968 3.414062-10.238281l17.066406-22.785156c3.234376-4.285157 8.285157-6.808594 13.652344-6.828125h42.667969c5.367187.019531 10.417969 2.542968 13.652344 6.828125l15.359375 20.480469c3.234375 4.285156 8.285156 6.808593 13.652344 6.828124h128c9.414062.027344 17.039062 7.652344 17.066406 17.066407zm0 0" fill="#00bcd4"/><path d="m153.601562 315.734375h170.664063c4.714844 0 8.535156 3.820313 8.535156 8.53125v17.066406c0 4.714844-3.820312 8.535157-8.535156 8.535157h-170.664063c-4.714843 0-8.535156-3.820313-8.535156-8.535157v-17.066406c0-4.710937 3.820313-8.53125 8.535156-8.53125zm0 0" fill="#00838f"/><path d="m17.066406 42.667969h102.398438c4.714844 0 8.535156 3.820312 8.535156 8.53125v153.601562c0 4.710938-3.820312 8.53125-8.535156 8.53125h-102.398438c-4.710937 0-8.53125-3.820312-8.53125-8.53125v-153.601562c0-4.710938 3.820313-8.53125 8.53125-8.53125zm0 0" fill="#fec108"/><path d="m17.066406 42.667969h76.800782c4.710937 0 8.53125 3.820312 8.53125 8.53125v153.601562c0 4.710938-3.820313 8.53125-8.53125 8.53125h-76.800782c-4.710937 0-8.53125-3.820312-8.53125-8.53125v-153.601562c0-4.710938 3.820313-8.53125 8.53125-8.53125zm0 0" fill="#ffdc00"/><path d="m392.535156 42.667969h102.398438c4.710937 0 8.53125 3.820312 8.53125 8.53125v153.601562c0 4.710938-3.820313 8.53125-8.53125 8.53125h-102.398438c-4.714844 0-8.535156-3.820312-8.535156-8.53125v-153.601562c0-4.710938 3.820312-8.53125 8.535156-8.53125zm0 0" fill="#bb193b"/><path d="m392.535156 42.667969h76.796875c4.714844 0 8.535157 3.820312 8.535157 8.53125v153.601562c0 4.710938-3.820313 8.53125-8.535157 8.53125h-76.796875c-4.714844 0-8.535156-3.820312-8.535156-8.53125v-153.601562c0-4.710938 3.820312-8.53125 8.535156-8.53125zm0 0" fill="#ef314c"/><path d="m204.800781 8.535156h102.398438c4.714843 0 8.535156 3.820313 8.535156 8.53125v153.601563c0 4.710937-3.820313 8.53125-8.535156 8.53125h-102.398438c-4.714843 0-8.535156-3.820313-8.535156-8.53125v-153.601563c0-4.710937 3.820313-8.53125 8.535156-8.53125zm0 0" fill="#283593"/><path d="m204.800781 8.535156h76.800781c4.710938 0 8.53125 3.820313 8.53125 8.53125v153.601563c0 4.710937-3.820312 8.53125-8.53125 8.53125h-76.800781c-4.714843 0-8.535156-3.820313-8.535156-8.53125v-153.601563c0-4.710937 3.820313-8.53125 8.535156-8.53125zm0 0" fill="#3f51b5"/><path d="m384 512h-256c-14.132812-.015625-25.585938-11.46875-25.601562-25.601562v-199.109376c.011718-5.539062 1.808593-10.925781 5.125-15.363281l17.066406-22.757812c4.847656-6.429688 12.425781-10.21875 20.476562-10.234375h68.265625c8.054688.015625 15.636719 3.808594 20.480469 10.238281l15.359375 20.480469h.011719c1.609375 2.148437 4.132812 3.410156 6.816406 3.414062h128c14.132812.015625 25.585938 11.46875 25.601562 25.601563v187.730469c-.015624 14.132812-11.46875 25.585937-25.601562 25.601562zm-238.933594-256c-2.679687.003906-5.207031 1.265625-6.816406 3.410156l-17.078125 22.761719c-1.101563 1.476563-1.699219 3.273437-1.707031 5.117187v199.109376c.007812 4.710937 3.824218 8.53125 8.535156 8.535156h256c4.710938-.003906 8.527344-3.824219 8.535156-8.535156v-187.730469c-.007812-4.710938-3.824218-8.53125-8.535156-8.535157h-128c-8.050781-.015624-15.632812-3.804687-20.476562-10.238281l-15.363282-20.480469c-1.613281-2.144531-4.140625-3.410156-6.828125-3.414062zm0 0"/><path d="m324.265625 358.398438h-170.664063c-9.421874-.007813-17.058593-7.644532-17.066406-17.066407v-17.066406c.007813-9.421875 7.644532-17.054687 17.066406-17.066406h170.664063c9.421875.011719 17.058594 7.644531 17.066406 17.066406v17.066406c-.007812 9.421875-7.644531 17.058594-17.066406 17.066407zm-170.664063-34.132813v17.066406h170.671876l-.007813-17.066406zm0 0"/><path d="m366.933594 477.867188h-213.332032c-4.714843 0-8.535156-3.820313-8.535156-8.535157 0-4.710937 3.820313-8.53125 8.535156-8.53125h213.332032c4.710937 0 8.53125 3.820313 8.53125 8.53125 0 4.714844-3.820313 8.535157-8.53125 8.535157zm0 0"/><path d="m213.332031 443.734375h-59.730469c-4.714843 0-8.535156-3.820313-8.535156-8.535156 0-4.710938 3.820313-8.53125 8.535156-8.53125h59.730469c4.714844 0 8.535157 3.820312 8.535157 8.53125 0 4.714843-3.820313 8.535156-8.535157 8.535156zm0 0"/><path d="m264.535156 409.601562h-110.933594c-4.714843 0-8.535156-3.820312-8.535156-8.535156 0-4.710937 3.820313-8.53125 8.535156-8.53125h110.933594c4.710938 0 8.53125 3.820313 8.53125 8.53125 0 4.714844-3.820312 8.535156-8.53125 8.535156zm0 0"/><path d="m119.464844 221.867188h-102.398438c-9.421875-.011719-17.0546872-7.644532-17.066406-17.066407v-153.601562c.0117188-9.421875 7.644531-17.054688 17.066406-17.066407h102.398438c9.421875.011719 17.058594 7.644532 17.070312 17.066407v153.601562c-.011718 9.421875-7.648437 17.054688-17.070312 17.066407zm-102.398438-170.667969v153.601562h102.398438v-153.601562zm0 0"/><path d="m93.867188 85.332031h-51.199219c-4.714844 0-8.535157-3.820312-8.535157-8.53125 0-4.714843 3.820313-8.535156 8.535157-8.535156h51.199219c4.710937 0 8.53125 3.820313 8.53125 8.535156 0 4.710938-3.820313 8.53125-8.53125 8.53125zm0 0"/><path d="m93.867188 119.464844h-51.199219c-4.714844 0-8.535157-3.820313-8.535157-8.53125 0-4.714844 3.820313-8.535156 8.535157-8.535156h51.199219c4.710937 0 8.53125 3.820312 8.53125 8.535156 0 4.710937-3.820313 8.53125-8.53125 8.53125zm0 0"/><path d="m93.867188 153.601562h-51.199219c-4.714844 0-8.535157-3.820312-8.535157-8.535156 0-4.710937 3.820313-8.53125 8.535157-8.53125h51.199219c4.710937 0 8.53125 3.820313 8.53125 8.53125 0 4.714844-3.820313 8.535156-8.53125 8.535156zm0 0"/><path d="m93.867188 187.734375h-51.199219c-4.714844 0-8.535157-3.820313-8.535157-8.535156 0-4.710938 3.820313-8.53125 8.535157-8.53125h51.199219c4.710937 0 8.53125 3.820312 8.53125 8.53125 0 4.714843-3.820313 8.535156-8.53125 8.535156zm0 0"/><path d="m494.933594 221.867188h-102.398438c-9.421875-.011719-17.058594-7.644532-17.070312-17.066407v-153.601562c.011718-9.421875 7.648437-17.054688 17.070312-17.066407h102.398438c9.421875.011719 17.054687 7.644532 17.066406 17.066407v153.601562c-.011719 9.421875-7.644531 17.054688-17.066406 17.066407zm-102.398438-170.667969h-.011718l.011718 153.601562h102.398438v-153.601562zm0 0"/><path d="m469.332031 85.332031h-51.199219c-4.710937 0-8.53125-3.820312-8.53125-8.53125 0-4.714843 3.820313-8.535156 8.53125-8.535156h51.199219c4.714844 0 8.535157 3.820313 8.535157 8.535156 0 4.710938-3.820313 8.53125-8.535157 8.53125zm0 0"/><path d="m469.332031 119.464844h-51.199219c-4.710937 0-8.53125-3.820313-8.53125-8.53125 0-4.714844 3.820313-8.535156 8.53125-8.535156h51.199219c4.714844 0 8.535157 3.820312 8.535157 8.535156 0 4.710937-3.820313 8.53125-8.535157 8.53125zm0 0"/><path d="m469.332031 153.601562h-51.199219c-4.710937 0-8.53125-3.820312-8.53125-8.535156 0-4.710937 3.820313-8.53125 8.53125-8.53125h51.199219c4.714844 0 8.535157 3.820313 8.535157 8.53125 0 4.714844-3.820313 8.535156-8.535157 8.535156zm0 0"/><path d="m469.332031 187.734375h-51.199219c-4.710937 0-8.53125-3.820313-8.53125-8.535156 0-4.710938 3.820313-8.53125 8.53125-8.53125h51.199219c4.714844 0 8.535157 3.820312 8.535157 8.53125 0 4.714843-3.820313 8.535156-8.535157 8.535156zm0 0"/><path d="m307.199219 187.734375h-102.398438c-9.421875-.011719-17.054687-7.648437-17.066406-17.066406v-153.601563c.011719-9.421875 7.644531-17.0546872 17.066406-17.066406h102.398438c9.421875.0117188 17.054687 7.644531 17.066406 17.066406v153.601563c-.011719 9.417969-7.644531 17.054687-17.066406 17.066406zm-102.398438-170.667969v153.601563h102.398438v-153.601563zm0 0"/><path d="m281.601562 51.199219h-51.203124c-4.710938 0-8.53125-3.820313-8.53125-8.53125 0-4.714844 3.820312-8.535157 8.53125-8.535157h51.203124c4.710938 0 8.53125 3.820313 8.53125 8.535157 0 4.710937-3.820312 8.53125-8.53125 8.53125zm0 0"/><path d="m281.601562 85.332031h-51.203124c-4.710938 0-8.53125-3.820312-8.53125-8.53125 0-4.714843 3.820312-8.535156 8.53125-8.535156h51.203124c4.710938 0 8.53125 3.820313 8.53125 8.535156 0 4.710938-3.820312 8.53125-8.53125 8.53125zm0 0"/><path d="m281.601562 119.464844h-51.203124c-4.710938 0-8.53125-3.820313-8.53125-8.53125 0-4.714844 3.820312-8.535156 8.53125-8.535156h51.203124c4.710938 0 8.53125 3.820312 8.53125 8.535156 0 4.710937-3.820312 8.53125-8.53125 8.53125zm0 0"/><path d="m281.601562 153.601562h-51.203124c-4.710938 0-8.53125-3.820312-8.53125-8.535156 0-4.710937 3.820312-8.53125 8.53125-8.53125h51.203124c4.710938 0 8.53125 3.820313 8.53125 8.53125 0 4.714844-3.820312 8.535156-8.53125 8.535156zm0 0"/><path d="m128.007812 153.601562c-3.960937.003907-7.402343-2.714843-8.3125-6.570312-.914062-3.851562.945313-7.828125 4.488282-9.597656l68.265625-34.132813c4.214843-2.109375 9.34375-.398437 11.449219 3.816407 2.109374 4.214843.402343 9.339843-3.816407 11.449218l-68.265625 34.132813c-1.179687.59375-2.484375.902343-3.808594.902343zm0 0"/><path d="m383.992188 153.601562c-1.324219 0-2.628907-.308593-3.808594-.902343l-68.265625-34.132813c-4.21875-2.109375-5.925781-7.234375-3.816407-11.449218 2.105469-4.214844 7.234376-5.925782 11.449219-3.816407l68.265625 34.132813c3.542969 1.769531 5.402344 5.746094 4.488282 9.597656-.910157 3.855469-4.351563 6.574219-8.3125 6.570312zm0 0"/><path d="m109.714844 409.601562h-17.066406c-4.710938 0-8.53125-3.820312-8.53125-8.535156 0-4.710937 3.820312-8.53125 8.53125-8.53125h17.066406c4.714844 0 8.535156 3.820313 8.535156 8.53125 0 4.714844-3.820312 8.535156-8.535156 8.535156zm-41.449219-17.066406c-4.710937 0-8.53125-3.824218-8.53125-8.535156v-17.066406c0-4.714844 3.820313-8.535156 8.53125-8.535156 4.714844 0 8.535156 3.820312 8.535156 8.535156v17.066406c0 4.710938-3.820312 8.535156-8.535156 8.535156zm0-51.203125c-4.710937 0-8.53125-3.820312-8.53125-8.53125v-17.066406c0-4.714844 3.820313-8.535156 8.53125-8.535156 4.714844 0 8.535156 3.820312 8.535156 8.535156v17.066406c0 4.710938-3.820312 8.53125-8.535156 8.53125zm0-51.199219c-4.710937 0-8.53125-3.820312-8.53125-8.53125v-17.066406c0-4.714844 3.820313-8.535156 8.53125-8.535156 4.714844 0 8.535156 3.820312 8.535156 8.535156v17.066406c0 4.710938-3.820312 8.53125-8.535156 8.53125zm0-51.199218c-4.710937 0-8.53125-3.820313-8.53125-8.535156v-17.066407c0-4.710937 3.820313-8.53125 8.53125-8.53125 4.714844 0 8.535156 3.820313 8.535156 8.53125v17.066407c0 4.714843-3.820312 8.535156-8.535156 8.535156zm0 0"/><path d="m419.351562 409.601562h-17.066406c-4.714844 0-8.535156-3.820312-8.535156-8.535156 0-4.710937 3.820312-8.53125 8.535156-8.53125h17.066406c4.710938 0 8.53125 3.820313 8.53125 8.53125 0 4.714844-3.820312 8.535156-8.53125 8.535156zm24.382813-17.066406c-4.714844 0-8.535156-3.824218-8.535156-8.535156v-17.066406c0-4.714844 3.820312-8.535156 8.535156-8.535156 4.710937 0 8.53125 3.820312 8.53125 8.535156v17.066406c0 4.710938-3.820313 8.535156-8.53125 8.535156zm0-51.203125c-4.714844 0-8.535156-3.820312-8.535156-8.53125v-17.066406c0-4.714844 3.820312-8.535156 8.535156-8.535156 4.710937 0 8.53125 3.820312 8.53125 8.535156v17.066406c0 4.710938-3.820313 8.53125-8.53125 8.53125zm0-51.199219c-4.714844 0-8.535156-3.820312-8.535156-8.53125v-17.066406c0-4.714844 3.820312-8.535156 8.535156-8.535156 4.710937 0 8.53125 3.820312 8.53125 8.535156v17.066406c0 4.710938-3.820313 8.53125-8.53125 8.53125zm0-51.199218c-4.714844 0-8.535156-3.820313-8.535156-8.535156v-17.066407c0-4.710937 3.820312-8.53125 8.535156-8.53125 4.710937 0 8.53125 3.820313 8.53125 8.53125v17.066407c0 4.714843-3.820313 8.535156-8.53125 8.535156zm0 0"/><path d="m256 256c-4.710938 0-8.535156-3.820312-8.535156-8.535156v-17.066406c0-4.710938 3.824218-8.53125 8.535156-8.53125s8.535156 3.820312 8.535156 8.53125v17.066406c0 4.714844-3.824218 8.535156-8.535156 8.535156zm0-51.199219c-4.710938 0-8.535156-3.820312-8.535156-8.535156v-17.066406c0-4.710938 3.824218-8.53125 8.535156-8.53125s8.535156 3.820312 8.535156 8.53125v17.066406c0 4.714844-3.824218 8.535156-8.535156 8.535156zm0 0"/></svg>