<?xml version="1.0" encoding="iso-8859-1"?>
<!-- Generator: Adobe Illustrator 19.0.0, SVG Export Plug-In . SVG Version: 6.00 Build 0)  -->
<svg xmlns="http://www.w3.org/2000/svg" xmlns:xlink="http://www.w3.org/1999/xlink" version="1.1" id="Layer_1" x="0px" y="0px" viewBox="0 0 512 512" style="enable-background:new 0 0 512 512;" xml:space="preserve" width="512" height="512">
<g id="XMLID_551_">
	<g id="XMLID_552_">
		<path id="XMLID_553_" style="fill:#77DFFF;" d="M386.251,18.18l-21.3,347.03c-1.49,24.22-21.56,43.1-45.82,43.1h-69.45    c-24.26,0-44.33-18.88-45.82-43.1l-21.3-347.03c-0.35-5.79,4.25-10.68,10.05-10.68h183.59c3.5,0,6.56,1.78,8.36,4.47    C385.751,13.73,386.391,15.88,386.251,18.18z"/>
		<path id="XMLID_554_" style="fill:#B7F1FF;" d="M384.561,11.97l-190.68,190.69l-1.62-26.52L360.901,7.5h15.3    C379.701,7.5,382.761,9.28,384.561,11.97z"/>
		<path id="XMLID_555_" style="fill:#B7F1FF;" d="M384.931,39.67l-4.68,76.34l-2.67,43.53l-12.63,205.67    c-1.49,24.22-21.56,43.1-45.82,43.1h-69.45c-24.26,0-44.33-18.88-45.82-43.1l-8.36-136.12L384.931,39.67z"/>
		<path id="XMLID_556_" style="fill:#B7F1FF;" d="M211.895,323.608h-28.697c-14.966,0-27.141-12.176-27.141-27.142v-101.53    c0-14.966,12.175-27.142,27.141-27.142h28.697v-30.323h-28.697c-31.686,0-57.464,25.778-57.464,57.464v101.53    c0,31.686,25.778,57.464,57.464,57.464h28.697V323.608z"/>
		<rect id="XMLID_557_" x="271.421" y="349.4" style="fill:#B7F1FF;" width="25.97" height="107.75"/>
		<rect id="XMLID_558_" x="271.421" y="349.4" style="fill:#77DFFF;" width="25.97" height="70.91"/>
		<path id="XMLID_559_" style="fill:#FBDBB7;" d="M380.251,116.01l-15.3,249.2c-1.49,24.22-21.56,43.1-45.82,43.1h-69.45    c-24.26,0-44.33-18.88-45.82-43.1l-15.3-249.2H380.251z"/>
		<path id="XMLID_560_" style="fill:#FFEDDC;" d="M355.25,118.152H210.083c0.682-3.391,1.842-6.61,3.4-9.58    c5.174-9.878,14.781-17.066,26.181-18.926c1.449-20.718,18.709-37.08,39.797-37.08c15.973,0,29.748,9.391,36.122,22.944    c18.872,1.472,34.33,15.097,38.533,33.061C354.839,111.651,355.232,114.856,355.25,118.152z"/>
		<path id="XMLID_561_" style="fill:#F4BC8E;" d="M378.321,147.54l-0.74,12l-12.63,205.67c-1.49,24.22-21.56,43.1-45.82,43.1h-69.45    c-24.26,0-44.33-18.88-45.82-43.1l-12.63-205.67l-0.74-12H378.321z"/>
		<path id="XMLID_562_" style="fill:#CF8671;" d="M377.581,159.54l-12.63,205.67c-1.49,24.22-21.56,43.1-45.82,43.1h-69.45    c-24.26,0-44.33-18.88-45.82-43.1l-12.63-205.67H377.581z"/>
		<polygon id="XMLID_563_" style="fill:#BE7560;" points="377.581,159.54 376.781,172.54 192.031,172.54 191.231,159.54   "/>
		<path id="XMLID_564_" style="fill:#77DFFF;" d="M298.403,485.164h-27.998c-10.953,0-19.832-8.879-19.832-19.832v0    c0-10.953,8.879-19.832,19.832-19.832h27.998c10.953,0,19.832,8.879,19.832,19.832v0    C318.234,476.285,309.355,485.164,298.403,485.164z"/>
		<path id="XMLID_565_" style="fill:#4FB4FF;" d="M318.236,465.199v0.129c0,5.475-2.216,10.435-5.804,14.023    c-3.588,3.602-8.548,5.818-14.023,5.818h-28.004c-10.95,0-19.827-8.891-19.827-19.841v-0.129H318.236z"/>
		<path id="XMLID_1419_" style="fill:#B7F1FF;" d="M335.703,504.5H233.105c-3.337,0-6.042-2.705-6.042-6.042v0    c0-11.716,9.498-21.214,21.214-21.214h72.256c11.716,0,21.214,9.498,21.214,21.214v0C341.746,501.795,339.04,504.5,335.703,504.5z    "/>
	</g>
	<g id="XMLID_566_">
		<path id="XMLID_567_" d="M388.994,5.533C385.687,2.017,381.022,0,376.195,0H250.263c-4.142,0-7.5,3.357-7.5,7.5s3.358,7.5,7.5,7.5    h125.932c0.967,0,1.588,0.507,1.873,0.81c0.284,0.303,0.752,0.954,0.693,1.919l-5.572,90.783h-11.444    c-0.108-0.55-0.2-1.116-0.325-1.649c-4.708-20.119-20.929-35.074-41.043-38.326c-8.442-14.384-24.069-23.47-40.916-23.47    c-22.88,0-42.338,16.493-46.551,38.465c-11.112,3.37-20.616,11.145-26.07,21.557c-0.573,1.092-1.104,2.238-1.594,3.424h-9.628    l-5.572-90.783c-0.059-0.965,0.409-1.616,0.693-1.919c0.285-0.303,0.906-0.81,1.873-0.81h23.128c4.142,0,7.5-3.357,7.5-7.5    s-3.358-7.5-7.5-7.5h-23.128c-4.827,0-9.492,2.017-12.799,5.533c-3.307,3.516-5.035,8.296-4.739,13.114l6.835,111.357    c-35.227,0.692-63.675,29.543-63.675,64.932v49.802c0,4.143,3.358,7.5,7.5,7.5s7.5-3.357,7.5-7.5v-49.802    c0-27.427,22.214-49.755,49.594-49.955l0.94,15.314h-0.57c-19.102,0-34.642,15.54-34.642,34.642v101.529    c0,19.102,15.54,34.642,34.642,34.642h11.054l0.94,15.323h-11.994c-27.55,0-49.964-22.414-49.964-49.965v-17.204    c0-4.143-3.358-7.5-7.5-7.5s-7.5,3.357-7.5,7.5v17.204c0,35.821,29.143,64.965,64.964,64.965h12.915l0.26,4.241    c1.726,28.116,25.143,50.141,53.311,50.141h14.236v22.971c-11.95,2.919-20.848,13.711-20.848,26.548    c0,1.626,0.16,3.234,0.442,4.814c-13.574,2.276-23.953,14.101-23.953,28.312c0,7.467,6.075,13.542,13.542,13.542h102.599    c7.467,0,13.542-6.075,13.542-13.542c0-14.211-10.379-26.037-23.953-28.312c0.282-1.582,0.442-3.189,0.442-4.814    c0-12.837-8.897-23.629-20.848-26.548v-22.971h14.236c28.168,0,51.585-22.024,53.312-50.141l7.792-126.951    c0.254-4.134-2.892-7.691-7.026-7.945c-4.134-0.246-7.691,2.892-7.945,7.027l-7.792,126.95    c-1.241,20.221-18.082,36.06-38.34,36.06h-69.438c-20.258,0-37.098-15.839-38.339-36.059l-12.135-197.717h170.387l-2.224,36.242    c-0.254,4.134,2.892,7.691,7.026,7.945c0.156,0.009,0.312,0.014,0.467,0.014c3.932,0,7.234-3.063,7.479-7.041l11.388-185.551    C394.029,13.829,392.301,9.049,388.994,5.533z M334.169,497h-99.529c0.73-6.879,6.567-12.256,13.637-12.256h72.256    C327.601,484.744,333.439,490.121,334.169,497z M310.734,465.332c0,1.521-0.283,3.013-0.818,4.412h-51.028    c-0.535-1.398-0.815-2.89-0.815-4.412c0-6.8,5.532-12.332,12.332-12.332h27.998C305.202,453,310.734,458.532,310.734,465.332z     M289.887,438h-10.965v-22.188h10.965V438z M240.872,97.048c3.434-0.561,6.031-3.408,6.274-6.879    c1.181-16.88,15.375-30.103,32.315-30.103c12.496,0,24.011,7.314,29.336,18.636c1.147,2.439,3.516,4.075,6.203,4.285    c14.879,1.161,27.256,11.327,31.347,25.524H222.34C226.75,102.455,233.426,98.263,240.872,97.048z M183.199,316.107    c-10.831,0-19.642-8.812-19.642-19.642V194.937c0-10.83,8.811-19.642,19.642-19.642h1.491l8.642,140.813H183.199z M198.29,152.037    l-1.751-28.525h175.729l-1.751,28.525H198.29z"/>
		<path id="XMLID_575_" d="M288.463,75.908h-0.104c-4.142,0-7.5,3.357-7.5,7.5s3.358,7.5,7.5,7.5h0.104c4.142,0,7.5-3.357,7.5-7.5    S292.605,75.908,288.463,75.908z"/>
		<path id="XMLID_576_" d="M249.272,309c0-4.143-3.358-7.5-7.5-7.5h-0.104c-4.142,0-7.5,3.357-7.5,7.5s3.358,7.5,7.5,7.5h0.104    C245.914,316.5,249.272,313.143,249.272,309z"/>
		<path id="XMLID_577_" d="M250.336,342.5h0.104c4.142,0,7.5-3.357,7.5-7.5s-3.358-7.5-7.5-7.5h-0.104c-4.142,0-7.5,3.357-7.5,7.5    S246.194,342.5,250.336,342.5z"/>
		<path id="XMLID_578_" d="M331.002,273.5c-4.142,0-7.5,3.357-7.5,7.5s3.358,7.5,7.5,7.5h0.104c4.142,0,7.5-3.357,7.5-7.5    s-3.358-7.5-7.5-7.5H331.002z"/>
	</g>
</g>















</svg>
