<svg id="Layer_4" height="512" viewBox="0 0 512 512" width="512" xmlns="http://www.w3.org/2000/svg" data-name="Layer 4"><path d="m280 360h-40l-16 48v64h34.667l5.333-64z" fill="#eda754"/><path d="m192 504h64l2.667-32h-34.667z" fill="#3a8907"/><path d="m272 360h-32l24-56h40z" fill="#c63d06"/><path d="m264 168-41.967 50.361 41.967-2.361z" fill="#3a8907"/><path d="m376 184 72-8-32-64-30.533-79.386a38.4 38.4 0 0 0 -35.839-24.614h-93.762a13.513 13.513 0 0 0 -11.587 20.465l11.721 19.535 80 120z" fill="#f4bb03"/><path d="m256 48h88l24 24v31.041c0 22.621-10.338 40.959-32.959 40.959h-38.082a40.959 40.959 0 0 1 -40.959-40.959z" fill="#ffc880"/><path d="m264 168h112v136h-112z" fill="#4ba013"/><path d="m376 168-128 48-88 8v32h80l136-48z" fill="#56bc13"/><path d="m376 304-32 56h-72l8-56z" fill="#e84700"/><path d="m296 144h40v24h-40z" fill="#ffc880"/><path d="m80 224h32v32h-32z" fill="#d69f05"/><path d="m112 224h48v32h-48z" fill="#ffc880"/><path d="m362 328h38l8-24h-32z" fill="#f4bb03"/><path d="m304 408 24-48h-48l-16 48 24 64h32z" fill="#ffc880"/><path d="m288 472-32 32h72l-8-32z" fill="#4ba013"/><path d="m296 159.4a210.956 210.956 0 0 0 40-6.842v-8.558h-40z" fill="#dd8f3a"/><circle cx="332" cy="76" r="12"/><circle cx="284" cy="76" r="12"/><path d="m336 104h-16a8 8 0 0 1 -16 0h-16a24 24 0 0 0 48 0z"/><path d="m123.3 350.073a84.253 84.253 0 1 0 14.2 7.374l17.691-34.2 73.857 44.314-12.637 37.909a8 8 0 0 0 -.411 2.53v60.687l-29.657 29.657a8 8 0 0 0 5.657 13.656h136a8 8 0 0 0 7.761-9.94l-22.924-91.7 24.014 5.8a84.062 84.062 0 1 0 51.679-66.02l-7.353-14.14h18.823a8 8 0 0 0 7.589-5.47l8-24a8 8 0 0 0 -7.589-10.53h-24v-104.84l64.883-7.209a8 8 0 0 0 6.272-11.529l-31.827-63.654-30.394-79.025a46.675 46.675 0 0 0 -43.306-29.743h-93.762a21.27 21.27 0 0 0 -18.72 10.914 21.27 21.27 0 0 0 .273 21.667l10.581 17.635v52.825a49.03 49.03 0 0 0 40 48.123v8.836h-24a7.981 7.981 0 0 0 -6.145 2.88l-39.846 47.815-58.373 5.305h-79.636a8 8 0 0 0 -8 8v32a8 8 0 0 0 8 8h64v46.054zm36.7 77.927a68.031 68.031 0 1 1 -44.086-63.647l-31.02 59.972 14.212 7.351 31.012-59.957a67.982 67.982 0 0 1 29.882 56.281zm88.639 68h-37.326l16-16h22.659zm7.771-90.53a7.993 7.993 0 0 0 -.378 1.866l-4.726 56.664h-19.306v-54.7l11.1-33.308 19.279 11.567zm8.652-53.47h-12.93l17.143-40h1.5zm3.839 16-1.336 4.009-6.683-4.009zm.114 76.156 9.686 25.83-12.915 12.914zm2.985-148.156v-42.81l96-33.882v76.692zm90.214 16-22.857 40h-58.133l5.714-40zm-48.46 168 4 16h-42.44l16-16zm-16.909-75.578a8 8 0 0 0 -.606 5.518l13.515 54.06h-16.21l-21.059-56.157 13.281-39.843h29.29zm22.377-8.978 13.722-27.444h11.056a8 8 0 0 0 6.946-4.031l14-24.5 9.4 18.077a84.392 84.392 0 0 0 -33.736 43.062zm100.778-35.444a68.132 68.132 0 1 1 -67.505 59.935l65.628 15.841a8 8 0 0 0 8.975-11.468l-31.149-59.9a67.639 67.639 0 0 1 24.051-4.408zm-38.239 11.8 23.034 44.3-48.557-11.721a68.352 68.352 0 0 1 25.523-32.579zm15.139-59.8-2.667 8h-18.162l4.571-8zm-136.371-272-9.391-15.651a5.513 5.513 0 0 1 4.728-8.349h93.762a30.579 30.579 0 0 1 28.372 19.486l30.533 79.386c.092.24.2.476.312.706l26.869 53.738-51.714 5.746v-7.062a8 8 0 0 0 -8-8h-32v-8.9c19.713-4.107 32-22.063 32-48.062v-31.038a8 8 0 0 0 -2.343-5.657l-24-24a8 8 0 0 0 -5.657-2.343zm3.471 63.041v-47.041h76.686l19.314 19.314v27.727c0 9.91-2.432 32.959-24.959 32.959h-38.082a33 33 0 0 1 -32.959-32.959zm64 48.959v8h-24v-8zm-56 24h59.882l-59.882 22.456zm-16 14.1v14.359l-9.8 3.675-5.658.514zm-88 41.209 80.724-7.338a8 8 0 0 0 2.085-.477l117.191-43.95v22.8l-129.37 45.656h-70.63zm-8 32.691h80a8 8 0 0 0 2.663-.456l13.337-4.707v43.521l-21.379 49.885-74.621-44.772zm-56-16h-16v-16h16zm16 0v-16h32v16z"/></svg>