<svg id="Capa_1" enable-background="new 0 0 512.012 512.012" height="512" viewBox="0 0 512.012 512.012" width="512" xmlns="http://www.w3.org/2000/svg"><g><g><path d="m481.254 415.482v-320.871c0-11.107-9.004-20.111-20.111-20.111h-410.273c-11.107 0-20.111 9.004-20.111 20.111v320.871z" fill="#bae6ef"/><path d="m56.756 388.315c-2.761 0-5-2.239-5-5v-308.82h-.89c-11.1 0-20.11 9.01-20.11 20.12v320.87h450.5v-27.17z" fill="#94d8e6"/><path d="m19.525 403.163 3.931-.847h191.82l41.515 2.378 40.945-2.378h196.32c6.939 0 11.948 6.642 10.041 13.314l-.002.007c-.7 2.448-1.691 4.753-2.928 6.88-5.308 9.125-20.305 12.012-31.226 12.012l-431.683 1.541c-13.471 0-25.077-6.643-28.775-19.596-1.905-6.672 3.104-13.311 10.042-13.311z" fill="#9e959e"/><path d="m297.736 402.315v35.2l-41.73-2.223-40.73 2.223v-35.2z" fill="#8e868e"/><path d="m501.166 422.515c-5.3 9.13-15.16 15-26.08 15h-177.35l-39.336-1.446-43.124 1.446h-178.35c-13.48 0-25.31-8.94-29.01-21.89-.28-.97-.41-1.94-.41-2.89 0-5.57 4.52-10.42 10.45-10.42h5.5c4.21 12.03 15.58 20.2 28.47 20.2z" fill="#8e868e"/><path d="m215.276 422.515h82.46v15h-82.46z" fill="#766d78"/><path d="m83.506 285.366v-144.937c0-11.063 8.968-20.031 20.031-20.031h304.937c11.063 0 20.031 8.968 20.031 20.031v144.937c0 11.063-8.968 20.031-20.031 20.031h-304.937c-11.063 0-20.031-8.968-20.031-20.031z" fill="#f8f7f7"/><path d="m309.006 212.897c0-27.703-21.139-50.456-48.125-52.924-1.605-.147-4.305.701-5.949.701-29.271 0-48.716 22.874-48.716 52.225s20.518 52.307 49.789 52.307c1.82 0 3.618.744 5.39.565 26.74-2.708 47.611-25.347 47.611-52.874z" fill="#df646e"/><path d="m263.006 265.585c-2.29.3-4.63.46-7 .46-29.27 0-53-23.8-53-53.15s23.73-53.14 53-53.14c2.37 0 4.71.16 7 .46-25.96 3.43-46 25.71-46 52.68s20.04 49.25 46 52.69z" fill="#dc4955"/><path d="m278.214 209.035-30.49-17.652c-2.975-1.722-6.699.424-6.699 3.862v35.304c0 3.438 3.724 5.585 6.699 3.862l30.49-17.652c2.969-1.718 2.969-6.005 0-7.724z" fill="#f8f7f7"/></g><g><path d="m508.382 401.954c-3.422-4.537-8.643-7.139-14.326-7.139h-5.303v-300.204c0-15.225-12.386-27.611-27.611-27.611h-334.072c-4.142 0-7.5 3.358-7.5 7.5s3.358 7.5 7.5 7.5h334.072c6.954 0 12.611 5.657 12.611 12.611v300.205h-328.62c-4.142 0-7.5 3.358-7.5 7.5s3.358 7.5 7.5 7.5h62.641v20.195h-170.853c-10.069 0-19.031-6.762-21.796-16.444-.351-1.226.15-2.143.48-2.58.33-.438 1.074-1.171 2.35-1.171h92.008c4.142 0 7.5-3.358 7.5-7.5s-3.358-7.5-7.5-7.5h-71.705v-300.205c0-6.954 5.657-12.611 12.612-12.611h41.094c4.142 0 7.5-3.358 7.5-7.5s-3.358-7.5-7.5-7.5h-41.094c-15.225 0-27.611 12.386-27.611 27.611v300.205h-5.303c-5.682 0-10.902 2.601-14.324 7.137-3.421 4.536-4.489 10.27-2.93 15.733 4.594 16.089 19.488 27.325 36.22 27.325h438.168c16.195.143 31.675-11.387 36.218-27.319 1.562-5.465.496-11.201-2.926-15.738zm-218.151 28.057h-67.457v-20.195h67.457zm206.66-16.461c-.002.008-.005.016-.007.024-2.767 9.677-11.729 16.436-21.794 16.436h-169.859v-20.195h188.825c1.276 0 2.02.734 2.35 1.171.328.436.826 1.346.485 2.564z"/><path d="m428.506 169.527c4.142 0 7.5-3.358 7.5-7.5v-21.598c0-15.181-12.351-27.532-27.531-27.532h-304.938c-15.181 0-27.531 12.351-27.531 27.532v144.937c0 15.181 12.351 27.531 27.531 27.531h304.938c15.181 0 27.531-12.351 27.531-27.531v-88.297c0-4.142-3.358-7.5-7.5-7.5s-7.5 3.358-7.5 7.5v88.297c0 6.91-5.622 12.531-12.531 12.531h-304.938c-6.91 0-12.531-5.622-12.531-12.531v-144.937c0-6.91 5.622-12.532 12.531-12.532h304.938c6.91 0 12.531 5.622 12.531 12.532v21.598c0 4.142 3.358 7.5 7.5 7.5z"/><path d="m83.335 340.06h68.154c4.142 0 7.5-3.358 7.5-7.5s-3.358-7.5-7.5-7.5h-68.154c-4.142 0-7.5 3.358-7.5 7.5s3.358 7.5 7.5 7.5z"/><path d="m398.506 325.005c-4.142 0-7.5 3.358-7.5 7.5s3.358 7.5 7.5 7.5h30c4.142 0 7.5-3.358 7.5-7.5s-3.358-7.5-7.5-7.5z"/><path d="m338.506 325.005c-4.142 0-7.5 3.358-7.5 7.5s3.358 7.5 7.5 7.5h30c4.142 0 7.5-3.358 7.5-7.5s-3.358-7.5-7.5-7.5z"/><path d="m316.006 332.505c0-4.142-3.358-7.5-7.5-7.5h-30c-4.142 0-7.5 3.358-7.5 7.5s3.358 7.5 7.5 7.5h30c4.142 0 7.5-3.358 7.5-7.5z"/><path d="m217.133 355.046c-4.142 0-7.5 3.358-7.5 7.5s3.358 7.5 7.5 7.5h59.543c4.142 0 7.5-3.358 7.5-7.5s-3.358-7.5-7.5-7.5z"/><path d="m83.335 370.046h103.798c4.142 0 7.5-3.358 7.5-7.5s-3.358-7.5-7.5-7.5h-103.798c-4.142 0-7.5 3.358-7.5 7.5s3.358 7.5 7.5 7.5z"/><path d="m214.869 247.236c-2.787 3.065-2.561 7.808.504 10.594 11.146 10.133 25.576 15.713 40.632 15.713 33.36 0 60.5-27.206 60.5-60.646s-27.14-60.646-60.5-60.646-60.5 27.206-60.5 60.646c0 3.448.292 6.908.868 10.284.695 4.083 4.565 6.826 8.654 6.133 4.083-.696 6.829-4.571 6.133-8.654-.434-2.545-.654-5.157-.654-7.762 0-25.169 20.411-45.646 45.5-45.646s45.5 20.477 45.5 45.646-20.411 45.646-45.5 45.646c-11.317 0-22.164-4.195-30.542-11.812-3.065-2.786-7.809-2.561-10.595.504z"/><path d="m245.488 242.507c2.073 0 4.146-.535 5.994-1.604l30.49-17.652c6.66-3.702 8.601-15.581 0-20.706l-30.491-17.652c-6.538-3.941-17.828.322-17.956 10.353v35.304c.152 5.331 4.541 11.943 11.963 11.957zm3.037-41.994 21.391 12.384-21.391 12.384z"/></g></g></svg>