<svg id="Capa_1" enable-background="new 0 0 511.988 511.988" height="512" viewBox="0 0 511.988 511.988" width="512" xmlns="http://www.w3.org/2000/svg"><g><g><path d="m305.978 46.329v327.785c0 21.446-17.385 38.831-38.831 38.831h-219.884c-21.446 0-38.831-17.385-38.831-38.831v-327.785c0-21.446 17.385-38.831 38.831-38.831h219.884c21.446 0 38.831 17.385 38.831 38.831z" fill="#f9f6f9"/><path d="m65.854 412.941h-18.59c-21.449 0-38.833-17.384-38.833-38.833v-327.779c0-21.449 17.384-38.833 38.833-38.833h18.59c-21.439 0-38.833 17.384-38.833 38.833v327.779c0 21.449 17.394 38.833 38.833 38.833z" fill="#e7ecf6"/><path d="m274.245 46.333v327.779c0 3.915-3.188 7.103-7.093 7.103h-219.888c-3.915 0-7.103-3.188-7.103-7.103v-327.779c0-3.915 3.188-7.103 7.103-7.103h219.887c3.906-.001 7.094 3.188 7.094 7.103z" fill="#d57080"/><g><path d="m129.204 213.958c7.711 20.482 3.347 44.472-13.14 60.959l-75.903 75.903v-162.027c16.049-12.483 37.199-15.252 55.53-8.349l44.631-44.631 33.513 33.513z" fill="#b3e59f"/><path d="m151.689 147.181-44.631 44.621c-10.929 1.843-28.263 12.871-44.751 29.359l-22.146 22.146v-54.513c16.059-12.483 37.199-15.252 55.54-8.358l44.621-44.621z" fill="#95d6a4"/></g><g><path d="m464.725 504.488h-327.785c-21.446 0-38.831-17.385-38.831-38.831v-219.885c0-21.446 17.385-38.831 38.831-38.831h327.785c21.446 0 38.831 17.385 38.831 38.831v219.884c0 21.446-17.385 38.832-38.831 38.832z" fill="#f9f6f9"/><path d="m151.975 504.483h-15.033c-21.449 0-38.833-17.384-38.833-38.833v-219.878c0-21.449 17.384-38.833 38.833-38.833h15.033c-21.439 0-38.823 17.384-38.823 38.833v219.878c0 21.448 17.384 38.833 38.823 38.833z" fill="#e7ecf6"/><path d="m136.94 472.755c-3.914 0-7.099-3.185-7.099-7.099v-219.884c0-3.914 3.185-7.099 7.099-7.099h327.786c3.914 0 7.099 3.185 7.099 7.099v219.884c0 3.914-3.185 7.099-7.099 7.099z" fill="#9dc6fb"/><path d="m203.486 427.676c-19.304 0-34.953-15.649-34.953-34.953v-46.765c0-19.304 15.649-34.953 34.953-34.953 19.304 0 34.953 15.649 34.953 34.953v46.765c-.001 19.304-15.649 34.953-34.953 34.953z" fill="#b3e59f"/><path d="m215.434 425.565c-3.734 1.365-7.753 2.105-11.953 2.105-19.304 0-34.948-15.644-34.948-34.948v-46.763c0-19.304 15.644-34.959 34.948-34.959 4.199 0 8.219.741 11.953 2.105-13.423 4.876-23.006 17.749-23.006 32.854v46.763c0 15.104 9.583 27.977 23.006 32.843z" fill="#95d6a4"/><path d="m270.414 414.163c-25.091 0-45.431-20.34-45.431-45.431v-60.784c0-25.091 20.34-45.431 45.431-45.431 25.091 0 45.431 20.34 45.431 45.431v60.784c0 25.091-20.34 45.431-45.431 45.431z" fill="#b3e59f"/><path d="m284.747 411.857c-4.506 1.492-9.319 2.306-14.322 2.306-25.1 0-45.441-20.341-45.441-45.431v-60.789c0-25.09 20.341-45.431 45.441-45.431 5.003 0 9.816.814 14.322 2.306-18.077 5.987-31.119 23.038-31.119 43.125v60.789c0 20.087 13.042 37.138 31.119 43.125z" fill="#95d6a4"/><path d="m405.105 414.271c-.469-16.57-14.038-29.86-30.721-29.86-16.647 0-30.194 13.232-30.719 29.751h-5.865c-16.18 0-29.296 13.116-29.296 29.296 0 16.18 13.116 29.296 29.296 29.296h64.871c16.18 0 29.296-13.117 29.296-29.296.001-15.359-11.822-27.949-26.862-29.187z" fill="#b3e59f"/><path d="m391.153 389.394c-1.661 1.089-3.205 2.327-4.622 3.702-5.532 5.373-9.044 12.809-9.308 21.07h-5.871c-16.173 0-29.289 13.116-29.289 29.289 0 8.092 3.279 15.422 8.578 20.721 5.299 5.3 12.63 8.578 20.711 8.578h-33.552c-8.081 0-15.411-3.279-20.711-8.578-5.299-5.299-8.578-12.63-8.578-20.721 0-16.173 13.116-29.289 29.289-29.289h5.871c.264-8.261 3.776-15.697 9.319-21.07 5.521-5.373 13.074-8.685 21.398-8.685 6.188 0 11.942 1.83 16.765 4.983z" fill="#95d6a4"/><circle cx="383.795" cy="311.006" fill="#f6e266" r="37.911"/><path d="m395.683 347.012c-3.734 1.237-7.732 1.904-11.889 1.904-20.943 0-37.91-16.966-37.91-37.91 0-20.933 16.966-37.91 37.91-37.91 4.157 0 8.155.666 11.889 1.904-15.115 4.982-26.021 19.219-26.021 36.006s10.906 31.024 26.021 36.006z" fill="#ffd064"/></g><path d="m206.84 73.064-16.242 16.242c-5.666 5.666-5.666 14.852 0 20.517l11.21 11.21c5.666 5.666 14.852 5.666 20.517 0l16.242-16.242c5.666-5.666 5.666-14.852 0-20.517l-11.21-11.21c-5.666-5.666-14.852-5.666-20.517 0z" fill="#f6e266"/><path d="m238.569 84.282c-5.669-5.519-14.754-5.469-20.363.149l-16.248 16.239c-5.569 5.578-5.659 14.564-.259 20.253l-11.098-11.098c-5.669-5.668-5.669-14.854 0-20.513l16.239-16.249c5.669-5.658 14.854-5.658 20.522 0z" fill="#ffd064"/></g><g><path d="m464.725 199.441h-151.25v-153.108c0-25.548-20.785-46.333-46.333-46.333h-219.878c-25.547 0-46.333 20.785-46.333 46.333v327.779c0 25.548 20.785 46.333 46.333 46.333h43.344v45.212c0 25.547 20.784 46.332 46.332 46.332h327.785c25.547 0 46.331-20.784 46.331-46.332v-219.885c0-25.547-20.784-46.331-46.331-46.331zm-417.461 206.003c-17.277 0-31.333-14.056-31.333-31.333v-327.778c0-17.277 14.057-31.333 31.333-31.333h219.877c17.277 0 31.333 14.056 31.333 31.333v153.108h-16.731v-153.107c0-8.05-6.545-14.6-14.59-14.6h-168.019c-4.142 0-7.5 3.358-7.5 7.5s3.358 7.5 7.5 7.5h167.61v152.707h-112.416l24.811-24.811c1.407-1.406 2.197-3.314 2.197-5.303s-.79-3.897-2.197-5.303l-33.513-33.513c-2.929-2.929-7.678-2.929-10.606 0l-41.36 41.358c-15.285-4.451-31.751-3.075-45.997 3.602v-128.737h21.47c4.142 0 7.5-3.358 7.5-7.5s-3.358-7.5-7.5-7.5h-21.87c-8.05 0-14.6 6.549-14.6 14.6v327.78c0 8.051 6.55 14.6 14.6 14.6h43.345v16.73zm.4-51.52 42.945-42.945v62.736h-42.945zm42.945-108.152v43.993l-42.945 42.945v-140.072c13.25-8.827 30.314-10.849 45.383-5.174 2.755 1.038 5.864.367 7.947-1.715l39.328-39.328 22.907 22.907-30.299 30.298c-23.675 2.041-42.321 21.951-42.321 46.146zm405.447 219.884c0 17.276-14.055 31.332-31.331 31.332h-327.785c-17.276 0-31.332-14.055-31.332-31.332v-219.884c0-17.276 14.055-31.332 31.332-31.332h327.785c17.276 0 31.331 14.055 31.331 31.332z"/><path d="m464.725 231.174h-327.785c-8.049 0-14.598 6.549-14.598 14.598v219.884c0 8.05 6.549 14.599 14.598 14.599h327.786c8.05 0 14.599-6.549 14.599-14.599v-219.884c-.001-8.049-6.55-14.598-14.6-14.598zm-194.311 175.489c-20.915 0-37.931-17.016-37.931-37.931v-60.784c0-20.915 17.016-37.931 37.931-37.931s37.931 17.016 37.931 37.931v60.784c0 20.915-17.016 37.931-37.931 37.931zm-41.121-4.653c-3.863 10.702-14.189 18.165-25.809 18.165-15.136 0-27.45-12.314-27.45-27.45v-46.77c0-15.136 12.314-27.45 27.45-27.45 5.011 0 9.783 1.339 14 3.859v46.369c0 12.598 4.432 24.178 11.809 33.277zm-18.307 32.484c12.787-2.327 23.86-10.485 29.947-21.824 6.463 4.351 13.934 7.305 21.982 8.452v44.133h-51.929zm253.338 30.761h-32.034c4.505-6.106 7.174-13.646 7.174-21.801 0-9.299-3.477-18.17-9.791-24.979-4.835-5.214-10.99-8.872-17.75-10.624-1.099-5.704-3.493-11.074-7.066-15.781-2.504-3.3-7.21-3.945-10.508-1.439-3.299 2.504-3.943 7.209-1.439 10.508 2.94 3.874 4.564 8.486 4.696 13.338.104 3.824 3.068 6.957 6.881 7.271 5.422.447 10.461 2.907 14.187 6.925 3.733 4.026 5.79 9.275 5.79 14.78 0 12.021-9.775 21.8-21.79 21.8h-64.87c-5.818 0-11.295-2.269-15.417-6.383-4.117-4.117-6.384-9.592-6.384-15.417 0-12.015 9.78-21.79 21.8-21.79h5.86c4.047 0 7.364-3.21 7.496-7.255.198-6.06 2.698-11.719 7.031-15.926 3.896-3.771 8.993-6.077 14.352-6.491 4.13-.319 7.219-3.926 6.899-8.056-.319-4.13-3.936-7.222-8.056-6.899-8.836.683-17.228 4.472-23.637 10.677-5.375 5.22-9.035 11.783-10.655 18.957-19.964.38-36.09 16.735-36.09 36.783 0 7.953 2.506 15.518 7.144 21.801h-30.233v-44.133c25.646-3.655 45.431-25.75 45.431-52.39v-60.784c0-29.186-23.745-52.931-52.931-52.931-28.491 0-51.785 22.631-52.878 50.859-4.46-1.564-9.186-2.372-14.052-2.372-23.407 0-42.45 19.043-42.45 42.45v46.77c0 20.848 15.11 38.221 34.952 41.773v30.757h-58.644v-219.079h326.982z"/><path d="m383.796 356.417c25.04 0 45.411-20.372 45.411-45.412s-20.372-45.411-45.411-45.411c-25.04 0-45.412 20.372-45.412 45.411 0 25.041 20.372 45.412 45.412 45.412zm0-75.822c16.769 0 30.411 13.643 30.411 30.411 0 16.769-13.643 30.412-30.411 30.412-16.769 0-30.412-13.643-30.412-30.412s13.643-30.411 30.412-30.411z"/><path d="m196.505 126.336c4.157 4.157 9.684 6.446 15.562 6.446s11.405-2.29 15.562-6.446l16.242-16.241c4.157-4.157 6.446-9.684 6.446-15.562 0-5.879-2.29-11.406-6.446-15.562l-11.21-11.21c-8.582-8.582-22.543-8.581-31.124 0l-16.242 16.242c-8.581 8.581-8.581 22.543 0 31.124zm-.604-31.727 16.242-16.242c1.366-1.366 3.161-2.049 4.956-2.049 1.794 0 3.589.683 4.955 2.049l11.21 11.211c1.324 1.323 2.053 3.083 2.053 4.955s-.729 3.631-2.053 4.955l-16.242 16.242c-1.323 1.324-3.083 2.053-4.955 2.053s-3.632-.729-4.956-2.053l-11.21-11.21c-2.732-2.733-2.732-7.179 0-9.911z"/><path d="m150.07 111.725c.544.12 1.088.178 1.624.178 3.442 0 6.544-2.385 7.316-5.885l8.51-38.55c.893-4.045-1.662-8.047-5.707-8.94-4.043-.89-8.047 1.662-8.94 5.707l-8.51 38.55c-.893 4.044 1.662 8.047 5.707 8.94z"/><path d="m224.984 151.25h-31.282c-4.142 0-7.5 3.358-7.5 7.5s3.358 7.5 7.5 7.5h31.282c4.142 0 7.5-3.358 7.5-7.5s-3.358-7.5-7.5-7.5z"/><path d="m116.146 116.33c.618 3.662 3.792 6.253 7.387 6.253.414 0 .834-.034 1.257-.105 4.084-.689 6.837-4.559 6.147-8.644l-5.056-29.956c-.69-4.084-4.556-6.838-8.644-6.147-4.084.689-6.837 4.559-6.147 8.644z"/><path d="m163.369 142.871c1.464 1.465 3.384 2.197 5.303 2.197s3.839-.732 5.303-2.197l8.132-8.132c2.929-2.929 2.929-7.677 0-10.606-2.928-2.929-7.677-2.929-10.606 0l-8.132 8.132c-2.929 2.928-2.929 7.676 0 10.606z"/></g></g></svg>