<?xml version="1.0" encoding="iso-8859-1"?>
<!-- Generator: Adobe Illustrator 19.0.0, SVG Export Plug-In . SVG Version: 6.00 Build 0)  -->
<svg version="1.1" id="Capa_1" xmlns="http://www.w3.org/2000/svg" xmlns:xlink="http://www.w3.org/1999/xlink" x="0px" y="0px"
	 viewBox="0 0 480 480" style="enable-background:new 0 0 480 480;" xml:space="preserve">
<path style="fill:#49C5F4;" d="M304,8H80C62.327,8,48,22.327,48,40v400c0,17.673,14.327,32,32,32h224c17.673,0,32-14.327,32-32v-16
	h24v32c0.026,8.826,7.174,15.974,16,16h16c8.826-0.026,15.974-7.174,16-16V24c-0.026-8.826-7.174-15.974-16-16h-16
	c-8.826,0.026-15.974,7.174-16,16v376h-24V40C336,22.327,321.673,8,304,8z M312,176v256c-0.026,8.826-7.174,15.974-16,16H88
	c-8.826-0.026-15.974-7.174-16-16V48c0.026-8.826,7.174-15.974,16-16h208c8.826,0.026,15.974,7.174,16,16V176z"/>
<g>
	<path style="fill:#96C9EF;" d="M296,32H88c-8.826,0.026-15.974,7.174-16,16v128h240V48C311.974,39.174,304.826,32.026,296,32z
		 M280,104V80c0-8.837-7.163-16-16-16c8.837,0,16,7.163,16,16V104z"/>
	<path style="fill:#96C9EF;" d="M72,432c0.026,8.826,7.174,15.974,16,16h208c8.826-0.026,15.974-7.174,16-16V312H72V432z"/>
	<path style="fill:#96C9EF;" d="M72,312h240V176H72V312z M264,216l-8,80h-32l-8-80H264z M128,216h48l-8,80h-32L128,216z"/>
</g>
<path style="fill:#49C5F4;" d="M432,272v-64l-24-8v80L432,272z"/>
<g>
	<path style="fill:#C16470;" d="M256,296l8-80h-48l8,80H256z"/>
	<path style="fill:#C16470;" d="M168,296l8-80h-48l8,80H168z"/>
</g>
<path d="M392,480h-16c-13.255,0-24-10.745-24-24v-24h-8v8c-0.026,22.08-17.92,39.974-40,40H80c-22.08-0.026-39.974-17.92-40-40V40
	C40.026,17.92,57.92,0.026,80,0h224c22.08,0.026,39.974,17.92,40,40v352h8V24c0-13.255,10.745-24,24-24h16c13.255,0,24,10.745,24,24
	v432C416,469.255,405.255,480,392,480z M336,416h24c4.418,0,8,3.582,8,8v32c0,4.418,3.582,8,8,8h16c4.418,0,8-3.582,8-8V24
	c0-4.418-3.582-8-8-8h-16c-4.418,0-8,3.582-8,8v376c0,4.418-3.582,8-8,8h-24c-4.418,0-8-3.582-8-8V40c0-13.255-10.745-24-24-24H80
	c-13.255,0-24,10.745-24,24v400c0,13.255,10.745,24,24,24h224c13.255,0,24-10.745,24-24v-16C328,419.582,331.582,416,336,416z
	 M296,456H88c-13.255,0-24-10.745-24-24V48c0-13.255,10.745-24,24-24h208c13.255,0,24,10.745,24,24v384
	C320,445.255,309.255,456,296,456z M88,40c-4.418,0-8,3.582-8,8v384c0,4.418,3.582,8,8,8h208c4.418,0,8-3.582,8-8V48
	c0-4.418-3.582-8-8-8H88z"/>
<path id="SVGCleanerId_0" d="M296,456H88c-13.255,0-24-10.745-24-24V48c0-13.255,10.745-24,24-24h208c13.255,0,24,10.745,24,24v384
	C320,445.255,309.255,456,296,456z M88,40c-4.418,0-8,3.582-8,8v384c0,4.418,3.582,8,8,8h208c4.418,0,8-3.582,8-8V48
	c0-4.418-3.582-8-8-8H88z"/>
<g>
	<path id="SVGCleanerId_0_1_" d="M296,456H88c-13.255,0-24-10.745-24-24V48c0-13.255,10.745-24,24-24h208c13.255,0,24,10.745,24,24
		v384C320,445.255,309.255,456,296,456z M88,40c-4.418,0-8,3.582-8,8v384c0,4.418,3.582,8,8,8h208c4.418,0,8-3.582,8-8V48
		c0-4.418-3.582-8-8-8H88z"/>
</g>
<path d="M408,288c-4.418,0-8-3.582-8-8v-80c0.003-4.418,3.588-7.997,8.006-7.994c0.857,0.001,1.709,0.139,2.522,0.41l24,8
	c3.266,1.088,5.469,4.142,5.472,7.584v64c-0.003,3.442-2.206,6.496-5.472,7.584l-24,8C409.714,287.86,408.86,288,408,288z
	 M416,211.104v57.792l8-2.664v-52.464L416,211.104z"/>
<path d="M312,320H72c-4.418,0-8-3.582-8-8s3.582-8,8-8h240c4.418,0,8,3.582,8,8S316.418,320,312,320z"/>
<path d="M312,184H72c-4.418,0-8-3.582-8-8s3.582-8,8-8h240c4.418,0,8,3.582,8,8S316.418,184,312,184z"/>
<path d="M128,72h-24c-4.418,0-8-3.582-8-8s3.582-8,8-8h24c4.418,0,8,3.582,8,8S132.418,72,128,72z"/>
<path d="M256,304h-32c-4.124,0.021-7.588-3.097-8-7.2l-8-80c-0.442-4.396,2.764-8.318,7.16-8.76c0.279-0.028,0.56-0.041,0.84-0.04
	h48c4.418,0,8,3.582,8,8c0,0.267-0.013,0.534-0.04,0.8l-8,80C263.549,300.888,260.109,304,256,304z M231.24,288h17.56l6.4-64h-30.32
	L231.24,288z"/>
<path d="M184,224h-64c-4.418,0-8-3.582-8-8s3.582-8,8-8h64c4.418,0,8,3.582,8,8S188.418,224,184,224z"/>
<path d="M168,304h-32c-4.124,0.021-7.588-3.097-8-7.2l-8-80c-0.442-4.396,2.764-8.318,7.16-8.76c0.279-0.028,0.56-0.041,0.84-0.04
	h48c4.418-0.022,8.018,3.542,8.04,7.96c0.001,0.281-0.012,0.561-0.04,0.84l-8,80C175.588,300.903,172.124,304.021,168,304z
	 M143.24,288h17.56l6.4-64h-30.32L143.24,288z"/>
<path d="M280,112c-4.418,0-8-3.582-8-8V80c0-4.418-3.582-8-8-8H160c-4.418,0-8-3.582-8-8s3.582-8,8-8h104c13.255,0,24,10.745,24,24
	v24C288,108.418,284.418,112,280,112z"/>
<g>
</g>
<g>
</g>
<g>
</g>
<g>
</g>
<g>
</g>
<g>
</g>
<g>
</g>
<g>
</g>
<g>
</g>
<g>
</g>
<g>
</g>
<g>
</g>
<g>
</g>
<g>
</g>
<g>
</g>
</svg>
