<svg id="Layer_1" enable-background="new 0 0 512 512" height="512" viewBox="0 0 512 512" width="512" xmlns="http://www.w3.org/2000/svg"><g><path d="m31.5 129h30v50h-30z" fill="#e8916f"/><path d="m79 257.773h-60v-69.773c0-16.569 13.431-30 30-30 16.569 0 30 13.431 30 30z" fill="#ffd54f"/><path d="m49 158c-5.466 0-10.586 1.469-15 4.023 8.964 5.188 15 14.874 15 25.977v69.773h30v-69.773c0-16.569-13.431-30-30-30z" fill="#ffc328"/><path d="m38.5 287.773h30v160.227h-30z" fill="#ebad88"/><path d="m19 257.773h60v87.077h-60z" fill="#ff80ab"/><path d="m49 257.773h30v87.077h-30z" fill="#f06a98"/><path d="m49 145c-16.569 0-30-13.431-30-30v-16c0-16.569 13.431-30 30-30 16.569 0 30 13.431 30 30v16c0 16.569-13.431 30-30 30z" fill="#ebad88"/><path d="m91.5 448h-53v-32h33c11.046 0 20 8.954 20 20z" fill="#be652b"/><path d="m134.646 106.156c-8.205-1.283-15.91 4.311-17.21 12.497l-7.987 50.29-52.71-11.468c-19.626-3.475-25.791 24.295-6.454 29.318 0 0 68.295 14.858 68.295 14.858 8.189 1.957 16.939-4.015 18.083-12.334 0 0 10.485-66.015 10.485-66.015 1.3-8.184-4.297-15.862-12.502-17.146z" fill="#ebad88"/><path d="m464.5 129h30v50h-30z" fill="#e8916f" transform="matrix(-1 0 0 -1 959 308)"/><path d="m442.5 274.541h60v-86.541c0-16.569-13.431-30-30-30-16.569 0-30 13.431-30 30z" fill="#f75632"/><path d="m472.5 158c-5.466 0-10.586 1.469-15 4.023 8.964 5.188 15 14.874 15 25.977v86.541h30v-86.541c0-16.569-13.431-30-30-30z" fill="#e33629"/><path d="m502.5 274.538v3.12c0 9.321-3.274 18.347-9.25 25.5-5.976 7.153-9.25 16.179-9.25 25.5v119.342h-30v-98.402c0-14.511-1.545-28.981-4.61-43.165l-6.89-31.894h60z" fill="#4362a0"/><path d="m472.5 145c16.569 0 30-13.431 30-30v-16c0-16.569-13.431-30-30-30-16.569 0-30 13.431-30 30v16c0 16.569 13.431 30 30 30z" fill="#ebad88"/><path d="m431 448h53v-32h-33c-11.046 0-20 8.954-20 20z" fill="#be652b"/><path d="m372.673 131.161c7.527-3.509 16.482-.273 20.002 7.231l21.629 46.099 47.458-25.644c17.891-8.784 31.519 16.184 14.336 26.376 0 0-61.49 33.225-61.49 33.225-7.324 4.153-17.388.843-20.796-6.832 0 0-28.392-60.513-28.392-60.513-3.52-7.503-.273-16.432 7.253-19.942z" fill="#ebad88"/><path d="m476.098 185.224c17.183-10.192 3.555-35.161-14.336-26.376l-31.895 17.234c3.99 7.726 9.279 18.261 13.542 26.805 15.992-8.641 32.689-17.664 32.689-17.663z" fill="#4362a0"/><path d="m54.037 103.256h33.238v-9.949c0-19.692-13.385-24.307-26.308-24.307h-10.716c-19.832 0-36.604 14.845-39.24 34.731l-3.372 25.433c-1.252 9.447 6.099 17.836 15.628 17.836h26.354v-39.276c0-2.467 1.977-4.468 4.416-4.468z" fill="#d67b42"/><path d="m504.5 82.256v34.795c0 6.047-4.902 10.949-10.949 10.949-9.417 0-17.051-7.634-17.051-17.051v-.744c0-5.636-4.569-10.205-10.205-10.205h-17.795c-9.941 0-18-8.059-18-18 0-9.941 8.059-18 18-18h37.744c10.082 0 18.256 8.174 18.256 18.256z" fill="#d67b42"/><path d="m486.244 64h-30c10.083 0 18.256 8.174 18.256 18.256v21.899c1.251 1.694 2 3.782 2 6.05v.744c0 9.417 7.634 17.051 17.051 17.051 6.047 0 10.949-4.902 10.949-10.949v-34.795c0-10.082-8.174-18.256-18.256-18.256z" fill="#be652b"/><g><path d="m347.553 233.469c-2.93-2.929-7.678-2.929-10.607 0s-2.929 7.678 0 10.606l5.658 5.658h-173.211l5.658-5.658c2.929-2.929 2.929-7.678 0-10.606-2.929-2.929-7.678-2.929-10.607 0l-19 19c-2.929 2.929-2.929 7.678 0 10.606l19 19c1.464 1.464 3.384 2.197 5.303 2.197s3.839-.732 5.303-2.197c2.929-2.929 2.929-7.678 0-10.606l-6.735-6.735h175.365l-6.736 6.735c-2.929 2.929-2.929 7.678 0 10.606 1.465 1.464 3.385 2.197 5.304 2.197s3.839-.732 5.304-2.197l19-19c2.929-2.929 2.929-7.678 0-10.606z"/><path d="m507.037 129.599c3.069-3.296 4.963-7.7 4.963-12.548v-34.795c0-14.202-11.555-25.756-25.757-25.756h-37.743c-14.061 0-25.5 11.439-25.5 25.5 0 9.105 4.801 17.106 12 21.619v11.381c0 15.151 9.037 28.223 22 34.133v3.763l-39.278 21.223-18.257-38.913c-5.267-11.226-18.708-16.091-29.961-10.843-.001 0-.001 0-.001 0-5.464 2.548-9.603 7.068-11.654 12.728-2.049 5.649-1.771 11.757.781 17.198l28.073 59.833c.086.184.175.361.265.532l-.011.005c2.479 5.583 7.369 9.93 13.418 11.925 2.37.782 4.812 1.168 7.227 1.168 3.733 0 7.4-.924 10.631-2.738l16.767-9.06v58.585c0 .227.014.451.034.673.002.027.001.054.004.081.027.275.071.544.128.809.001.007.002.014.003.021l6.89 31.887c2.947 13.666 4.441 27.658 4.441 41.589v59.274c-13.029 2.155-23 13.495-23 27.126v12c0 4.142 3.357 7.5 7.5 7.5h53c4.143 0 7.5-3.358 7.5-7.5v-119.339c0-3.761.65-7.464 1.929-10.998 1.288-3.543 3.165-6.805 5.577-9.694 7.09-8.488 10.994-19.251 10.994-30.308v-49.429c0-4.142-3.357-7.5-7.5-7.5s-7.5 3.358-7.5 7.5v38.809h-45v-59.19l29.664-16.029c.088-.047.175-.097.261-.147 6.896-4.091 10.402-10.01 11.309-16.08 2.374 3.573 3.767 7.84 3.767 12.406v7.82c0 4.142 3.357 7.5 7.5 7.5s7.5-3.358 7.5-7.5v-7.82c0-8.661-2.986-16.696-8-23.09v-26.779c2.026-2.575 3.729-5.437 5.036-8.532zm-30.537 310.901h-38v-4.5c0-6.893 5.607-12.5 12.5-12.5h25.5zm18.2-158.46c-.821 5.973-3.31 11.646-7.206 16.312-3.532 4.229-6.278 9.002-8.167 14.196-1.876 5.185-2.827 10.605-2.827 16.112v79.84h-15v-58.9c0-14.992-1.607-30.049-4.779-44.754l-4.928-22.806zm-13.639-130.539c2.041-.482 4.025-1.138 5.939-1.945v3.873c-1.903-.802-3.889-1.447-5.939-1.928zm-32.561-80.001h37.743c5.932 0 10.757 4.825 10.757 10.756v34.795c0 1.902-1.547 3.449-3.448 3.449-5.267 0-9.552-4.285-9.552-9.551v-.744c0-9.763-7.942-17.705-17.705-17.705h-17.795c-5.79 0-10.5-4.71-10.5-10.5s4.71-10.5 10.5-10.5zm1.5 43.5v-7.5h16.295c1.491 0 2.705 1.213 2.705 2.705v.744c0 10.428 6.538 19.352 15.727 22.904-3.572 2.317-7.794 3.647-12.227 3.647-12.406 0-22.5-10.093-22.5-22.5zm-38.958 96.851c-.045.024-.089.049-.134.074-1.657.939-3.786 1.091-5.834.416-2.037-.672-3.644-2.045-4.408-3.767-.021-.049-.044-.1-.067-.148-.174-.37-28.389-60.507-28.389-60.507-.849-1.808-.94-3.837-.261-5.713.685-1.887 2.066-3.395 3.893-4.247 3.777-1.761 8.28-.137 10.043 3.619l21.629 46.099c.876 1.868 2.483 3.292 4.442 3.938 1.96.646 4.097.457 5.913-.525l8.815-4.763c1.969 3.872 4.23 8.356 6.766 13.417zm61.345-33.147-25.733 13.905c-2.537-5.061-4.8-9.547-6.768-13.416l25.299-13.67c6.571-3.15 9.75 1.946 10.323 3.005.566 1.046 3.058 6.427-3.121 10.176z"/><path d="m146.489 175.257c.65-4.091-2.14-7.934-6.23-8.584s-7.934 2.14-8.584 6.23l-2.421 15.239c-.008.052-.016.104-.023.155-.256 1.867-1.419 3.631-3.188 4.842-1.781 1.218-3.866 1.663-5.721 1.22-.049-.012-.099-.023-.149-.034l-68.132-14.823c-6.978-1.887-6.076-7.749-5.823-8.911.256-1.176 1.891-6.956 9.085-5.751l52.552 11.433c2.012.437 4.123.027 5.826-1.137s2.852-2.978 3.175-5.016l7.987-50.29c.651-4.097 4.533-6.906 8.644-6.265 1.991.312 3.737 1.377 4.918 3 1.175 1.614 1.649 3.59 1.336 5.562l-3.018 18.996c-.65 4.091 2.14 7.934 6.23 8.584 4.088.647 7.934-2.14 8.584-6.23l3.018-18.997c.942-5.936-.486-11.881-4.021-16.74-3.542-4.868-8.773-8.062-14.73-8.994-12.267-1.917-23.831 6.485-25.776 18.731l-6.742 42.451-34.287-7.46v-5.825c10.491-6.685 17.5-18.428 17.5-31.644v-4.244h.775c4.142 0 7.5-3.358 7.5-7.5v-9.949c0-20.214-12.322-31.808-33.808-31.808h-10.717c-.244 0-.485.013-.728.017-.172-.007-.343-.017-.523-.017-3.46 0-6.907.482-10.246 1.434-.117.029-.238.062-.367.097s-.251.082-.377.123c-17.907 4.91-31.877 20.301-34.435 39.593l-3.372 25.433c-.88 6.645 1.148 13.348 5.565 18.389s10.795 7.933 17.498 7.933h.733v5.595c-7.681 6.899-12.5 16.898-12.5 27.905v111.667c0 4.142 3.358 7.5 7.5 7.5s7.5-3.358 7.5-7.5v-34.397h45v72.08h-45v-5.684c0-4.142-3.358-7.5-7.5-7.5s-7.5 3.358-7.5 7.5v13.184c0 4.142 3.358 7.5 7.5 7.5h12v95.65c0 4.142 3.358 7.5 7.5 7.5h53c4.142 0 7.5-3.358 7.5-7.5v-12c0-13.631-9.971-24.971-23-27.126v-56.524h3c4.142 0 7.5-3.358 7.5-7.5v-142.5l30.42 6.618c1.588.373 3.21.556 4.834.556 4.449 0 8.915-1.376 12.757-4.003 5.232-3.578 8.716-9.075 9.569-15.093zm-74.991-60.257c0 9.467-5.992 17.675-14.379 20.959v-25.202h14.379zm-54.449 21.682c-1.592-1.817-2.294-4.138-1.977-6.533l3.372-25.433c2.132-16.086 15.805-28.216 31.805-28.216h10.716c16.573 0 18.808 8.497 18.808 16.808v2.449h-25.738c-6.57 0-11.916 5.369-11.916 11.968v31.775h-18.854c-2.416 0-4.624-1.001-6.216-2.818zm43.949 271.818h-15v-56.15h15zm23 27.5v4.5h-38v-17h25.5c6.893 0 12.5 5.607 12.5 12.5zm-12.5-185.73h-45v-62.27c0-5.108 1.732-9.852 4.647-13.655.748 8.515 6.212 16.841 17.252 19.709.097.025.194.048.292.07l22.81 4.963v51.183z"/></g></g></svg>