<?xml version="1.0" encoding="iso-8859-1"?>
<!-- Generator: Adobe Illustrator 19.0.0, SVG Export Plug-In . SVG Version: 6.00 Build 0)  -->
<svg version="1.1" id="Layer_1" xmlns="http://www.w3.org/2000/svg" xmlns:xlink="http://www.w3.org/1999/xlink" x="0px" y="0px"
	 viewBox="0 0 511.999 511.999" style="enable-background:new 0 0 511.999 511.999;" xml:space="preserve">
<path style="fill:#FF8A3A;" d="M501.876,249.241H335.053c1.158,7.361,1.755,14.852,1.755,22.449
	c0,54.941-31.163,104.36-80.819,138.679v30.083l83.419,7.983c95.733-25.949,164.239-95.28,164.239-176.745
	C503.647,264.092,503.035,256.603,501.876,249.241z"/>
<path style="fill:#FFAC55;" d="M175.17,271.689c0-7.597,0.597-15.088,1.755-22.449H10.102c-1.158,7.362-1.771,14.851-1.771,22.449
	c0,103.647,110.88,187.669,247.658,187.669c29.272,0,57.353-3.86,83.42-10.925C243.675,422.485,175.17,353.155,175.17,271.689z"/>
<path d="M506.584,242.33l-78.195-59.873l45.677-126.991c1.559-4.336-0.691-9.114-5.026-10.673
	c-4.336-1.559-9.113,0.691-10.673,5.026l-46.911,130.423c0,0-81.41,62.334-81.426,62.348l-0.038,0.029
	c-0.019,0.014-0.033,0.032-0.052,0.047c-1.176,0.93-2.094,2.157-2.641,3.555c-0.529,1.358-0.704,2.876-0.477,4.319
	c1.097,6.974,1.654,14.09,1.654,21.153c0,25.334-6.936,49.829-20.615,72.806c-12.457,20.924-29.876,39.608-51.821,55.609
	c-11.608-8.448-22.107-17.766-31.228-27.815c-3.097-3.411-8.372-3.667-11.783-0.571s-3.667,8.372-0.571,11.783
	c23.549,25.946,54.287,46.778,90.11,61.316c0.179,0.072,0.359,0.142,0.538,0.215c1.492,0.602,2.978,1.211,4.487,1.792
	c-16.861,2.787-34.121,4.194-51.594,4.194C124.04,451.017,16.684,370.57,16.684,271.689c0-4.669,0.25-9.391,0.745-14.107h150.063
	c-0.435,4.693-0.654,9.412-0.654,14.107c0,29.276,8.207,57.435,24.396,83.694c2.417,3.921,7.556,5.142,11.479,2.724
	c3.922-2.417,5.142-7.557,2.724-11.479c-14.541-23.589-21.914-48.803-21.914-74.94c0-7.062,0.556-14.178,1.653-21.153
	c0.459-2.919-0.786-6.057-3.118-7.874c-0.018-0.014-0.032-0.031-0.051-0.046c0,0-0.038-0.029-0.056-0.042l-81.409-62.333
	L53.632,49.819c-1.558-4.334-6.337-6.586-10.673-5.026c-4.334,1.559-6.586,6.338-5.026,10.673L83.61,182.457l-78.569,60.16
	c-0.028,0.021-0.049,0.047-0.077,0.069c-1.634,1.288-2.768,3.199-3.092,5.257c-0.004,0.03-0.008,0.061-0.012,0.092
	c-0.002,0.019-0.004,0.037-0.008,0.055C0.625,255.936,0,263.875,0,271.689c0,52.801,26.934,102.29,75.842,139.351
	c48.218,36.539,112.199,56.661,180.158,56.661c29.346,0,58.147-3.774,85.602-11.215c77.785-21.085,137.782-69.89,160.492-130.555
	c1.615-4.314-0.573-9.122-4.888-10.737c-4.312-1.613-9.122,0.573-10.737,4.888c-20.621,55.081-75.498,99.706-147.034,119.695
	c-2.378-0.665-4.748-1.359-7.11-2.082c-22.217-6.841-43.033-16.256-61.609-27.744c47.468-36.569,74.445-86.378,74.445-138.262
	c0-4.696-0.219-9.414-0.654-14.107H494.57c0.496,4.716,0.745,9.439,0.745,14.107c0,5.594-0.357,11.284-1.063,16.912
	c-0.573,4.571,2.668,8.741,7.24,9.315c4.579,0.572,8.741-2.668,9.315-7.24c0.791-6.313,1.192-12.702,1.192-18.986
	c0-7.676-0.611-15.47-1.794-23.181C509.981,245.939,508.607,243.701,506.584,242.33z M93.523,195.88l58.795,45.019H34.729
	L93.523,195.88z M359.68,240.898l58.795-45.019l58.795,45.019L359.68,240.898L359.68,240.898z"/>
<g>
</g>
<g>
</g>
<g>
</g>
<g>
</g>
<g>
</g>
<g>
</g>
<g>
</g>
<g>
</g>
<g>
</g>
<g>
</g>
<g>
</g>
<g>
</g>
<g>
</g>
<g>
</g>
<g>
</g>
</svg>
