<svg height="479pt" viewBox="-8 0 479 479.96789" width="479pt" xmlns="http://www.w3.org/2000/svg"><path d="m262.582031 95.96875c-9.8125-.003906-19.003906-4.789062-24.628906-12.824219-5.628906-8.035156-6.980469-18.308593-3.628906-27.527343l10.160156-27.855469c4.316406-11.871094 15.59375-19.777344 28.222656-19.792969 9.8125-.003906 19.007813 4.78125 24.636719 12.820312 5.628906 8.035157 6.980469 18.3125 3.628906 27.53125l-10.089844 27.855469c-4.328124 11.898438-15.640624 19.808594-28.300781 19.792969zm0 0" fill="#fec9a3"/><path d="m272.484375 255.96875h-104l-31.527344 63.054688 54.871094 33.769531 32.65625-40.824219 54.296875 34.550781 35.367188-53.046875zm0 0" fill="#7a432a"/><path d="m8.484375 391.96875 16 80h16l8-56-13.785156-33.359375zm0 0" fill="#348fd9"/><path d="m120.484375 351.96875-85.785156 30.640625 13.785156 33.359375 112-24 31.34375-39.175781-54.871094-33.769531zm0 0" fill="#fec9a3"/><path d="m352.484375 327.96875-38.335937-34.496094-35.367188 53.046875 33.703125 21.449219 53.488281 77.253906 42.511719-21.253906zm0 0" fill="#fec9a3"/><path d="m448.484375 431.96875-8-16-32 8-42.511719 21.253906 18.511719 26.746094zm0 0" fill="#348fd9"/><path d="m363.980469 117.039062c-7.085938-12.988281-20.699219-21.070312-35.496094-21.070312h-154.953125c-13.707031 0-27.085938 4.1875-38.351562 12l-14.792969 10.238281 21.699219 38.976563 10.398437-5.214844h36.800781l-20.800781 104h104l36.398437-104h11.601563l11.296875 20.703125 40.472656-40.472656zm0 0" fill="#348fd9"/><path d="m456.484375 107.96875c.03125-13.273438-9.261719-24.742188-22.25-27.46875-12.988281-2.722656-26.109375 4.042969-31.414063 16.210938-5.308593 12.164062-1.34375 26.382812 9.488282 34.050781l-11.824219 53.207031-28.230469-51.769531-40.472656 40.472656 25.117188 46.0625c7.144531 13.089844 20.859374 21.230469 35.769531 21.234375 18.695312 0 34.996093-12.726562 39.527343-30.863281l24.289063-97.136719h-.398437c.226562-1.324219.359374-2.660156.398437-4zm0 0" fill="#fec9a3"/><path d="m108.484375 223.96875c-.929687.042969-1.855469.136719-2.777344.277344l-9.222656-32.277344 45.601563-34.785156-21.664063-38.992188-52.113281 36.074219c-11.714844 8.109375-16.65625 22.988281-12.121094 36.496094 8.296875 24.621093 20.296875 60.40625 20.296875 60.542969 1.484375 7.769531 5.613281 14.785156 11.679687 19.863281l.320313.800781.199219-.199219c8.960937 8.957031 22.824218 10.785157 33.796875 4.445313 10.976562-6.335938 16.328125-19.253906 13.046875-31.492188-3.277344-12.242187-14.371094-20.753906-27.042969-20.753906zm0 0" fill="#fec9a3"/><path d="m264.484375 39.96875h38.214844c.273437-4.074219-.300781-8.160156-1.679688-12l-.039062-.121094c-.660157-1.804687-1.488281-3.546875-2.472657-5.199218l-.230468-.359376c-.984375-1.625-2.121094-3.152343-3.394532-4.5625l-.101562-.101562c-1.277344-1.382812-2.683594-2.640625-4.191406-3.761719-.105469-.078125-.195313-.167969-.296875-.238281-1.484375-1.058594-3.0625-1.976562-4.710938-2.746094-.289062-.136718-.570312-.269531-.867187-.398437-1.667969-.730469-3.398438-1.304688-5.175782-1.710938-.292968-.074219-.597656-.113281-.902343-.175781-14.585938-3.03125-29.164063 5.167969-34.160157 19.199219l-10.152343 27.824219c-.726563 2.03125-1.234375 4.132812-1.511719 6.269531l6.320312-1.597657c11.007813-2.75 20.269532-10.171874 25.351563-20.320312zm0 0" fill="#7a432a"/><path d="m363.980469 117.039062c-7.085938-12.988281-20.699219-21.070312-35.496094-21.070312h-1.703125c-36.855469 59.914062-90.316406 107.839844-153.890625 137.949219l-4.40625 22.050781h104l36.398437-104h11.601563l11.296875 20.703125 40.472656-40.472656zm0 0" fill="#3086cd"/><path d="m248.484375 127.96875c-13.253906 0-24-10.746094-24-24v-8h48v8c0 13.253906-10.746094 24-24 24zm0 0" fill="#fec9a3"/><path d="m256.484375 151.96875h32v16h-32zm0 0" fill="#e0e0de"/><path d="m280.484375 71.96875h-40l-8 24h40zm0 0" fill="#fec9a3"/><path d="m450.882812 79.808594c-9.699218-7.75-22.703124-9.953125-34.414062-5.832032-11.710938 4.117188-20.472656 13.980469-23.183594 26.09375-2.78125 12.234376 1.054688 25.03125 10.109375 33.714844l-6.109375 27.640625-18.023437-33.050781-8.28125-15.199219c-8.484375-15.546875-24.785157-25.214843-42.496094-25.207031h-34.992187c2.035156-2.785156 3.671874-5.832031 4.871093-9.066406l10.121094-27.847656c1.191406-3.332032 1.914063-6.816407 2.144531-10.351563 0-.070313.046875-.128906.046875-.207031 0-.082032 0-.34375 0-.519532.140625-2.421874.046875-4.847656-.28125-7.25-.355469-2.476562-.957031-4.914062-1.796875-7.269531-.042968-.105469-.066406-.21875-.105468-.320312-.835938-2.28125-1.882813-4.472657-3.136719-6.554688-.136719-.230469-.269531-.445312-.414063-.671875-.34375-.558594-.648437-1.140625-1.035156-1.6875-1.011719-1.429687-2.128906-2.789062-3.335938-4.0625-.046874-.054687-.070312-.121094-.117187-.167968-.050781-.046876-.257813-.199219-.367187-.320313-1.519532-1.570313-3.167969-3.007813-4.929688-4.296875-.296875-.222656-.574219-.464844-.871094-.679688-1.71875-1.152343-3.527344-2.167968-5.410156-3.03125-.621094-.296874-1.246094-.585937-1.894531-.847656-1.894531-.769531-3.847657-1.382812-5.839844-1.839844-.519531-.113281-1.046875-.191406-1.601563-.289062-18.277343-3.546875-36.398437 6.820312-42.605468 24.375l-10.128906 27.816406c-.898438 2.507813-1.523438 5.105469-1.871094 7.746094l-.050782.183594v.085937c-1.261718 9.449219 1.0625 19.027344 6.511719 26.847657.058594.082031.128907.144531.1875.226562h-58.050781c-15.335938-.027344-30.308594 4.652344-42.902344 13.40625l-14.785156 10.234375-52.105469 36.078125c-14.582031 10.171875-20.742187 28.722656-15.140625 45.601562 14.167969 42.09375 18.816406 55.949219 19.949219 59.40625 1.589844 8.828126 6.097656 16.871094 12.800781 22.832032.699219 1.339844 1.769532 2.453125 3.082032 3.199218 6.628906 5.957032 15.230468 9.25 24.140624 9.242188 2.417969 0 4.832032-.242188 7.203126-.722656 17.507812-3.59375 29.730468-19.492188 28.699218-37.335938-1.027344-17.847656-14.996094-32.234375-32.804687-33.789062l-6.023438-21.097656 40.632813-31.007813 8.0625-4h25.183594l-18.671876 93.328125-31.054687 62.113281-15.03125 30.054688-82.761719 29.566406-26.207031 9.363281c-3.75 1.335938-5.945313 5.226563-5.152344 9.125l16 80c.761719 3.726563 4.039063 6.402344 7.839844 6.402344h16c3.980469 0 7.355469-2.925781 7.917969-6.863281l7.203125-50.488281 106.542969-22.824219c1.804687-.386719 3.421874-1.382813 4.574218-2.824219l31.335938-39.199219 28.175781-35.203125 48.242187 30.707032 32.335938 20.566406 52.558594 75.9375 18.519531 26.734375c2.433594 3.511719 7.195313 4.496093 10.816406 2.230469l64-40c3.519531-2.183594 4.789063-6.699219 2.921875-10.398438l-8-16c-1.679687-3.359375-5.464844-5.097656-9.105468-4.183594l-26.167969 6.542969-52.960938-90.734375c-.425781-.71875-.964843-1.363281-1.597656-1.914062l-38.335937-34.503907-37.664063-33.984375 32.757813-93.597656h1.175781l9.027343 16.527344 25.117188 46.0625c9.613281 17.636718 29.058594 27.566406 48.976562 25.023437 19.921876-2.546875 36.242188-17.050781 41.113282-36.535156l24.28125-97.144531c.246094-1.027344.269531-2.097656.070312-3.132813.105469-.929687.160156-1.867187.167969-2.800781.015625-10.972656-4.996094-21.351562-13.601563-28.160156zm-186.398437 24.160156c0 8.835938-7.164063 16-16 16s-16-7.164062-16-16zm8.222656-88c1.664063.011719 3.320313.207031 4.9375.582031.558594.128907 1.078125.34375 1.601563.511719.996094.292969 1.972656.660156 2.917968 1.097656.625.296875 1.214844.65625 1.808594 1.007813.785156.46875 1.542969.988281 2.261719 1.550781.585937.464844 1.144531.945312 1.683594 1.464844.5625.585937 1.097656 1.199218 1.597656 1.839844.652344.773437 1.253906 1.589843 1.800781 2.441406.367188.597656.671875 1.222656.984375 1.839844.507813.988281.9375 2.015624 1.289063 3.070312.0625.191406.09375.394531.160156.59375h-29.265625c-3.046875-.015625-5.839844 1.699219-7.199219 4.421875-2.707031 5.429687-6.953125 9.9375-12.210937 12.960937l6.859375-18.855468c3.1875-8.722656 11.488281-14.527344 20.773437-14.527344zm-28.222656 62.589844c-2.152344-3.078125-3.472656-6.660156-3.839844-10.398438l.40625-.097656c11.574219-2.882812 21.609375-10.070312 28.074219-20.09375h23.464844l-9.265625 25.472656c-3.191407 8.707032-11.46875 14.507813-20.742188 14.527344-7.21875.046875-13.992187-3.472656-18.097656-9.410156zm-152.855469 107.050781c-2.613281 1.996094-3.734375 5.390625-2.832031 8.550781l9.214844 32.289063c1.082031 3.710937 4.648437 6.128906 8.496093 5.757812l1.976563-.238281c9.015625.003906 16.917969 6.039062 19.289063 14.738281 2.371093 8.699219-1.371094 17.910157-9.136719 22.488281-7.769531 4.582032-17.640625 3.394532-24.105469-2.890624-.171875-.234376-.359375-.453126-.558594-.664063-3.320312-3.511719-9.496094-10.058594-9.496094-14.335937 0-1.480469 0-1.480469-20.746093-63.105469-3.359375-10.128907.34375-21.257813 9.097656-27.359375l44.839844-31.046875 14.015625 25.230469zm-60.585937 278.359375-13.359375-66.792969 12.527344-4.472656 10.042968 24.296875-6.707031 46.96875zm124.976562-79.199219-102.6875 21.980469-8-19.429688 77.871094-27.824218c1.945313-.691406 3.546875-2.105469 4.472656-3.953125l12.558594-25.117188 10.648437 6.550781 29.074219 17.886719zm62.214844-77.777343-28.238281 35.3125-11.574219-7.136719-31.042969-19.097657 26.050782-52.101562h96l34.253906 30.816406-25.71875 38.542969-1.496094 2.238281-47.6875-30.351562c-3.449219-2.191406-7.992188-1.4375-10.546875 1.753906zm219.851563 122.046874-51.363282 32.097657-8.917968-12.878907 33.488281-16.746093 24.910156-6.222657zm-40.800782-8.40625-28.671875 14.335938-49.539062-71.554688c-.605469-.875-1.378907-1.621093-2.277344-2.199218l-26.808594-17.054688 15.601563-23.390625 10.09375-15.203125 30.527344 27.480469zm-88.402344-276.664062c-3.398437 0-6.429687 2.148438-7.550781 5.359375l-34.519531 98.640625h-88.566406l18.886718-94.402344c.480469-2.355468-.125-4.800781-1.644531-6.660156-1.523437-1.863281-3.800781-2.941406-6.203125-2.9375h-36.800781c-1.242187-.003906-2.464844.285156-3.578125.839844l-3.582031 1.792968-14.398438-25.960937 8.796875-6.113281c9.925782-6.894532 21.726563-10.578125 33.808594-10.558594h42.953125c0 17.671875 14.328125 32 32 32s32-14.328125 32-32h48c11.867187-.003906 22.785156 6.476562 28.472656 16.894531l5.398438 9.921875-2.320313 2.320313-26.398437 26.351562-6.167969-11.320312c-1.394531-2.558594-4.070312-4.15625-6.984375-4.167969zm139.273438-33.128906c-.0625.53125-.0625 1.070312 0 1.601562l-23.71875 94.726563c-3.273438 13.085937-14.234375 22.824219-27.613281 24.535156-13.382813 1.710937-26.441407-4.957031-32.898438-16.800781l-22.257812-40.796875 2.320312-2.328125 26.359375-26.34375 23.113282 42.398437c1.597656 2.925781 4.839843 4.554688 8.140624 4.089844 3.300782-.46875 5.96875-2.929687 6.691407-6.1875l11.824219-53.214844c.691406-3.144531-.570313-6.398437-3.199219-8.253906-7.730469-5.480469-10.554688-15.632813-6.765625-24.316406 3.789062-8.683594 13.152344-13.515625 22.425781-11.578125 9.273437 1.941406 15.914063 10.121094 15.90625 19.597656-.042969.964844-.152344 1.921875-.328125 2.871094zm0 0"/><path d="m256.484375 151.96875h32v16h-32zm0 0"/></svg>