<?xml version="1.0"?>
<svg xmlns="http://www.w3.org/2000/svg" id="Fill_out_line" data-name="Fill out line" viewBox="0 0 512 512" width="512" height="512"><path d="M496,120v72l-53.67993-11.92993a60.80606,60.80606,0,0,0-35.75,2.8999,60.72635,60.72635,0,0,1-45.14014,0L324,168l-54.25-21.69995,39.91992-27.92017L355.57007,86.29,376,72l28.27,4.71A49.924,49.924,0,0,1,436,96a49.94609,49.94609,0,0,0,31.73,19.29Z" style="fill:#f4ceaf"/><path d="M417.33008,160H390.40991a42.51791,42.51791,0,0,1-30.26-12.53,26.97477,26.97477,0,0,0-10.47-6.48l-24.35986-8.11987a26.20443,26.20443,0,0,1-17.01-31.1001A25.31532,25.31532,0,0,1,337.47,82.98L406.6001,95.60986Z" style="fill:#f4ceaf"/><path d="M376,320h88a24,24,0,0,1,24,24v0a24,24,0,0,1-24,24H408v0a32,32,0,0,1-32,32H360Z" style="fill:#ad7d4d"/><path d="M392,328v8a96,96,0,0,1-96,96H120a96,96,0,0,1-96-96v-8Z" style="fill:#e44b4d"/><path d="M392,328c0,17.04-15.14014,32.71-40.43994,45.04C317.84009,389.48,266.06006,400,208,400S98.15991,389.48,64.43994,373.04C39.14014,360.71,24,345.04,24,328c0-39.75977,82.37988-72,184-72S392,288.24023,392,328Z" style="fill:#8acce7"/><path d="M352,368a29.316,29.316,0,0,1-.43994,5.04A213.508,213.508,0,0,1,318.3999,385.6001C287.6499,394.64014,249.42993,400,208,400c-45.41992,0-87-6.43994-119.09009-17.10986a200.00978,200.00978,0,0,1-24.47-9.8501A29.316,29.316,0,0,1,64,368c0-35.3501,64.47-64,144-64S352,332.6499,352,368Z" style="fill:#c4d4e0"/><path d="M318.3999,385.6001C287.6499,394.64014,249.42993,400,208,400c-45.41992,0-87-6.43994-119.09009-17.10986a147.2235,147.2235,0,0,1,81-50.41016l13.7-3.16016a147.38536,147.38536,0,0,1,79.71021,3.79l14.32007,4.77a35.246,35.246,0,0,1,23.0498,24.89991,35.26779,35.26779,0,0,0,14.65015,20.78027Z" style="fill:#eedc9a"/><circle cx="176" cy="368" r="16" style="fill:#e44b4d"/><circle cx="256" cy="344" r="16" style="fill:#e44b4d"/><rect x="128" y="456" width="176" height="32" style="fill:#c4d4e0"/><path d="M232,448c0-8.83656-16-40-16-40s-16,31.16344-16,40a16,16,0,0,0,32,0Z" style="fill:#e88604"/><path d="M176,448a15.99663,15.99663,0,0,1-16.76532,15.98217C150.62613,463.58162,144,456.169,144,447.5511V416l.80429.80429a113.83133,113.83133,0,0,0,23.27279,17.37941A15.989,15.989,0,0,1,176,448Z" style="fill:#e88604"/><path d="M96,448h0a24,24,0,0,0-24,24v16H40V472a56,56,0,0,1,56-56h0a16,16,0,0,1,16,16v0A16,16,0,0,1,96,448Z" style="fill:#2f4054"/><path d="M336,448h0a24,24,0,0,1,24,24v16h32V472a56,56,0,0,0-56-56h0a16,16,0,0,0-16,16v0A16,16,0,0,0,336,448Z" style="fill:#2f4054"/><circle cx="164" cy="452" r="12" style="fill:#eebe33"/><path d="M256,448a15.99663,15.99663,0,0,0,16.76532,15.98217C281.37387,463.58162,288,456.169,288,447.5511V416l-.80429.80429a113.83133,113.83133,0,0,1-23.27279,17.37941A15.989,15.989,0,0,0,256,448Z" style="fill:#e88604"/><circle cx="268" cy="452" r="12" style="fill:#eebe33"/><circle cx="216" cy="452" r="12" style="fill:#eebe33"/><path d="M392,100.68994A27.31489,27.31489,0,0,1,364.68994,128a88.57277,88.57277,0,0,0-62.62988,25.93994L288,168l-40-40,14.06006-14.06006A88.58207,88.58207,0,0,0,288,51.31006,27.31489,27.31489,0,0,1,315.31006,24,76.64534,76.64534,0,0,1,392,100.68994Z" style="fill:#8acce7"/><path d="M392,100.68994A27.31489,27.31489,0,0,1,364.68994,128a88.63509,88.63509,0,0,0-62.62988,25.93994L288,168l-8-8V120l16.43994-16.43994A107.75435,107.75435,0,0,1,372.62988,72H384l2.55.26A76.9588,76.9588,0,0,1,392,100.68994Z" style="fill:#ad7d4d"/><path d="M224,145.94109v0a33.9411,33.9411,0,0,0,9.94112,24l12.11776,12.11776a33.9411,33.9411,0,0,0,24,9.94112h.00005A33.94109,33.94109,0,0,0,304,158.05891v0a33.9411,33.9411,0,0,0-9.94112-24l-12.11776-12.11776a33.9411,33.9411,0,0,0-24-9.94112h-.00005A33.94109,33.94109,0,0,0,224,145.94109Z" style="fill:#c4d4e0"/><path d="M408,104,336.03423,90.84476a17.35871,17.35871,0,0,0-19.96183,12.86565v0a18.06422,18.06422,0,0,0,11.78033,21.57381l24.35452,8.11817a34.79634,34.79634,0,0,1,13.60114,8.406l0,0A34.79631,34.79631,0,0,0,390.4131,152H416Z" style="fill:#f4ceaf"/><path d="M464,312H396.41113c-7.479-16.377-26.49756-31.05615-55.38867-42.36133C305.36328,255.68457,258.12109,248,208,248s-97.36328,7.68457-133.02246,21.63867C36.94531,284.52051,16,305.24707,16,328v8a104.008,104.008,0,0,0,42.709,84.03564A63.94634,63.94634,0,0,0,32,472v8H16v16H416V480H400v-8a64.06791,64.06791,0,0,0-35.82739-57.44824Q367.7904,411.42138,371.0791,408H376a40.07012,40.07012,0,0,0,39.19629-32H464a32,32,0,0,0,0-64ZM80.80762,284.53809C114.6543,271.294,159.8252,264,208,264s93.3457,7.29395,127.19238,20.53809C366.21,296.67578,384,312.5166,384,328s-17.79,31.32422-48.80762,43.46191C301.3457,384.70605,256.1748,392,208,392c-8.82837,0-17.5542-.24756-26.12964-.729a24.00581,24.00581,0,1,0-15.06445-1.10547c-32.37427-2.9336-62.02808-9.32422-85.99829-18.70362C49.79,359.32422,32,343.4834,32,328S49.79,296.67578,80.80762,284.53809Zm187.1582,156.54882c4.42285-2.58984,8.40332-5.1582,12.03418-7.77343v14.2373a8.32449,8.32449,0,0,1-7.60645,8.44043,8.00347,8.00347,0,0,1-4.42773-14.9043ZM248,448h-8a30.85822,30.85822,0,0,0-1.48438-8h10.876A23.87885,23.87885,0,0,0,248,448Zm-14.13086,16h20.25171c.4187.46875.85083.92725,1.30786,1.36328a23.78367,23.78367,0,0,0,16.55078,6.6377q.57716,0,1.15821-.02735A23.68539,23.68539,0,0,0,289.77881,464H296v16H136V464h6.22119a23.68539,23.68539,0,0,0,16.64111,7.97363c.3877.01856.77247.02735,1.15723.02735a23.786,23.786,0,0,0,16.55176-6.6377c.457-.436.88916-.89453,1.30786-1.36328h20.25171a23.95664,23.95664,0,0,0,35.73828,0ZM296,447.55078V440a104.91559,104.91559,0,0,0,16.936-1.37988A24.03786,24.03786,0,0,0,336,456a16.01833,16.01833,0,0,1,16,16v8H312V456a8.00039,8.00039,0,0,0-8-8h-8.01074C295.99194,447.8501,296,447.70117,296,447.55078Zm-177.36646-7.57959c.45679.00586.90821.02881,1.36646.02881h16v7.55078c0,.15039.00806.29932.01074.44922H128a8.00039,8.00039,0,0,0-8,8v24H80v-8a16.01833,16.01833,0,0,1,16-16A24.0381,24.0381,0,0,0,118.63354,439.97119ZM192,448h-8a23.87885,23.87885,0,0,0-1.3916-8h10.876A30.85822,30.85822,0,0,0,192,448Zm-24,0a7.99687,7.99687,0,0,1-8.39355,7.99121A8.32449,8.32449,0,0,1,152,447.55078v-14.2373c3.63086,2.61523,7.61133,5.18359,12.03418,7.77343A7.93775,7.93775,0,0,1,168,448Zm48,8a8.00772,8.00772,0,0,1-8-7.99316c.05273-2.8545,3.53809-11.7959,8.001-21.61719,4.46093,9.81738,7.94531,18.75586,7.999,21.61523A8.00939,8.00939,0,0,1,216,456Zm-48-88a8,8,0,1,1,8,8A8.00917,8.00917,0,0,1,168,368ZM37.02393,365.31885c9.59008,7.82373,22.32568,14.92724,37.95361,21.04248,35.43017,13.86426,82.29639,21.53613,132.05859,21.63379-2.05005,4.10644-4.8667,9.93261-7.50952,16.00488H166.78052a95.78337,95.78337,0,0,1-16.31861-12.85254l-.80468-.80469A8.00066,8.00066,0,0,0,136,416v8H120c-.46582,0-.92285-.022-1.38623-.0293A24.03852,24.03852,0,0,0,96,408a63.70093,63.70093,0,0,0-21.08984,3.58691A88.088,88.088,0,0,1,37.02393,365.31885ZM48,472a48.05375,48.05375,0,0,1,48-48,8,8,0,0,1,0,16,32.03667,32.03667,0,0,0-32,32v8H48Zm336,0v8H368v-8a32.03667,32.03667,0,0,0-32-32,8,8,0,0,1,0-16A48.05375,48.05375,0,0,1,384,472Zm-48-64a24.02814,24.02814,0,0,0-21.86279,14.11914A88.68872,88.68872,0,0,1,296,424v-8a8.00066,8.00066,0,0,0-13.65723-5.65723l-.80468.80469A95.78337,95.78337,0,0,1,265.21948,424H232.47339c-2.70752-6.22168-5.59424-12.17627-7.65552-16.2959,43.79981-1.52051,84.56348-8.96094,116.20459-21.34277,15.65527-6.126,28.40747-13.24365,38.00317-21.084a87.67954,87.67954,0,0,1-33.45654,43.44043A64.22837,64.22837,0,0,0,336,408Zm128-48H408a8.00039,8.00039,0,0,0-8,8,24.03342,24.03342,0,0,1-15.27051,22.34912A103.72024,103.72024,0,0,0,400,336v-8h64a16,16,0,0,1,0,32Z"/><circle cx="464" cy="344" r="8"/><path d="M208,312c62.03125,0,117.77246,18.50879,132.54,44.00879l13.8457-8.01758c-8.89941-15.36719-27.86621-28.47168-54.84961-37.89551C273.13184,300.874,241.47852,296,208,296s-65.13184,4.874-91.53613,14.0957c-26.9834,9.42383-45.9502,22.52832-54.84961,37.89551L75.46,356.00879C90.22754,330.50879,145.96875,312,208,312Z"/><path d="M298.23145,341.93555A43.27932,43.27932,0,0,0,280.16992,330.29l-6.06982-2.02344a23.94349,23.94349,0,0,0-24.92871-7.27148,156.17773,156.17773,0,0,0-67.35889.53027l-13.70117,3.16016a155.57094,155.57094,0,0,0-70.67969,37.44726l10.87695,11.73438a139.54763,139.54763,0,0,1,63.39942-33.5918l13.70117-3.16016a140.175,140.175,0,0,1,48.49316-2.47753A23.99909,23.99909,0,1,0,279.741,347.5083a27.20275,27.20275,0,0,1,13.18969,17.21924,44.03277,44.03277,0,0,0,2.14063,6.38672l14.73828-6.22852a27.92528,27.92528,0,0,1-1.35742-4.042A43.47506,43.47506,0,0,0,298.23145,341.93555ZM256,352a8,8,0,1,1,8-8A8.00917,8.00917,0,0,1,256,352Z"/><path d="M240.40137,187.71582a41.93651,41.93651,0,0,0,69.5476-16.72021l48.509,19.4038a68.48267,68.48267,0,0,0,51.083,0,52.58189,52.58189,0,0,1,31.04882-2.51757l45.67481,10.15039,3.4707-15.61914-45.6748-10.15039a68.4914,68.4914,0,0,0-40.46192,3.28125,52.53929,52.53929,0,0,1-39.19824,0l-51.574-20.6294a80.71242,80.71242,0,0,1,30.5227-16.03174l6.32861,2.10938a26.91842,26.91842,0,0,1,10.47364,6.47363A42.51576,42.51576,0,0,0,390.41309,160H416V144H390.41309a26.61772,26.61772,0,0,1-18.94727-7.84863A43.02375,43.02375,0,0,0,354.7373,125.8125l-24.35546-8.11816a10.01392,10.01392,0,0,1-6.54883-12.04395,9.3792,9.3792,0,0,1,10.76269-6.93652l71.96582,13.15527,2.877-15.73828-9.69971-1.77295a84.46578,84.46578,0,0,0-1.42871-10.52881l4.647.77442a41.73561,41.73561,0,0,1,26.64258,16.19628,57.67292,57.67292,0,0,0,36.8125,22.37989l20.27246,3.3789,2.63086-15.7832L469.043,107.39648A41.73561,41.73561,0,0,1,442.40039,91.2002a57.67292,57.67292,0,0,0-36.8125-22.37989l-12.73144-2.12182A84.79524,84.79524,0,0,0,315.31348,16,35.31243,35.31243,0,0,0,280,51.31348a80.18484,80.18484,0,0,1-19.6748,52.75879c-.79126-.044-1.58521-.07227-2.38379-.07227a41.94165,41.94165,0,0,0-29.65723,71.59863Zm80.126-57.01318a96.76606,96.76606,0,0,0-13.165,8.16235,42.03353,42.03353,0,0,0-7.64648-10.46362L291.31445,120l10.78125-10.78125q2.78613-2.78613,5.78443-5.32764A26.27848,26.27848,0,0,0,320.52734,130.70264ZM296,51.31348A19.315,19.315,0,0,1,315.31348,32,68.778,68.778,0,0,1,383.3501,91.36182l-39.239-7.17286a99.12,99.12,0,0,1,16.82642-3.50048l-1.875-15.89063A116.24778,116.24778,0,0,0,290.78125,97.9043l-11.76514,11.76513q-.93128-.54309-1.88769-1.03491A96.06887,96.06887,0,0,0,296,51.31348ZM257.94141,120a25.76826,25.76826,0,0,1,18.34277,7.59863l12.11719,12.11719a25.9406,25.9406,0,1,1-36.68555,36.68555l-12.11719-12.11719A25.9406,25.9406,0,0,1,257.94141,120Z"/><circle cx="248" cy="152" r="8"/><circle cx="264" cy="136" r="8"/><circle cx="264" cy="168" r="8"/><circle cx="280" cy="152" r="8"/><circle cx="208" cy="192" r="8"/><circle cx="224" cy="216" r="8"/><circle cx="248" cy="232" r="8"/><circle cx="200" cy="232" r="8"/><circle cx="216" cy="280" r="8"/><circle cx="248" cy="280" r="8"/><circle cx="176" cy="216" r="8"/></svg>
