<svg id="Layer_1_1_" enable-background="new 0 0 64 64" height="512" viewBox="0 0 64 64" width="512" xmlns="http://www.w3.org/2000/svg"><path d="m21.716 43.818-17.084 7.408 2.387 5.505 17.435-7.561z" fill="#904c2a"/><path d="m7.019 55-1.755-4.048-.632.274 2.387 5.505 17.435-7.561-.724-1.416z" fill="#733d21"/><path d="m28.847 44.683c-4.069 4.156-11.276 11.518-11.276 11.518l4.288 4.197 15.141-15.398z" fill="#904c2a"/><path d="m28.847 44.683c-.035.036-.074.076-.11.112l5.263.205-13.67 13.903 1.529 1.496 15.141-15.399z" fill="#733d21"/><path d="m41.26 45.233c-.323-.171-.671-.245-1.011-.231l-.972.38c-.298.181-.545.352-.72.683l-.936 1.768c-.517.976-.144 2.187.832 2.703l17.676 9.358 2.807-5.303z" fill="#904c2a"/><path d="m39.517 48.642c-.976-.517-1.349-1.727-.832-2.703l.093-.176c-.082.086-.158.181-.222.302l-.936 1.768c-.517.976-.144 2.187.832 2.703l17.676 9.358 1.016-1.919z" fill="#733d21"/><path d="m56.232 55.422-.936 1.768c-.517.976-.144 2.187.832 2.703.976.517 2.187.144 2.703-.832l.936-1.768c.517-.976.144-2.187-.832-2.703s-2.186-.144-2.703.832z" fill="#b86136"/><path d="m48.931 24c-.999-3.193-2.677-6.162-4.952-8.69l-.221-.246c-1.724-1.915-2.383-4.563-1.758-7.064l-3 5s-2 3-3 7c-.767 3.068-6-7-6-7-1-3-5.5-4-5.5-4 2.166 5.571 1.201 11.873-2.532 16.541l-.093.117c-1.214 1.516-1.875 3.4-1.875 5.342 0 8.284 6.716 15 15 15 8.284 0 15-6.716 15-15 0-1.008-.065-2.01-.193-3" fill="#f98600"/><path d="m34.081 5.94-1.47-2.94-.788 3.941c-.14.701-.4 1.372-.767 1.984l-.167.278c-1.364 2.273-1.141 5.16.556 7.197l2.166 2.6-.527-2.637c-.304-1.52-.031-3.099.767-4.429 1.096-1.827 1.183-4.088.23-5.994z" fill="#f99a2a"/><path d="m40.149 38.755c3.473-1.042 5.851-4.238 5.851-7.864v-.891l-1.398 1.048c-1.355 1.016-3.3.557-4.057-.958-.347-.694-.38-1.502-.092-2.222l1.585-3.962c1.131-2.828.043-6.058-2.569-7.625l-.469-.281c1.194 2.389.726 5.274-1.162 7.162l-4.384 4.384c-2.506 2.506-2.64 6.526-.306 9.194 1.737 1.986 4.474 2.773 7.001 2.015z" fill="#f35142"/><path d="m16.983 25.112c1.317-1.676 1.686-3.908.979-5.918l-1.09-3.101-1.276 3.812c-.227.677-.568 1.311-1.01 1.873l-.201.255c-1.638 2.084-1.778 4.977-.349 7.21l1.823 2.85-.193-2.682c-.11-1.548.359-3.08 1.317-4.299z" fill="#f99a2a"/><path d="m4.388 55.691c.439 1.013 1.617 1.479 2.631 1.039 1.013-.439 1.479-1.617 1.039-2.631l-.796-1.835c-.439-1.013-1.617-1.479-2.631-1.039-1.013.439-1.479 1.617-1.039 2.631z" fill="#b86136"/><path d="m17.601 59.03 1.429 1.399c.789.773 2.056.759 2.828-.03.773-.789.759-2.056-.03-2.828l-1.429-1.399c-.789-.773-2.056-.759-2.828.03-.773.789-.759 2.055.03 2.828z" fill="#b86136"/><path d="m35 44c-7.917 0-14.386-6.138-14.945-13.914-.033.303-.055.607-.055.914 0 8.284 6.716 15 15 15s15-6.716 15-15c0-.409-.018-.816-.039-1.222-.407 7.92-6.939 14.222-14.961 14.222z" fill="#cc6e00"/><path d="m32.747 26.839c-2.869 2.868-3.023 7.506-.353 10.56 1.49 1.702 3.632 2.639 5.828 2.639.739 0 1.484-.106 2.213-.325 3.927-1.177 6.565-4.723 6.565-8.822v-.891c0-.379-.214-.725-.553-.895-.34-.17-.745-.132-1.047.095l-1.397 1.048c-.409.306-.924.414-1.424.297-.496-.117-.912-.446-1.14-.902-.219-.438-.24-.949-.058-1.404l1.584-3.961c1.321-3.301.066-7.024-2.982-8.854l-.469-.281c-.38-.229-.867-.179-1.194.124-.326.302-.413.783-.215 1.181 1.004 2.007.612 4.421-.975 6.008zm7.91-8.058c.89 1.376 1.1 3.135.451 4.754l-1.584 3.961c-.394.984-.348 2.093.126 3.041.494.988 1.395 1.7 2.47 1.954.958.228 1.957.064 2.789-.444-.43 2.705-2.351 4.941-5.048 5.75-2.147.646-4.486-.029-5.961-1.716-1.98-2.263-1.866-5.702.261-7.828l4.384-4.384c1.384-1.383 2.111-3.222 2.112-5.088z"/><path d="m49.885 23.702c-1.056-3.379-2.793-6.427-5.162-9.061l-.222-.246c-1.504-1.671-2.076-3.972-1.531-6.153.12-.481-.129-.977-.587-1.167-.459-.19-.984-.015-1.24.409l-3 5 1.715 1.029 1.098-1.83c.313 1.485 1.012 2.885 2.06 4.049l.222.246c2.176 2.417 3.771 5.216 4.74 8.319z"/><path d="m44 4h2v2h-2z"/><path d="m22 3h2v2h-2z"/><path d="m16 12h2v2h-2z"/><path d="m18.905 18.862-1.09-3.101c-.141-.401-.52-.668-.943-.668-.003 0-.005 0-.008 0-.427.003-.805.277-.94.683l-1.275 3.812c-.19.569-.476 1.098-.849 1.572l-.199.254c-1.899 2.416-2.063 5.778-.406 8.367l1.823 2.85c.188.293.509.461.843.461.105 0 .211-.017.315-.051.434-.145.715-.565.682-1.021l-.193-2.682c-.094-1.301.299-2.583 1.105-3.609 1.536-1.954 1.96-4.521 1.135-6.867zm-2.708 5.632c-.881 1.121-1.404 2.462-1.521 3.862-.976-1.818-.793-4.064.498-5.707l.199-.254c.515-.654.908-1.386 1.172-2.173l.351-1.047.123.35c.596 1.698.29 3.555-.822 4.969z"/><path d="m3.471 56.089c.49 1.13 1.597 1.807 2.757 1.807.397 0 .802-.08 1.188-.248l12.752-5.53-3.312 3.383.001.001c-.561.573-.866 1.329-.857 2.13s.328 1.551.901 2.112l1.43 1.398c.565.555 1.309.858 2.098.858h.032c.802-.009 1.551-.329 2.112-.902l13.874-14.172c.187-.017.371-.043.556-.066l-.267.504c-.773 1.461-.214 3.281 1.248 4.055l17.676 9.357c.438.232.917.35 1.4.35.296 0 .594-.044.886-.134.766-.236 1.394-.756 1.769-1.463l.937-1.768c.773-1.462.214-3.281-1.248-4.055l-16.568-8.772c4.866-2.746 8.164-7.959 8.164-13.934 0-1.046-.067-2.098-.2-3.128l-1.984.257c.122.944.184 1.911.184 2.871 0 7.72-6.28 14-14 14s-14-6.28-14-14c0-1.708.588-3.384 1.653-4.716l.096-.119c3.51-4.387 4.71-10.191 3.317-15.563 1.164.523 2.547 1.398 2.985 2.714l.024-.008c.168 1.343.694 2.644 1.6 3.733l2.166 2.599c.196.234.48.36.769.36.146 0 .293-.032.432-.098.412-.198.639-.65.549-1.099l-.527-2.637c-.256-1.28-.026-2.601.645-3.719 1.278-2.131 1.379-4.731.268-6.955l-1.471-2.94c-.19-.381-.601-.598-1.027-.544-.424.057-.764.376-.848.795l-.788 3.942c-.117.588-.334 1.148-.644 1.665l-.167.278c-.312.52-.532 1.074-.702 1.637-1.861-1.665-4.463-2.269-4.612-2.303-.361-.082-.735.044-.976.325-.24.28-.307.67-.173 1.014 2.029 5.221 1.117 11.18-2.38 15.552l-.096.119c-1.35 1.688-2.093 3.808-2.093 5.968 0 5.985 3.308 11.205 8.187 13.949l-3.311 3.383-14.669 6.36c-.023-.337-.093-.671-.231-.99l-.796-1.835c-.14-.323-.339-.6-.567-.844l13.43-5.824c.748.694 1.555 1.284 2.425 1.702l.867-1.803c-3.938-1.892-6.658-8.477-7.398-10.45l-1.873.702c.697 1.856 2.238 5.471 4.537 8.294l-15.367 6.665c-.735.319-1.303.905-1.597 1.65-.295.745-.281 1.56.038 2.295zm52.709 1.569.937-1.768c.125-.236.334-.409.59-.488.097-.03.196-.044.295-.044.161 0 .32.039.467.117.487.258.674.864.416 1.351l-.937 1.768c-.125.236-.334.409-.59.488-.251.079-.523.055-.762-.072-.236-.125-.409-.334-.488-.589-.079-.256-.053-.527.072-.763zm-17.676-9.358.937-1.769c.041-.076.098-.132.27-.242.258-.08.506-.181.758-.273.111.017.221.046.323.1l15.185 8.039c-.248.228-.466.492-.628.798l-.937 1.768c-.163.307-.258.635-.307.969l-15.184-8.039c-.488-.257-.675-.864-.417-1.351zm-6.758-38.581.167-.279c.429-.714.728-1.489.89-2.302l.217-1.084.167.333c.804 1.609.731 3.49-.193 5.032-.733 1.222-1.085 2.619-1.025 4.024-1.198-1.682-1.297-3.934-.223-5.724zm-10.602 49.98c-.187.191-.437.298-.703.301-.278.009-.52-.098-.711-.286l-1.429-1.398c-.191-.187-.298-.437-.301-.704s.099-.52.286-.71c.195-.2.454-.3.714-.3.253 0 .506.095.7.285l1.428 1.399c.394.385.401 1.02.016 1.413zm7.953-13.842c1.427.569 2.953.939 4.546 1.074l-10.53 10.756c-.146-.3-.334-.585-.586-.831l-1.429-1.399c-.252-.246-.54-.428-.843-.568zm-24.6 6.836c.099-.248.287-.443.532-.55.13-.056.265-.083.396-.083.387 0 .756.226.92.602l.795 1.835c.106.245.111.517.013.765-.098.249-.287.444-.532.55-.505.219-1.096-.014-1.315-.52l-.796-1.834c-.106-.245-.111-.516-.013-.765z"/></svg>