<svg id="Layer_1" enable-background="new 0 0 512.129 512.129" height="512" viewBox="0 0 512.129 512.129" width="512" xmlns="http://www.w3.org/2000/svg"><g><g><g><g><path d="m446.431 468.184c19.891 0 33.578-20.194 25.973-38.573-6.882-16.631-17.214-28.755-4.601-57.023 22.288-49.951 10.291-76.443-9.43-108.515-33.432-54.371-8.989-82.141-21.99-129.241-46.81-169.598-313.825-169.609-360.639 0-13 47.101 11.443 74.87-21.99 129.241-19.721 32.072-31.718 58.564-9.43 108.515 12.613 28.269 2.281 40.393-4.601 57.023-7.605 18.379 6.082 38.573 25.973 38.573z" fill="#735351"/><path d="m467.803 372.588c22.288-49.951 10.291-76.443-9.43-108.515-33.432-54.372-8.989-82.141-21.99-129.241-24.897-90.21-112.096-132.44-195.321-126.685 73.243 5.065 143.409 47.294 165.322 126.685 13 47.101-11.443 74.87 21.99 129.241 19.721 32.072 31.718 58.563 9.43 108.515-12.614 28.269-2.281 40.393 4.601 57.023 7.605 18.379-6.082 38.573-25.973 38.573h30c19.891 0 33.578-20.194 25.973-38.573-6.883-16.631-17.215-28.755-4.602-57.023z" fill="#664442"/><g><g><ellipse cx="392.292" cy="270.736" fill="#ffd8ba" rx="30.381" ry="30.523"/></g><g><ellipse cx="119.838" cy="270.736" fill="#ffd8ba" rx="30.381" ry="30.523"/></g></g><g><path d="m115.83 504.629v-22.559c0-77.332 62.69-140.022 140.022-140.022h.426c77.332 0 140.022 62.69 140.022 140.022v22.559z" fill="#ff80b3"/><path d="m256.278 342.048h-.426c-4.995 0-9.928.262-14.787.772 70.381 7.387 125.235 66.912 125.235 139.25v22.559h30v-22.559c0-77.332-62.69-140.022-140.022-140.022z" fill="#ff6ba7"/><path d="m256.119 448.84h-.108c-19.618 0-35.521-15.904-35.521-35.521v-57.491h71.151v57.491c-.001 19.618-15.904 35.521-35.522 35.521z" fill="#ffd8ba"/></g><g><path d="m183.596 105.125c-4.497 45.751-27.728 50.849-42.074 55.825-6.878 2.386-11.472 8.911-11.472 16.221v86.505c0 69.919 56.419 126.6 126.014 126.6 69.596 0 126.014-56.681 126.014-126.6v-80.477c0-9.743-8.053-17.454-17.747-17.169-15.173.445-40.366.56-59.885-18.765-24.882-24.636-39.273-15.864-65.241-16.457-32.465-.741-45.9-15.867-51.345-26.497-1.037-2.027-4.041-1.453-4.264.814z" fill="#ffd8ba"/></g></g></g><path d="m321.964 294.31c0 32.948-29.504 59.658-65.899 59.658s-65.899-26.71-65.899-59.658z" fill="#e86d6d"/><g><path d="m321.964 294.31h-131.798c0 8.727 2.087 17.007 5.806 24.478h120.186c3.719-7.471 5.806-15.751 5.806-24.478z" fill="#fff"/></g><g fill="#99d6ff"><path d="m131.275 325.566c-8.595 7.415-21.573 6.459-28.988-2.136s-6.459-21.573 2.136-28.988 47.179-13.559 47.179-13.559-11.733 37.268-20.327 44.683z"/><path d="m380.855 325.566c8.595 7.415 21.573 6.459 28.988-2.136s6.459-21.573-2.136-28.988-47.179-13.559-47.179-13.559 11.733 37.268 20.327 44.683z"/></g></g><g><path d="m475.874 419.006c-5.866-12.61-10.5-22.57-1.223-43.362 23.812-53.368 10.278-82.7-9.89-115.5-19.075-31.022-18.127-52.663-17.124-75.575 4.906-45.517-14.888-95.65-48.105-128.207-6.843-6.871-17.47 3.719-10.625 10.588 19.235 19.303 32.776 42.812 40.247 69.877 4.799 17.388 4.167 31.813 3.498 47.086-1.059 24.163-2.153 49.147 19.332 84.088 18.997 30.896 29.885 54.655 8.97 101.531-12.063 27.035-4.953 42.317 1.319 55.802 4.066 8.743 7.221 17.309 1.29 26.184-3.895 5.826-10.139 9.167-17.133 9.167h-44.17c-5.574-38.395-26.028-73.04-57.365-96.571 11.271-10.033 20.911-22.046 28.379-35.676 20.285 25.127 60.134-2.719 46.152-30.908 24.523-24.563 4.963-66.968-29.594-64.719v-49.611c0-13.635-11.803-25.1-25.467-24.666-12.767.374-36.541 1.073-54.389-16.599-21.584-21.37-37.679-20.298-54.727-19.164-4.918.328-10.004.667-15.62.538-27.896-.637-39.782-12.543-44.842-22.42-4.277-8.346-17.467-6.005-18.403 3.502-3.764 38.292-20.773 43.998-34.441 48.582-10.901 3.661-19.14 12.034-19.14 24.198v55.639c-34.316-2.242-53.995 39.688-29.927 64.378-14.589 28.419 25.967 56.888 46.277 30.874 7.469 13.746 17.137 25.856 28.457 35.962-10.292 7.722-19.52 16.741-27.518 26.908-5.859 7.447 5.883 16.783 11.789 9.274 8.007-10.179 17.387-19.079 27.931-26.511 10.244 7.184 21.49 12.912 33.428 16.976v22.647c-.004 23.76 19.371 43.084 43.13 43.021 23.722 0 43.021-19.299 43.021-43.021v-22.66c11.879-4.049 23.076-9.747 33.284-16.887 35.24 24.874 56.123 64.979 56.123 108.299v22.559c0 4.142 3.357 7.5 7.5 7.5s7.5-3.358 7.5-7.5c0-9.634.275-19.316-.136-28.945h42.767c11.91 0 22.977-5.918 29.604-15.832 8.902-13.316 6.148-27.289-.159-40.846zm-71.71-100.476c-4.652 5.393-13.019 6.009-18.41 1.356-6.988-6.029-11.137-21.388-14.033-29.364 9.56 1.936 23.613 3.149 31.087 9.598 5.392 4.653 6.009 13.018 1.356 18.41zm11.261-47.794c0 5.894-2.233 11.478-6.141 15.697-3.438-1.996-9.329-4.47-20.331-7.309 1.188-8.939.835-22.124.878-31.25 14.734-.001 25.594 10.167 25.594 22.862zm-292.622-22.863c.045 9.122-.31 22.191.864 31.124-10.968 2.802-16.955 5.254-20.49 7.246-13.667-15.371-2.652-38.759 19.626-38.37zm3.572 72.014c-12.756 11.004-29.809-8.762-17.054-19.766 2.752-2.375 29.01-9.152 31.104-9.579-2.554 7.066-12.577 28.074-14.05 29.345zm21.603-7.848c4.144-9.398 7.692-19.108 10.777-28.903 1.646-5.229-2.922-10.518-8.334-9.659-.288.046-5.261.842-12.023 2.199-1.143-4.593-.396-91.259-.595-98.504 0-5.664 4.146-8.378 8.909-9.976 13.432-4.505 35.009-11.743 42.617-48.139 14.651 15.82 36.713 18.948 49.958 19.25 6.284.146 11.955-.234 16.959-.567 50.262-6.248 35.211 38.976 108.558 35.789 5.409-.155 10.027 4.238 10.027 9.672-.212 8.086.574 86.751-.605 92.576-7.013-1.417-12.223-2.251-12.518-2.298-5.411-.858-9.98 4.429-8.334 9.659 3.146 9.986 6.77 19.905 11.029 29.471-42.085 93.231-174.865 92.863-216.425-.57zm136.415 101.28c0 15.451-12.57 28.021-28.021 28.021h-.108c-15.451 0-28.021-12.57-28.021-28.021v-18.504c18.108 3.936 38.041 3.939 56.151-.007v18.511z"/><path d="m129.278 422.179c-3.7-1.513-8.437.208-9.995 4.012-4.556 11.126-7.705 22.667-9.42 34.493h-44.164c-6.994 0-13.238-3.341-17.133-9.167-5.931-8.875-2.776-17.441 1.29-26.184 30.431-58.54-44.037-75.4 10.289-157.333 21.485-34.94 20.391-59.925 19.332-84.088-.669-15.272-1.301-29.698 3.498-47.086 13.63-49.382 48.295-87.513 97.607-107.368 27.673-11.141 58.642-15.935 89.545-13.858 31.18 2.093 60.981 11.111 86.184 26.08 8.07 4.793 16.097-7.886 7.66-12.896-122.12-73.876-310.158.293-299.479 155.785 1.003 22.912 1.951 44.553-17.124 75.575-20.168 32.8-33.703 62.131-9.891 115.5 9.278 20.792 4.645 30.752-1.222 43.362-6.307 13.556-9.061 27.529-.16 40.846 6.627 9.913 17.693 15.832 29.604 15.832h42.766c-.408 9.629-.135 19.31-.135 28.945 0 9.829 15.253 9.829 15.253 0 0-11.99-.183-23.945.661-35.911 1.26-12.65 4.318-24.966 9.139-36.758 1.567-3.834-.271-8.213-4.105-9.781z"/><path d="m196.954 195.1c9.916-.577 9.576-14.9-.357-14.996-18.771.447-33.221 11.732-33.827 12.212-3.238 2.566-3.78 7.258-1.226 10.506 2.441 3.103 7.343 3.748 10.521 1.267.11-.086 11.253-8.664 24.889-8.989z"/><path d="m315.176 195.1c13.547.323 24.633 8.791 24.886 8.986 3.174 2.499 8.066 1.86 10.519-1.234 2.573-3.247 2.026-7.964-1.22-10.536-.606-.48-15.056-11.765-33.827-12.212-9.934.124-10.273 14.413-.358 14.996z"/><path d="m285.641 261.976c.266-.096 26.582-9.444 44.979 4.462 3.216 2.431 8.12 1.696 10.506-1.461 2.497-3.305 1.844-8.008-1.461-10.506-11.322-8.558-24.313-10.781-35.26-10.632 3.358-1.71 7.362-3.02 12.076-3.487 9.844-1.316 8.435-15.573-1.479-14.927-27.503 2.724-38.29 25.391-38.735 26.354-2.745 5.935 3.228 12.438 9.374 10.197z"/><path d="m181.509 266.438c18.258-13.803 44.73-4.551 44.979-4.462 6.145 2.237 12.12-4.259 9.373-10.196-.445-.963-11.232-23.63-38.735-26.354-4.121-.413-7.794 2.603-8.203 6.724-.408 4.122 2.603 7.794 6.725 8.203 4.712.467 8.716 1.777 12.074 3.487-10.962-.15-23.939 2.077-35.258 10.632-3.305 2.498-3.958 7.201-1.461 10.506 2.387 3.156 7.289 3.89 10.506 1.46z"/><path d="m182.665 294.31c0 39.06 36.204 67.158 73.399 67.158 35.769 0 70.946-25.959 73.276-63.248.317-5.066-.878-11.411-7.377-11.411h-131.798c-4.142.001-7.5 3.359-7.5 7.501zm73.4 52.158c-18.719 0-35.41-7.908-46.105-20.18h92.209c-10.694 12.272-27.385 20.18-46.104 20.18zm57.798-44.658c-.523 3.234-1.396 6.421-2.581 9.478h-110.434c-1.19-3.069-2.056-6.237-2.581-9.478z"/></g></g></svg>