<svg height="512" viewBox="0 0 512 512" width="512" xmlns="http://www.w3.org/2000/svg"><g id="filled_outline" data-name="filled outline"><path d="m280 224-184 112-72-56z" fill="#fa4a3a"/><path d="m296 344 80-16v-56l16-248z" fill="#fa4a3a"/><path d="m72 200 8 32-56 16z" fill="#bb382c"/><path d="m48 184h40l-64 64z" fill="#fa4a3a"/><path d="m240 272-40 80-24-24z" fill="#fa4a3a"/><path d="m280 224 40 80-80-32-64 56-16-32z" fill="#bb382c"/><path d="m133.46 362.032-61.46-162.032 24 200z" fill="#8c2a21"/><path d="m160 432-26.54-69.968-37.46 37.968z" fill="#fa4a3a"/><path d="m240 272-48 88 24 8 128-72z" fill="#fc9289"/><path d="m160 432 72-40-144-208-16 16z" fill="#fc7e72"/><path d="m200 376-40 56 80-40v-16z" fill="#bb382c"/><path d="m200 376 192-112 96 224z" fill="#fdb7b0"/><path d="m495.353 484.849-96-224a8 8 0 0 0 -11.384-3.759l-3.107 1.813 15.121-234.388a8 8 0 0 0 -15.639-2.835l-74.174 244.772-23-45.993a8 8 0 0 0 -8.882-4.274l-137.459 30.069-46.214-66.754a8 8 0 0 0 -6.615-3.5h-40a8 8 0 0 0 -7.491 5.191l-24 64a8 8 0 0 0 9.689 10.5l42.955-12.273 2.165 18.041-49.027 10.726a8 8 0 0 0 -3.2 14.13l60.9 47.363 8.073 67.275a8 8 0 0 0 4.365 6.2l63.919 31.96a8 8 0 0 0 7.544-.122l72-40-.322-.579 249.53 97.044a8 8 0 0 0 10.252-10.607zm-127.153-216.228-32.619 19.028-14.052-3.513 58.025-191.478zm-172.231 100.469a7.983 7.983 0 0 0 -2.483 2.267l-31.307 43.829-80.865-213.186 5.565-5.564 116.527 168.316zm-108.224-105.022 36.17 95.355-22.561 18.049zm42.132 111.075 15.378 40.54-40.648-20.324zm168.332-96.837-56.269-14.067a8 8 0 0 0 -7.229 1.761l-50.341 43.15-8.558-12.362 100.921-61.43zm-104.683 44.066 17.827-15.281-12.646 22.764zm23.742 34.294-8.407-12.143 35.152-63.273 71.778 17.944zm17.714-114.629-68.293 41.57-16.012-23.128zm-181.438-50.037h15.142l-24.228 24.228zm-2.057 39.826 14.531-14.526 1.2 10.035zm-9.1 52.341 30.845-6.747 4.068 33.9zm144.75 123.605 15.763-22.062 14.09 5.479zm31.218-33.217 169.857-99.084 84.929 198.167z"/></g></svg>