<?xml version="1.0" encoding="iso-8859-1"?>
<!-- Generator: Adobe Illustrator 19.0.0, SVG Export Plug-In . SVG Version: 6.00 Build 0)  -->
<svg version="1.1" id="Capa_1" xmlns="http://www.w3.org/2000/svg" xmlns:xlink="http://www.w3.org/1999/xlink" x="0px" y="0px"
	 viewBox="0 0 512 512" style="enable-background:new 0 0 512 512;" xml:space="preserve">
<rect x="236.226" y="53.574" style="fill:#00DDC2;" width="39.538" height="42.924"/>
<rect x="236.226" y="53.574" style="fill:#00CCB3;" width="39.538" height="21.635"/>
<path style="fill:#008877;" d="M299.34,19.734v25.842c0,6.691-5.475,12.166-12.166,12.166h-62.349
	c-6.691,0-12.166-5.475-12.166-12.166V19.734c0-6.691,5.475-12.166,12.166-12.166h62.349C293.865,7.568,299.34,13.043,299.34,19.734
	z"/>
<path style="fill:#00AA95;" d="M299.34,19.734v25.842c0,6.691-5.475,12.166-12.166,12.166h-41.059
	c-6.691,0-12.166-5.475-12.166-12.166V19.734c0-6.691,5.475-12.166,12.166-12.166h41.059C293.865,7.568,299.34,13.043,299.34,19.734
	z"/>
<path style="fill:#00DDC2;" d="M342.295,151.629v321.963c0,17.102-13.899,30.749-30.749,30.749
	c-2.846-0.547-23.714,3.716-34.895-14.893c-1.304-2.167-11.112-18.463-12.581-20.905c-3.602-5.975-12.564-5.943-16.14,0
	l-12.581,20.905c-5.453,9.075-15.376,14.893-26.349,14.893h-8.546c-16.981,0-30.749-13.767-30.749-30.749V151.629
	c0-35.169,28.772-63.94,63.94-63.94h44.709C313.523,87.689,342.295,116.46,342.295,151.629z"/>
<path style="fill:#00EED1;" d="M342.295,151.629v321.963c0,17.102-13.899,30.749-30.749,30.749
	c-2.846-0.547-23.714,3.716-34.895-14.893c-1.304-2.167-11.112-18.463-12.581-20.905c-3.602-5.975-12.564-5.943-16.14,0
	l-12.581,20.905c-4.075,6.782-10.554,11.628-17.965,13.717c-12.896-3.65-22.334-15.511-22.334-29.573V151.629
	c0-35.169,28.772-63.94,63.94-63.94h19.364C313.523,87.689,342.295,116.46,342.295,151.629z"/>
<rect x="169.71" y="201.686" style="fill:#5EAC24;" width="172.59" height="159.674"/>
<rect id="SVGCleanerId_0" x="195.055" y="201.686" style="fill:#91CC04;" width="147.245" height="159.674"/>
<g>
	<rect id="SVGCleanerId_0_1_" x="195.055" y="201.686" style="fill:#91CC04;" width="147.245" height="159.674"/>
</g>
<path d="M270.578,464.655c-3.998-6.635-11.537-9.211-18.299-7.744v-0.001c-0.105,0.048-6.755,0.942-10.868,7.745L228.83,485.56
	c-0.071,0.091-0.132,0.193-0.203,0.284v0.029c-8.844,14.178-24.598,10.277-28.174,10.899c-12.764,0-23.145-10.381-23.145-23.145
	v-26.663c0-4.197-3.406-7.604-7.604-7.604c-4.197,0-7.604,3.406-7.604,7.604v26.663c0,21.148,17.204,38.352,38.352,38.352
	c5.301-0.466,15.783,1.928,28.174-5.457v0.145c4.795-2.778,9.449-6.965,13.24-13.26c4.6-7.269,7.447-12.098,10.412-17.316v-0.003
	c2.257-3.976,2.484-4.377,3.721-4.377c2.18,0,1.338,1.46,12.51,18.988c2.159,3.599,6.833,4.765,10.432,2.595
	s4.765-6.833,2.595-10.432L270.578,464.655z"/>
<path d="M283.372,80.303V65.38h3.802c10.898,0,19.769-8.861,19.769-19.769V19.769C306.943,8.861,298.073,0,287.174,0h-62.349
	c-10.898,0-19.769,8.861-19.769,19.769v25.842c0,10.909,8.871,19.769,19.769,19.769h3.802v14.923
	c-37.115,2.575-66.526,33.597-66.526,71.361v61.535c0,3.866,2.777,7.312,6.612,7.797c4.639,0.588,8.595-3.017,8.595-7.541v-4.126
	h157.383v144.467H177.309v-109.67c0-3.866-2.777-7.312-6.612-7.797c-4.639-0.588-8.595,3.017-8.595,7.541v173.36
	c0,4.199,3.404,7.603,7.604,7.603s7.604-3.404,7.604-7.603v-48.227h157.383v104.624c0,12.764-10.381,23.145-23.145,23.145
	c-7.744-0.059-9.05,0.141-11.634-0.205c-4.058-0.543-8.026,2.096-8.765,6.122c-0.784,4.268,2.144,8.292,6.399,8.904
	c4.268,0.608,6.691,0.304,14.001,0.385c21.148,0,38.352-17.204,38.352-38.352V151.665
	C349.898,113.901,320.488,82.878,283.372,80.303z M224.825,50.173c-2.474,0-4.562-2.088-4.562-4.562V19.769
	c0-2.474,2.088-4.562,4.562-4.562h62.349c2.474,0,4.562,2.088,4.562,4.562v25.842c0,2.474-2.088,4.562-4.562,4.562
	C287.174,50.173,224.825,50.173,224.825,50.173z M268.165,65.38v14.741h-24.331V65.38H268.165z M334.691,194.123H177.309v-42.458
	c0-31.043,25.254-56.337,56.337-56.337h44.709c31.032,0,56.337,25.254,56.337,56.337V194.123z"/>
<path d="M211.636,329.435h31.475c16.351,13.102,16.999,16.051,21.762,16.049c7.06,0,10.311-8.847,4.913-13.411l-3.121-2.639h33.699
	c13.5,0,21.83-14.693,15.126-26.217l-12.912-22.356l3.047-22.058c0.574-4.16-2.332-7.998-6.491-8.573
	c-4.162-0.58-7.999,2.331-8.573,6.491l-0.368,2.665l-19.057-33.005c-6.746-11.677-23.561-11.635-30.262,0h-0.01
	c-8.797,15.234-5.88,10.184-14.674,25.413l-20.614,8.289c-3.896,1.566-5.785,5.996-4.218,9.891c1.566,3.897,5.997,5.784,9.892,4.218
	l2.629-1.057c-16.11,29.207-19.73,31.019-19.73,38.811C194.148,321.588,201.995,329.435,211.636,329.435z M209.679,310.821
	l18.308-31.721l0.85,4.234c0.725,3.612,3.899,6.109,7.447,6.109c4.814,0,8.405-4.404,7.463-9.101l-4.249-21.18l14.535-25.178
	c0.578-0.983,1.48-1.135,1.967-1.135c2.666,0,1.404,1.528,22.09,35.998l-4.195-1.398c-3.987-1.328-8.291,0.826-9.617,4.81
	c-1.328,3.984,0.825,8.29,4.809,9.617l20.463,6.818l12.781,22.136c0.883,1.514-0.241,3.396-1.967,3.396h-33.141l2.419-1.975
	c3.252-2.656,3.738-7.445,1.081-10.699c-2.655-3.252-7.445-3.739-10.699-1.082l-16.849,13.755h-31.538
	C209.914,314.228,208.774,312.343,209.679,310.821z"/>
<g>
</g>
<g>
</g>
<g>
</g>
<g>
</g>
<g>
</g>
<g>
</g>
<g>
</g>
<g>
</g>
<g>
</g>
<g>
</g>
<g>
</g>
<g>
</g>
<g>
</g>
<g>
</g>
<g>
</g>
</svg>
