<svg id="Capa_1" enable-background="new 0 0 505 505" height="512" viewBox="0 0 505 505" width="512" xmlns="http://www.w3.org/2000/svg"><g><g><path d="m228.253 263.512h233.988v233.988h-233.988" fill="#d6d8e0"/><path d="m228.253 263.512h64.496v233.988h-64.496" fill="#b7bcc9"/><path d="m45.882 288.557h223.489v61.497h-223.489z" fill="#f5dc60"/><path d="m45.882 288.557h61.497v61.497h-61.497z" fill="#ddc448"/><path d="m248.906 350.059-3.83 31.49-9.84 80.81c-2.44 20.06-19.47 35.14-39.68 35.14h-75.86c-20.21 0-37.24-15.08-39.68-35.14l-13.67-112.3z" fill="#ddc448"/><path d="m245.076 381.549-9.84 80.81c-2.44 20.06-19.47 35.14-39.68 35.14h-30.45c-20.21 0-37.24-15.08-39.68-35.14l-6.833-56.117c-1.598-13.126 8.646-24.693 21.869-24.693z" fill="#f5dc60"/><path d="m157.627 288.557s-46.762-151.492 89.731-212.989c0 0 45.527 154.492-89.731 212.989z" fill="#66a582"/><g fill="#77bf9a"><path d="m157.627 288.557s55.324-179.23-106.16-251.987c-.001 0-53.864 182.779 106.16 251.987z"/><path d="m426.126 55.684c-44.668 0-80.879 36.211-80.879 80.879 44.668 0 80.879-36.211 80.879-80.879z"/><path d="m426.126 142.328c-44.668 0-80.879 36.211-80.879 80.879 44.668 0 80.879-36.211 80.879-80.879z"/></g><path d="m278.537 112.279c36.843 0 66.71 29.867 66.71 66.709-36.843 0-66.71-29.866-66.71-66.709z" fill="#66a582"/></g><g><path d="m255.548 357.554h13.823c4.143 0 7.5-3.358 7.5-7.5v-61.497c0-4.142-3.357-7.5-7.5-7.5h-81.598c51.569-33.066 68.331-82.164 72.887-120.035 5.646-46.93-5.626-85.937-6.108-87.574-.613-2.079-2.095-3.791-4.065-4.696-1.969-.905-4.233-.912-6.21-.022-32.615 14.695-57.864 35.668-75.045 62.338-2.244 3.482-1.239 8.124 2.243 10.367 3.482 2.242 8.124 1.24 10.367-2.243 14.133-21.938 34.427-39.692 60.403-52.866 2.873 13.557 7.297 41.542 3.524 72.905-3.07 25.523-10.925 48.16-23.348 67.283-12.939 19.918-30.988 36.128-53.744 48.361 3.703-18.129 8.119-49.91 3.876-85.905-3.825-32.447-13.945-61.52-30.078-86.411-20.175-31.128-49.758-55.63-87.927-72.827-1.978-.891-4.241-.883-6.21.022-1.97.905-3.452 2.617-4.065 4.696-.281.954-6.901 23.728-8.624 56.44-1.595 30.301.943 75.148 22.097 116.72 1.879 3.692 6.394 5.161 10.086 3.283 3.692-1.879 5.162-6.395 3.283-10.086-30.721-60.371-19.747-129.658-14.547-153.524 31.457 15.65 56.04 36.876 73.16 63.189 14.882 22.872 24.258 49.708 27.868 79.76 3.51 29.216.829 55.914-2.197 73.72l-74.231-176.2c-1.608-3.817-6.007-5.608-9.823-4-3.817 1.608-5.608 6.006-4 9.823l75.629 179.516c-24.117-13.122-43.768-30.044-58.558-50.489-2.429-3.356-7.117-4.108-10.473-1.681-3.356 2.428-4.108 7.117-1.681 10.473 14.22 19.657 32.5 36.271 54.513 49.662h-80.892c-4.142 0-7.5 3.358-7.5 7.5v61.497c0 4.142 3.358 7.5 7.5 7.5h13.823l12.866 105.709c2.896 23.795 23.156 41.738 47.125 41.738h75.859c23.97 0 44.229-17.943 47.125-41.737zm-202.165-61.497h208.489v46.497h-208.489zm174.408 165.394c-1.98 16.276-15.838 28.549-32.235 28.549h-75.859c-16.396 0-30.254-12.273-32.235-28.549l-12.645-103.897h165.621z"/><path d="m462.241 413.271c-4.143 0-7.5 3.358-7.5 7.5v69.229h-216.488c-4.142 0-7.5 3.358-7.5 7.5s3.358 7.5 7.5 7.5h223.988c4.143 0 7.5-3.358 7.5-7.5v-76.729c0-4.143-3.357-7.5-7.5-7.5z"/><path d="m462.241 256.012h-109.494v-25.627c45.234-3.82 80.878-41.851 80.878-88.057 0-4.142-3.357-7.5-7.5-7.5-30.531 0-57.495 15.564-73.378 39.173v-30.26c45.234-3.82 80.878-41.851 80.878-88.057 0-4.142-3.357-7.5-7.5-7.5-30.531 0-57.495 15.564-73.378 39.173v-79.857c0-4.142-3.357-7.5-7.5-7.5s-7.5 3.358-7.5 7.5v22.37l-8.396-7.796c-3.036-2.819-7.782-2.643-10.6.393-2.818 3.035-2.643 7.781.393 10.599l18.603 17.274v83.973c-13.559-17.926-35.052-29.534-59.21-29.534-4.143 0-7.5 3.358-7.5 7.5 0 38.388 29.299 70.059 66.71 73.831v69.901h-109.494c-4.142 0-7.5 3.358-7.5 7.5s3.358 7.5 7.5 7.5h226.489v17.545h-109.495c-4.143 0-7.5 3.358-7.5 7.5s3.357 7.5 7.5 7.5h109.494v20.999h-67.497c-4.143 0-7.5 3.358-7.5 7.5s3.357 7.5 7.5 7.5h67.497v56.214c0 4.142 3.357 7.5 7.5 7.5s7.5-3.358 7.5-7.5v-132.257c0-4.142-3.357-7.5-7.5-7.5zm-44.041-192.403c-3.684 34.145-30.884 61.345-65.028 65.029 3.684-34.145 30.884-61.346 65.028-65.029zm0 86.644c-3.684 34.145-30.884 61.346-65.028 65.029 3.684-34.145 30.884-61.346 65.028-65.029zm-131.619-29.936c12.766 1.723 24.56 7.539 33.823 16.804 9.265 9.265 15.081 21.058 16.804 33.824-26.23-3.576-47.052-24.397-50.627-50.628z"/><path d="m186.933 226.488c2.927 0 5.708-1.724 6.915-4.59l41.382-98.227c1.608-3.817-.183-8.215-4-9.823s-8.215.183-9.823 4l-41.382 98.227c-1.608 3.817.183 8.215 4 9.823.951.401 1.938.59 2.908.59z"/></g></g></svg>