<?xml version="1.0"?>
<svg xmlns="http://www.w3.org/2000/svg" id="filled_outline" data-name="filled outline" viewBox="0 0 512 512" width="512" height="512"><title>tool-service-custom-repair-hammer</title><rect x="72" y="304" width="64" height="32" style="fill:#f6bb00"/><path d="M136,384v72a32,32,0,1,1-64,0V384l8-24V336h48v24Z" style="fill:#eda600"/><polygon points="88 304 88 168 80 144 80 104 128 104 128 144 120 168 120 304 88 304" style="fill:#4d6378"/><path d="M280,208V160l-16-24H248v40l-24,16-24-16V136H184l-16,24v48l32,24V376l-32,32v48l32,32h48l32-32V408l-32-32V232ZM248,440l-16,16H216l-16-16V424l16-16h16l16,16Z" style="fill:#4d6378"/><polygon points="312 24 248 24 248 88 440 88 440 64 312 24" style="fill:#5c7387"/><polygon points="384 88 368 120 320 120 304 88 384 88" style="fill:#42566b"/><rect x="320" y="120" width="48" height="192" style="fill:#34475c"/><path d="M368,312l8,24V464a24,24,0,0,1-24,24H336a24,24,0,0,1-24-24V336l8-24Z" style="fill:#f6bb00"/><path d="M136,296h-8V169.29785l7.58984-22.76758A8.0151,8.0151,0,0,0,136,144V104a8.00039,8.00039,0,0,0-8-8H80a8.00039,8.00039,0,0,0-8,8v40a8.0151,8.0151,0,0,0,.41016,2.53027L80,169.29785V296H72a8.00039,8.00039,0,0,0-8,8v32a8.00039,8.00039,0,0,0,8,8v14.70215l-7.58984,22.76758A8.01957,8.01957,0,0,0,64,384v72a40,40,0,0,0,80,0V384a8.01957,8.01957,0,0,0-.41016-2.53027L136,358.70215V344a8.00039,8.00039,0,0,0,8-8V304A8.00039,8.00039,0,0,0,136,296ZM95.58984,165.46973,88,142.70215V112h32v30.70215l-7.58984,22.76758A8.0151,8.0151,0,0,0,112,168V296H96V168A8.0151,8.0151,0,0,0,95.58984,165.46973ZM80,312h48v16H80Zm40.41016,50.53027L128,385.29785V456a24.03919,24.03919,0,0,1-16,22.624V384a8,8,0,0,0-16,0v94.624A24.03919,24.03919,0,0,1,80,456V385.29785l7.58984-22.76758A8.01957,8.01957,0,0,0,88,360V344h32v16A8.01957,8.01957,0,0,0,120.41016,362.53027Z"/><path d="M232,400H216a8.00235,8.00235,0,0,0-5.65723,2.34277l-16,16A8.00235,8.00235,0,0,0,192,424v16a8.00235,8.00235,0,0,0,2.34277,5.65723l16,16A8.00235,8.00235,0,0,0,216,464h16a8.00235,8.00235,0,0,0,5.65723-2.34277l16-16A8.00235,8.00235,0,0,0,256,440V424a8.00235,8.00235,0,0,0-2.34277-5.65723l-16-16A8.00235,8.00235,0,0,0,232,400Zm8,36.68652L228.68652,448h-9.373L208,436.68652v-9.373L219.31348,416h9.373L240,427.31348Z"/><path d="M270.65625,131.5625A7.99943,7.99943,0,0,0,264,128H248a8.00039,8.00039,0,0,0-8,8v35.71875l-16,10.666-16-10.666V136a8.00039,8.00039,0,0,0-8-8H184a7.99943,7.99943,0,0,0-6.65625,3.5625l-16,24A8.00221,8.00221,0,0,0,160,160v48a8.0009,8.0009,0,0,0,3.2002,6.40039L192,236V372.68652l-29.65723,29.65625A8.00235,8.00235,0,0,0,160,408v48a8.00235,8.00235,0,0,0,2.34277,5.65723l32,32A8.00235,8.00235,0,0,0,200,496h48a8.00235,8.00235,0,0,0,5.65723-2.34277l32-32A8.00235,8.00235,0,0,0,288,456V408a8.00235,8.00235,0,0,0-2.34277-5.65723L256,372.68652V236l28.7998-21.59961A8.0009,8.0009,0,0,0,288,208V160a8.00221,8.00221,0,0,0-1.34375-4.4375ZM272,204l-28.7998,21.59961A8.0009,8.0009,0,0,0,240,232V376a8.00235,8.00235,0,0,0,2.34277,5.65723L272,411.31348v41.373L244.68652,480h-41.373L176,452.68652v-41.373l29.65723-29.65625A8.00235,8.00235,0,0,0,208,376V232a8.0009,8.0009,0,0,0-3.2002-6.40039L176,204V162.42188L188.28125,144H192v32a7.99943,7.99943,0,0,0,3.5625,6.65625l24,16a8.00131,8.00131,0,0,0,8.875,0l24-16A7.99943,7.99943,0,0,0,256,176V144h3.71875L272,162.42188Z"/><path d="M442.38574,56.36426l-128-40A7.99629,7.99629,0,0,0,312,16H248a8.00039,8.00039,0,0,0-8,8V88a8.00039,8.00039,0,0,0,8,8h51.05566L312,121.88867V310.7002l-7.58984,22.76953A8.0151,8.0151,0,0,0,304,336V464a32.03667,32.03667,0,0,0,32,32h16a32.03667,32.03667,0,0,0,32-32V336a8.0151,8.0151,0,0,0-.41016-2.53027L376,310.7002V121.88867L388.94434,96H440a8.00039,8.00039,0,0,0,8-8V64A8.00052,8.00052,0,0,0,442.38574,56.36426ZM328,128h32V304H328Zm40,336a16.01833,16.01833,0,0,1-16,16H336a16.01833,16.01833,0,0,1-16-16V337.29785L325.76636,320h36.46728L368,337.29785Zm-4.94434-352H324.94434l-8-16h54.11132ZM432,80H256V32h54.7793L432,69.88184Z"/></svg>
