<svg id="Layer_1" enable-background="new 0 0 256 256" height="512" viewBox="0 0 256 256" width="512" xmlns="http://www.w3.org/2000/svg"><g><path d="m31.016 13.898v228.204c0 3.957 3.208 7.164 7.164 7.164h167.541c3.957 0 7.164-3.208 7.164-7.164v-228.204c0-3.957-3.208-7.164-7.164-7.164h-167.541c-3.957 0-7.164 3.208-7.164 7.164z" fill="#f2e1d6"/><path d="m200.126 239.766h-132.662c-1.381 0-2.5-1.119-2.5-2.5s1.119-2.5 2.5-2.5h130.162v-210.838c0-1.381 1.119-2.5 2.5-2.5s2.5 1.119 2.5 2.5v213.338c0 1.381-1.119 2.5-2.5 2.5zm-142.662 0h-11.947c-1.381 0-2.5-1.119-2.5-2.5s1.119-2.5 2.5-2.5h11.948c1.381 0 2.5 1.119 2.5 2.5s-1.12 2.5-2.501 2.5z" fill="#fff"/><path d="m212.886 17.48v43.547h23.145v-25.362z" fill="#13bf6d"/><path d="m212.886 61.027v43.548h23.145v-25.363z" fill="#72c1e8"/><path d="m212.886 104.575v43.547h23.145v-25.363z" fill="#f0c020"/><path d="m212.886 148.122v43.547h23.145v-25.363z" fill="#fc5d3d"/><path d="m212.886 191.669v43.547h23.145v-25.363z" fill="#4c4945"/><path d="m98.376 85.661c-3.891 4.814-6.713 10.537-8.05 16.808-4.433-1.956-7.253-2.219-15.017-3.544-2.928-9.16-1.805-19.51 3.945-28.135 11.736 7.825 15.026 9.494 19.122 14.871z" fill="#13bf6d"/><path d="m175.01 110.907c0 8.505-2.648 16.407-7.194 22.893h-57.887c.308-7.274-1.845-14.228-5.79-19.924-3.396-4.934-8.143-8.932-13.813-11.406 1.337-6.271 4.159-11.995 8.05-16.808 7.355-9.079 18.587-14.87 31.17-14.87h5.349c22.157-.001 40.115 17.958 40.115 40.115z" fill="#b35034"/><path d="m162.737 128.988c-1.209-.667-1.647-2.188-.98-3.397.684-1.238 1.284-2.534 1.785-3.854.489-1.292 1.933-1.94 3.224-1.451 1.291.49 1.94 1.933 1.451 3.224-.584 1.541-1.285 3.054-2.083 4.498-.668 1.209-2.188 1.647-3.397.98zm5.069-13.612c-1.378-.081-2.43-1.264-2.349-2.643.036-.606.053-1.215.053-1.827 0-16.881-13.734-30.616-30.615-30.616-1.381 0-2.5-1.119-2.5-2.5s1.119-2.5 2.5-2.5c19.638 0 35.615 15.977 35.615 35.616 0 .71-.021 1.417-.062 2.121-.081 1.378-1.264 2.43-2.642 2.349z" fill="#ffcbc2"/><path d="m160.301 110.907c0 10.069-5.884 18.787-14.402 22.893h-35.97c.308-7.274-1.845-14.228-5.79-19.924v-2.969c0-14.014 11.393-25.407 25.407-25.407h5.349c14.013 0 25.406 11.393 25.406 25.407z" fill="#fc5d3d"/><path d="m118.845 110.907c0-5.911 4.792-10.703 10.703-10.703h4.961c5.695 0 10.676 4.288 11.056 9.97.417 6.232-4.534 11.435-10.678 11.435h-5.338c-5.912 0-10.704-4.791-10.704-10.702z" fill="#f0c020"/><circle cx="134.707" cy="60.838" fill="#fc5d3d" r="9.953"/><path d="m104.139 113.875c-3.396-4.934-8.143-8.932-13.813-11.406-4.433-1.956-7.253-2.219-15.017-3.544l-5.951-1.016c-2.634 15.471 6.031 30.247 20.004 35.89h20.566c.309-7.274-1.844-14.227-5.789-19.924z" fill="#13bf6d"/><path d="m180.439 133.8h-70.51c-17.824 0-29.06 0-46.467 0-1.966 0-3.263 2.059-2.407 3.838l7.1 14.642c1.11 2.313 3.45 3.771 6.017 3.771h95.555c2.567 0 4.908-1.457 6.017-3.771l7.1-14.642c.858-1.779-.439-3.838-2.405-3.838z" fill="#fff"/><circle cx="168.72" cy="249.27" r="2.5"/><path d="m19.969 216.591c-1.381 0-2.5 1.119-2.5 2.5s1.119 2.5 2.5 2.5h8.551v20.509c0 5.33 4.33 9.66 9.66 9.67h120.54c1.38 0 2.5-1.13 2.5-2.5 0-1.38-1.12-2.5-2.5-2.5h-120.54c-2.57-.01-4.66-2.1-4.66-4.67v-20.509h8.201c1.381 0 2.5-1.119 2.5-2.5s-1.119-2.5-2.5-2.5h-8.201v-31.437h8.201c1.381 0 2.5-1.119 2.5-2.5s-1.119-2.5-2.5-2.5h-8.201v-31.437h8.201c1.381 0 2.5-1.119 2.5-2.5s-1.119-2.5-2.5-2.5h-8.201v-31.437h8.201c1.381 0 2.5-1.119 2.5-2.5s-1.119-2.5-2.5-2.5h-8.201v-31.435h8.201c1.381 0 2.5-1.119 2.5-2.5s-1.119-2.5-2.5-2.5h-8.201v-31.436h8.201c1.381 0 2.5-1.119 2.5-2.5s-1.119-2.5-2.5-2.5h-8.201v-20.509c0-2.57 2.09-4.66 4.66-4.67h167.54c2.57.01 4.66 2.1 4.67 4.67v228.2c-.01 2.57-2.1 4.66-4.67 4.67h-27c-1.38 0-2.5 1.12-2.5 2.5 0 1.37 1.12 2.5 2.5 2.5h27c5.33-.01 9.66-4.34 9.66-9.67v-4.384h20.651c1.381 0 2.5-1.119 2.5-2.5v-25.363c0-.767-.352-1.492-.956-1.966l-17.461-13.718h15.917c1.381 0 2.5-1.119 2.5-2.5v-25.363c0-.767-.352-1.492-.956-1.966l-17.461-13.718h15.917c1.381 0 2.5-1.119 2.5-2.5v-25.363c0-.767-.352-1.492-.956-1.966l-17.461-13.718h15.917c1.381 0 2.5-1.119 2.5-2.5v-25.364c0-.767-.352-1.492-.956-1.966l-17.461-13.718h15.917c1.381 0 2.5-1.119 2.5-2.5v-25.362c0-.767-.352-1.492-.956-1.966l-22.195-17.438v-2.361c0-5.33-4.33-9.66-9.66-9.67h-167.54c-5.33.01-9.66 4.34-9.66 9.67v20.509h-8.551c-1.381 0-2.5 1.119-2.5 2.5s1.119 2.5 2.5 2.5h8.551v31.437h-8.551c-1.381 0-2.5 1.119-2.5 2.5s1.119 2.5 2.5 2.5h8.551v31.437h-8.551c-1.381 0-2.5 1.119-2.5 2.5s1.119 2.5 2.5 2.5h8.551v31.437h-8.551c-1.381 0-2.5 1.119-2.5 2.5s1.119 2.5 2.5 2.5h8.551v31.437h-8.551c-1.381 0-2.5 1.119-2.5 2.5s1.119 2.5 2.5 2.5h8.551v31.437h-8.551zm213.562 16.125h-18.146v-35.903l18.146 14.256zm0-43.547h-18.146v-35.904l18.146 14.256zm0-43.547h-18.146v-35.903l18.146 14.256zm0-43.547h-18.146v-35.904l18.146 14.256zm-18.145-79.451 18.146 14.256v21.647h-18.146z"/><path d="m134.51 97.7h-4.96c-7.28.01-13.2 5.93-13.2 13.21s5.92 13.2 13.2 13.2h5.34c7.55-.01 13.671-6.404 13.17-14.1-.495-7.01-6.483-12.289-13.55-12.31zm.38 21.41h-5.34c-4.52-.01-8.2-3.69-8.21-8.2.01-4.52 3.69-8.2 8.21-8.21h4.96c4.47 0 8.31 3.43 8.56 7.64.259 5.035-3.675 8.76-8.18 8.77z"/><circle cx="88.32" cy="156.05" r="2.5"/><path d="m169.73 158.55c3.51 0 6.76-2.04 8.27-5.19l7.1-14.63c1.653-3.448-.875-7.404-4.66-7.43h-8.133c3.416-6.211 5.203-13.174 5.203-20.39 0-8.03-2.24-15.85-6.48-22.61-.71-1.13-2.31-1.51-3.45-.79-1.17.73-1.52 2.28-.79 3.44 0 .01 0 .01.01.01 3.73 5.97 5.71 12.87 5.71 19.95 0 7.29-2.08 14.34-6.02 20.39h-12.582c5.882-5.478 8.892-12.881 8.892-20.39 0-15.39-12.52-27.91-27.9-27.91h-5.35c-14.173 0-25.903 10.62-27.671 24.319-2.396-2.353-5.462-4.614-8.64-6.234 4.33-15.971 18.831-27.795 36.312-27.795h5.35c6.48 0 12.86 1.68 18.47 4.84 1.16.66 2.75.21 3.41-.94.67-1.21.25-2.73-.95-3.41-3.736-2.112-7.786-3.622-11.978-4.521 2.046-2.22 3.308-5.172 3.308-8.418 0-5.255-3.275-9.745-7.883-11.571l2.503-14.239c.24-1.36-.67-2.66-2.03-2.9-1.35-.24-2.65.69-2.89 2.03l-2.503 14.248c-6.706.189-12.097 5.681-12.097 12.432 0 2.906 1.009 5.579 2.686 7.701-10.155 1.09-19.52 5.77-26.517 13.269-3.725-4.114-7.435-6.198-17.79-13.1-1.103-.736-2.657-.513-3.491.74-5.081 8.015-7.122 16.685-5.195 26.369l-2.174-.37c-1.35-.232-2.662.697-2.89 2.04-2.23 13.331 3.165 26.043 13.187 33.81h-16.617c-3.738.026-6.316 3.91-4.66 7.42l7.11 14.65c1.51 3.15 4.75 5.18 8.26 5.18h4.15c1.38 0 2.5-1.12 2.5-2.5s-1.12-2.5-2.5-2.5h-4.15c-1.62 0-3.07-.9-3.76-2.35l-7.11-14.65c-.037-.151.061-.25.16-.25h116.98c.114 0 .21.129.15.25l-7.09 14.64c-.7 1.45-2.15 2.36-3.77 2.36h-71.41c-1.38 0-2.5 1.12-2.5 2.5s1.12 2.5 2.5 2.5zm-35.02-105.17c4.1.01 7.44 3.36 7.45 7.46-.01 4.1-3.35 7.44-7.45 7.45-4.1-.01-7.45-3.35-7.46-7.45.01-4.1 3.36-7.45 7.46-7.46zm-27.4 76.215c-11.706-6.652-23.204-17.812-31.878-28.113 17.141 2.903 30.259 11.016 31.878 28.113zm-12.12-43.895c-2.051 2.799-3.847 5.992-5.198 9.355-2.341-5.917-4.65-12.359-6.512-18.471 6.178 4.075 8.995 5.935 11.71 9.116zm-16.663-8.241c1.429 4.741 3.816 11.994 7.377 20.865-2.267-.562-4.738-.952-8.634-1.604-1.696-6.333-1.28-13.085 1.257-19.261zm-7.1 27.018c8.193 9.794 18.45 19.858 29.099 26.823h-10.666c-10.912-4.606-18.046-15.06-18.433-26.823zm41.013 26.823c-.204-6.261-2.196-12.722-5.8-18.19v-2.2c.02-12.61 10.3-22.89 22.91-22.91h5.35c12.6.02 22.88 10.3 22.9 22.91 0 8.63-4.78 16.44-12.49 20.39z"/><path d="m164.41 83.63c.96-1 .92-2.59-.08-3.54-.96-.92-2.61-.88-3.53.08-.981 1.045-.891 2.61.08 3.54 1.02.956 2.582.909 3.53-.08z"/><path d="m94.301 176.644h-21.625c-1.381 0-2.5 1.119-2.5 2.5s1.119 2.5 2.5 2.5h21.625c1.381 0 2.5-1.119 2.5-2.5s-1.119-2.5-2.5-2.5z"/><path d="m94.301 190.355h-21.625c-1.381 0-2.5 1.119-2.5 2.5s1.119 2.5 2.5 2.5h21.625c1.381 0 2.5-1.119 2.5-2.5s-1.119-2.5-2.5-2.5z"/><path d="m94.301 204.066h-21.625c-1.381 0-2.5 1.119-2.5 2.5s1.119 2.5 2.5 2.5h21.625c1.381 0 2.5-1.119 2.5-2.5s-1.119-2.5-2.5-2.5z"/><path d="m171.226 176.644h-61.922c-1.381 0-2.5 1.119-2.5 2.5s1.119 2.5 2.5 2.5h61.922c1.381 0 2.5-1.119 2.5-2.5s-1.119-2.5-2.5-2.5z"/><path d="m171.226 190.355h-61.922c-1.381 0-2.5 1.119-2.5 2.5s1.119 2.5 2.5 2.5h61.922c1.381 0 2.5-1.119 2.5-2.5s-1.119-2.5-2.5-2.5z"/><path d="m109.304 209.066h61.922c1.381 0 2.5-1.119 2.5-2.5s-1.119-2.5-2.5-2.5h-61.922c-1.381 0-2.5 1.119-2.5 2.5s1.119 2.5 2.5 2.5z"/></g></svg>