<svg height="512" viewBox="0 0 64 64" width="512" xmlns="http://www.w3.org/2000/svg"><g id="Filled_outline" data-name="Filled outline"><path d="m56 29-16-4-11-11v-11l-23 4v12l-3 8 2 6h19l12 4h25v-2c0-2.536-1.625-4.938-5-6z" fill="#e1462b"/><path d="m21 4.391v12.609l15 15h6l2-6-4-1-11-11v-11z" fill="#ffd782"/><circle cx="12" cy="55" fill="#f9bb4b" r="6"/><circle cx="12" cy="55" fill="#f4f4e6" r="2"/><circle cx="50" cy="55" fill="#f9bb4b" r="6"/><circle cx="50" cy="55" fill="#f4f4e6" r="2"/><path d="m36 37-12-4h-21v8h20v-4l12 4h26v-4z" fill="#f9bb4b"/><path d="m3 41h58v4h-58z" fill="#87cee9"/><path d="m19 49h-14l-2-4h18z" fill="#32b1cc"/><path d="m57 49h-14l-2-4h18z" fill="#32b1cc"/><g fill="#f4f4e6"><path d="m3 36h6v2h-6z"/><path d="m11 36h2v2h-2z"/><path d="m15 36h2v2h-2z"/></g><path d="m12 25c-5 0-6-6-6-6l-3 8 2 6h15a7.887 7.887 0 0 0 -8-8z" fill="#ffd782"/><path d="m6 7v11l10.222-12.778z" fill="#ffd782"/><path d="m12 58a3 3 0 1 0 -3-3 3 3 0 0 0 3 3zm0-4a1 1 0 1 1 -1 1 1 1 0 0 1 1-1z"/><path d="m50 58a3 3 0 1 0 -3-3 3 3 0 0 0 3 3zm0-4a1 1 0 1 1 -1 1 1 1 0 0 1 1-1z"/><path d="m2.069 45.344c.009.022.03.091.036.1l2 4a1 1 0 0 0 .895.556h2.111a7 7 0 1 0 9.778 0h2.111a1 1 0 0 0 .895-.553l1.723-3.447h18.764l1.723 3.447a1 1 0 0 0 .895.553h2.111a7 7 0 1 0 9.778 0h2.111a1 1 0 0 0 .9-.553l1.718-3.447h1.382a1 1 0 0 0 1-1v-10c0-3.23-2.131-5.83-5.7-6.954l-.058-.016-15.73-3.93-10.512-10.514v-.337c2.431 2.071 7.006 5.495 10.721 5.495a5.523 5.523 0 0 0 .578-.03 4.664 4.664 0 0 0 3.533-2.159 3.084 3.084 0 0 0 .367-3.417c-.834-1.464-3.2-2.279-5.892-2.722 2.16-.666 3.913-1.6 4.413-2.909.277-.727.327-1.874-1.013-3.214a5.122 5.122 0 0 0 -4.166-1.579c-3.25.256-6.564 3.322-8.541 5.509v-5.223a1 1 0 0 0 -1.171-.985l-23 4a1 1 0 0 0 -.829.985v11.819l-2.937 7.83a1 1 0 0 0 -.011.667l1.561 4.684h-.613a1 1 0 0 0 -1 1v12a2.061 2.061 0 0 0 .069.344zm14.931 9.656a5 5 0 1 1 -5-5 5.006 5.006 0 0 1 5 5zm1.382-7h-12.764l-1-2h14.764zm36.618 7a5 5 0 1 1 -5-5 5.006 5.006 0 0 1 5 5zm1.382-7h-12.764l-1-2h14.764zm3.618-4h-56v-2h56zm-56-6h5v-2h-5v-2h19.838l11.846 3.949a1 1 0 0 0 .316.051h24v2h-24.838l-11.846-3.949a1 1 0 0 0 -1.316.949v3h-18zm24.838 2h-4.838v-1.613zm31.162-5v1h-2v-1c0-1.035 0-3.188-3.758-3.97l-8-2-.484 1.94 8.042 2.009c2.2.459 2.2 1.221 2.2 2.021v1h-19.838l-11.846-3.949a1 1 0 0 0 -.316-.051h-3.063a8.872 8.872 0 0 0 -8.937-8c-3.881 0-4.88-4.472-5-5.092v-.557l9.767-12.208 3.233-.563v11.42a1 1 0 0 0 .293.707l15 15a1 1 0 0 0 .707.293h6a1 1 0 0 0 .948-.684l1.707-5.116 11.073 2.768c2.672.846 4.272 2.732 4.272 5.032zm-16.539-20.872c.067.117.269.473-.293 1.317a2.711 2.711 0 0 1 -2.073 1.28c-2.8.294-6.938-2.6-9.568-4.8 5.01-.025 10.994.552 11.934 2.203zm-4.761-9.42c.1-.007.191-.011.283-.011a3.16 3.16 0 0 1 2.312 1.01c.263.263.685.754.558 1.086-.521 1.363-5.537 2.536-10.606 3.031 1.893-2.136 4.904-4.917 7.453-5.116zm-10.7 1.292h-4v2h4v2h-4v2h4v1.382l-3.447 1.723.894 1.79 3.353-1.678 1.286 1.283-2.793 2.793 1.414 1.414 2.793-2.793 1.586 1.586-2.793 2.793 1.414 1.414 2.793-2.793 1.586 1.586-2.793 2.793 1.414 1.414 2.793-2.793 1.283 1.286-1.683 3.353 1.79.894 1.641-3.282 2.174.543-1.426 4.292h-4.865l-14.414-14.414v-11.354l6-1.043zm-14.209.66-6.791 8.489v-7.308zm-9.73 20.36 1.9-5.065a6.719 6.719 0 0 0 6.039 4.045 6.8 6.8 0 0 1 6.923 6h-13.202z"/><path d="m11 36h2v2h-2z"/><path d="m15 36h2v2h-2z"/><path d="m10 17h2v2h-2z"/><path d="m14 20h2v2h-2z"/></g></svg>