<svg height="512" viewBox="0 0 64 64" width="512" xmlns="http://www.w3.org/2000/svg"><g id="Filled_outline" data-name="Filled outline"><path d="m13 43h6a0 0 0 0 1 0 0v4a0 0 0 0 1 0 0h-8a0 0 0 0 1 0 0v-2a2 2 0 0 1 2-2z" fill="#394d5c" transform="matrix(0 1 -1 0 60 30)"/><path d="m29 42v2h-12v5h17 6v-7z" fill="#2d75bb"/><path d="m43 61h-26c-2.169 0-4.466-1.466-6-3l-6-9h49l-5 8c-1.466 2.513-3.091 4-6 4z" fill="#f9bb4b"/><path d="m5 49v-6c0-3.647 1.8-6.253 5-8l6-3v5l-4 2c-2.019 1.154-3 1.675-3 4v6z" fill="#7fcac9"/><path d="m29 12h11v12h-11z" fill="#ffd782"/><path d="m29 28h11v14h-11z" fill="#8ec13f"/><path d="m29 20h4a0 0 0 0 1 0 0 4 4 0 0 1 -4 4 0 0 0 0 1 0 0v-4a0 0 0 0 1 0 0z" fill="#e33e5c"/><path d="m36 12h4a0 0 0 0 1 0 0v6a0 0 0 0 1 0 0 4 4 0 0 1 -4-4v-2a0 0 0 0 1 0 0z" fill="#394d5c"/><rect fill="#c8d952" height="4" rx="2" width="15" x="27" y="8"/><path d="m40 8h-11l1-3c1-2 8-2 9 0z" fill="#8ec13f"/><rect fill="#4f97d5" height="4" rx="2" width="16" x="27" y="24"/><path d="m54 32h-14v-4h14l-2 2z" fill="#3d80b2"/><path d="m33.5 37-7.5 2-5-2v-5l5 2 7.5-2a2.5 2.5 0 0 1 2.5 2.5 2.5 2.5 0 0 1 -2.5 2.5z" fill="#c8d952"/><path d="m14 34c0-1.381 1.619-2 3-2a2 2 0 0 1 2-2 2 2 0 0 1 2 2v5h-5c-1.381 0-2-1.619-2-3z" fill="#2d75bb"/><path d="m10.293 58.707c.772.772 3.539 3.293 6.707 3.293h26c3.737 0 5.566-2.272 6.848-4.47l5-8a1 1 0 0 0 -.848-1.53h-13v-15h13a1 1 0 0 0 .707-1.707l-1.293-1.293 1.293-1.293a1 1 0 0 0 -.707-1.707h-10.184a2.966 2.966 0 0 0 .184-1 3 3 0 0 0 -3-3v-10.184a2.984 2.984 0 0 0 -.243-5.707l-.809-2.425a.876.876 0 0 0 -.053-.131c-.953-1.9-4.371-2.053-5.4-2.053s-4.442.148-5.395 2.053a.876.876 0 0 0 -.053.131l-.809 2.425a2.984 2.984 0 0 0 -.238 5.707v10.368a2.982 2.982 0 0 0 0 5.632v3.616l-1.937.516-4.163-1.663a2.992 2.992 0 0 0 -5.737-.263.984.984 0 0 0 -.621.087l-6.021 3.014c-3.664 2.003-5.521 4.989-5.521 8.877v6a1.838 1.838 0 0 0 .168.555l6 9a1 1 0 0 0 .125.152zm41.293-29.707-.293.293a1 1 0 0 0 0 1.414l.293.293h-10.586v-2zm-20.667-23.594c.268-.392 1.607-.906 3.581-.906s3.313.514 3.581.906l.531 1.594h-8.224zm-1.919 3.594h11a1 1 0 0 1 0 2h-11a1 1 0 0 1 0-2zm4 10h-3v-6h5v1a5.009 5.009 0 0 0 4 4.9v4.1h-6.026a4.948 4.948 0 0 0 1.026-3 1 1 0 0 0 -1-1zm-1.171 2a3.013 3.013 0 0 1 -1.829 1.829v-1.829zm5.171-7v-1h2v3.829a3.006 3.006 0 0 1 -2-2.829zm-8 11h12a1 1 0 0 1 0 2h-12a1 1 0 0 1 0-2zm1 16v-2.032l3.642-.968a3.5 3.5 0 0 0 -.142-7 1.021 1.021 0 0 0 -.258.034l-3.242.866v-2.9h9v12zm9 2v5h-21v-3h11a1 1 0 0 0 1-1v-1zm-17-9.523 3.629 1.452a1 1 0 0 0 .629.037l7.356-1.966a1.5 1.5 0 0 1 -.114 3c-.087 0-7.437 1.948-7.437 1.948l-4.063-1.625zm-6.667-.026.522-.261a3.741 3.741 0 0 1 1.145-.19 1 1 0 0 0 1-1 1 1 0 0 1 2 0v4h-4c-.683 0-1-1.193-1-2a.7.7 0 0 1 .333-.549zm.9 4.549h4.57l4.822 1.929a1.007 1.007 0 0 0 .375.071.983.983 0 0 0 .258-.034l1.742-.466v3.5h-10a3 3 0 0 0 -3-3h-2a1 1 0 0 0 -1 1v7h-2v-5c0-1.711.508-2 2.4-3.075zm-.233 5v5h-2v-6h1a1 1 0 0 1 1 1zm-10 0c0-3.145 1.466-5.475 4.448-7.1l2.591-1.3a4.6 4.6 0 0 0 .872 2.328l-2.5 1.26c-1.982 1.124-3.411 1.939-3.411 4.812v5h-2zm46.2 7-4.06 6.5c-1.494 2.551-2.886 3.5-5.14 3.5h-26c-1.873 0-3.912-1.351-5.225-2.639l-4.907-7.361z"/><path d="m40 53h7v2h-7z"/><path d="m14 55h18v2h-18z"/><path d="m43 40h17v2h-17z"/><path d="m46 44h14v2h-14z"/><path d="m32 15h2v2h-2z"/></g></svg>