<?xml version="1.0" encoding="iso-8859-1"?>
<!-- Generator: Adobe Illustrator 19.0.0, SVG Export Plug-In . SVG Version: 6.00 Build 0)  -->
<svg version="1.1" id="Capa_1" xmlns="http://www.w3.org/2000/svg" xmlns:xlink="http://www.w3.org/1999/xlink" x="0px" y="0px"
	 viewBox="0 0 512.001 512.001" style="enable-background:new 0 0 512.001 512.001;" xml:space="preserve">
<path style="fill:#FCD2BE;" d="M318.728,38.932v76.682c0,35.142,28.5,63.642,63.652,63.642c9.416,0,18.345-2.045,26.384-5.71v-0.01
	c19.449-8.869,33.654-27.245,36.661-49.195c2.825-0.992,5.477-2.612,7.745-4.88c8.019-8.008,8.019-21.008,0-29.017
	c-8.008-8.029-21.018-8.029-29.037,0l-5.346-30.647l-3.645-20.866C415.143,38.932,318.728,38.932,318.728,38.932z"/>
<path style="fill:#FAB998;" d="M408.764,173.536c19.449-8.869,33.654-27.245,36.661-49.195c2.825-0.992,5.477-2.612,7.745-4.88
	c8.019-8.008,8.019-21.008,0-29.017c-8.008-8.029-21.018-8.029-29.037,0l-5.346-30.647l-16.756,3.402
	C409.078,75.38,438.834,119.837,408.764,173.536z"/>
<path style="fill:#50515B;" d="M445.685,59.859v25.807c-7.259-2.653-15.713-1.053-21.545,4.779V75.046
	c-29.361,0-30.809-29.148-30.809-29.148c-20.299,20.289-74.597,13.962-74.597,13.962c0-14.336,5.811-27.316,15.207-36.711
	c9.385-9.385,22.365-15.197,36.701-15.197h23.134C422.439,7.952,445.685,31.187,445.685,59.859z"/>
<path style="fill:#393A42;" d="M445.685,59.859v25.807c-7.259-2.653-15.713-1.053-21.545,4.779V75.046
	c-4.222,0-7.857-0.597-11.005-1.64c5.528-29.908-7.948-65.454-33.259-65.454h13.901C422.439,7.952,445.685,31.187,445.685,59.859z"
	/>
<path style="fill:#00C7A9;" d="M333.052,332.459c0,0,39.02,19.51,78.525,11.876c14.782-2.845,29.634-9.497,42.533-22.395
	c0,0-15.865-106.286-45.337-148.394l-14.407,1.114l-29.118,2.258C365.248,194.818,355.164,288.246,333.052,332.459z"/>
<path style="fill:#04AF92;" d="M411.577,344.335c14.782-2.845,29.634-9.497,42.533-22.395c0,0-15.865-106.286-45.337-148.394
	l-14.407,1.114l-4.171,4.121C400.977,200.923,426.227,286.606,411.577,344.335z"/>
<path style="fill:#F9CE55;" d="M203.952,61.884l-97.205,30.12l-43.241,13.405C39.663,45.665,60.003,7.952,127.847,7.952
	C195.681,7.952,203.952,38.598,203.952,61.884z"/>
<path style="fill:#E2A11E;" d="M106.748,92.005l-43.241,13.405C39.663,45.665,60.003,7.952,127.847,7.952
	C103.731,14.826,88.453,65.175,106.748,92.005z"/>
<path style="fill:#FCD2BE;" d="M203.952,61.884v53.73c0,35.142-28.5,63.642-63.652,63.642c-5.194,0-10.246-0.618-15.075-1.802
	c-25.119-6.095-44.406-27.093-47.97-53.113c-2.825-0.992-5.477-2.612-7.745-4.88c-8.019-8.008-8.019-21.008,0-29.017
	c2.106-2.106,4.546-3.665,7.148-4.657c7.33-2.815,15.966-1.266,21.879,4.647c0-3.928,2.197-11.775,7.32-19.803
	C118.178,51.325,147.458,31.015,203.952,61.884z"/>
<path style="fill:#FAB998;" d="M125.225,177.455c-25.119-6.095-44.406-27.093-47.969-53.113c-2.825-0.992-5.477-2.612-7.745-4.88
	c-8.019-8.008-8.019-21.008,0-29.017c2.106-2.106,4.546-3.665,7.148-4.657c7.33-2.815,15.966-1.266,21.879,4.647
	c0-3.928,2.197-11.775,7.32-19.803C100.086,107.1,100.987,161.731,125.225,177.455z"/>
<path style="fill:#EF4A6E;" d="M203.78,371.692c-44.142,10.104-81.866,9.031-107.734,5.741c-23.357-2.977-37.045-7.765-37.045-7.765
	c0-134.655,52.161-197.457,52.161-197.457l11.572,1.276l33.623,3.726C163.09,253.681,203.78,371.692,203.78,371.692z"/>
<path style="fill:#D8254F;" d="M96.046,377.432c-23.357-2.977-37.045-7.765-37.045-7.765c0-134.655,52.161-197.457,52.161-197.457
	l11.572,1.276l2.491,3.969C125.225,177.455,78.288,278.041,96.046,377.432z"/>
<path style="fill:#E2A11E;" d="M54.122,67.946c-31.568-6.061-58.905,15.2-40.681,88.096c0,0,31.178-37.084,42.926-73.214"/>
<path d="M458.225,301.066c-0.768-4.124-4.74-6.841-8.856-6.074c-4.123,0.768-6.842,4.733-6.074,8.856
	c1.244,6.681,2.147,12.011,2.691,15.346c-17.489,15.854-40.595,22.007-68.735,18.298c-14.43-1.902-26.814-6.071-34.04-8.914
	c18.554-43.155,26.543-114.118,28.02-128.605c0.426-4.172-2.611-7.899-6.783-8.324c-4.182-0.432-7.899,2.612-8.324,6.783
	c-1.009,9.902-2.38,20.84-4.087,32.163c-2.526,7.987-8.668,14.673-16.124,18.684c-8.527,4.586-18.478,4.959-27.297,1.023
	c-7.214-3.22-14.651-7.156-22.106-11.7c-0.228-0.139-0.462-0.265-0.703-0.38c-11.083-5.246-20.73-4.63-28.055-2.312
	c-7.325-2.316-16.973-2.932-28.056,2.318c-0.24,0.113-0.474,0.24-0.701,0.379c-19.604,11.946-36.266,18.134-50.02,20.949
	c-5.325-21.837-10.055-44.359-12.952-64.907c-0.585-4.152-4.42-7.044-8.579-6.458c-4.153,0.585-7.045,4.426-6.458,8.579
	c2.895,20.522,7.564,42.932,12.836,64.703c-10.993,0.46-19.285-1.345-24.882-3.308c-13.125-4.605-22.815-13.908-27.284-26.197
	c-1.434-3.941-5.793-5.973-9.731-4.542c-3.941,1.434-5.974,5.79-4.541,9.732c6.053,16.648,19.026,29.198,36.529,35.337
	c8.103,2.843,16.91,4.247,26.262,4.247c2.424,0,4.891-0.115,7.386-0.304c10.084,39.219,21.286,74.315,26.326,89.612
	c-38.58,7.744-71.369,6.723-92.62,4.357c-16.265-1.81-28.286-4.644-34.64-6.382c0.986-89.059,25.166-144.924,39.701-170.554
	c2.068-3.648,0.789-8.282-2.859-10.351c-3.648-2.068-8.282-0.789-10.351,2.859c-15.577,27.468-41.709,87.857-41.709,183.687
	c0,3.227,2.039,6.101,5.084,7.167c1.314,0.46,18.02,6.158,45.455,8.986c4.463,29.039,3.931,70.854-19.833,114.603
	c-1.279,2.353-1.223,5.205,0.147,7.506c1.369,2.301,3.848,3.712,6.526,3.712h26.323c4.194,0,7.593-3.4,7.593-7.593
	c0-4.194-3.4-7.593-7.593-7.593h-13.998c19.362-41.576,20.249-80.762,16.345-109.453c4.914,0.247,10.068,0.391,15.459,0.391
	c5.949,0,12.188-0.178,18.67-0.561c4.292,28.998,3.506,70.355-19.986,113.592c-1.278,2.353-1.223,5.205,0.146,7.506
	c1.369,2.301,3.848,3.712,6.526,3.712h26.313c4.194,0,7.593-3.4,7.593-7.593c0-4.194-3.4-7.593-7.593-7.593h-13.985
	c19.684-42.258,20.276-82.062,16.152-110.876c12.207-1.302,25.159-3.382,38.719-6.486c2.101-0.481,3.898-1.832,4.944-3.716
	c1.046-1.884,1.242-4.124,0.54-6.161c-0.227-0.658-15.153-44.18-28.288-94.96c17.021-3.616,35.235-11.155,53.864-22.462
	c1.454-0.666,2.863-1.162,4.227-1.528c0.095,1.802,0.819,3.575,2.191,4.948c2.964,2.967,7.748,2.992,10.715,0.028
	c0.158-0.152,1.614-1.517,4.09-2.882c2.455,1.355,3.893,2.701,4.032,2.835c2.965,2.964,7.772,2.965,10.739,0
	c1.372-1.372,2.101-3.14,2.203-4.936c1.368,0.364,2.781,0.862,4.239,1.53c7.884,4.786,15.773,8.949,23.456,12.378
	c6.04,2.696,12.433,4.038,18.813,4.038c7.509,0,14.999-1.859,21.868-5.553c1.298-0.698,2.541-1.464,3.752-2.268
	c-5.222,26.322-12.149,51.777-20.599,68.678c-0.901,1.801-1.049,3.887-0.412,5.797c0.637,1.91,2.007,3.49,3.809,4.39
	c0.433,0.217,6.253,3.091,15.524,6.22c-3.294,8.763-8.141,24.147-10.6,43.986c-3.26,26.294-2.692,65.329,16.678,106.999h-13.995
	c-4.195,0-7.593,3.4-7.593,7.593c0,4.194,3.399,7.593,7.593,7.593h26.316c2.678,0,5.157-1.41,6.526-3.712
	c1.369-2.301,1.423-5.153,0.147-7.506c-18.338-33.759-25.293-70.269-20.672-108.514c2.36-19.528,7.306-34.546,10.262-42.228
	c4.641,1.105,9.661,2.086,14.962,2.802c5.994,0.81,11.833,1.213,17.504,1.213c9.07,0,17.693-1.055,25.825-3.095
	c-3.071,9.091-6.738,22.451-8.772,38.853c-3.26,26.294-2.692,65.329,16.678,106.999h-13.996c-4.195,0-7.593,3.4-7.593,7.593
	c0,4.194,3.399,7.593,7.593,7.593h26.316c2.678,0,5.157-1.41,6.526-3.712c1.369-2.301,1.423-5.153,0.147-7.506
	c-18.338-33.759-25.293-70.269-20.672-108.514c3.467-28.689,12.52-47.661,12.638-47.906c0.078-0.161,0.142-0.325,0.208-0.488
	c8.166-4.157,15.627-9.564,22.272-16.208c1.702-1.702,2.496-4.109,2.14-6.49C461.572,320.506,460.443,312.972,458.225,301.066z"/>
<path d="M380.647,100.742V90.215c0-4.194-3.399-7.593-7.593-7.593s-7.593,3.4-7.593,7.593v10.527c0,4.194,3.399,7.593,7.593,7.593
	S380.647,104.935,380.647,100.742z"/>
<path d="M353.277,100.742V90.215c0-4.194-3.399-7.593-7.593-7.593c-4.195,0-7.593,3.4-7.593,7.593v10.527
	c0,4.194,3.399,7.593,7.593,7.593C349.879,108.335,353.277,104.935,353.277,100.742z"/>
<path d="M362.577,148.697c0.217,4.05,3.567,7.188,7.575,7.188c0.137,0,0.274-0.004,0.411-0.011
	c14.583-0.779,25.732-7.211,32.242-18.601c2.082-3.641,0.816-8.28-2.825-10.36c-3.644-2.081-8.279-0.815-10.36,2.825
	c-3.931,6.879-10.429,10.468-19.865,10.971C365.567,140.933,362.354,144.51,362.577,148.697z"/>
<path d="M382.38,186.849c33.99,0,63.296-24.334,69.859-57.265c2.299-1.268,4.407-2.855,6.299-4.747
	c5.316-5.309,8.244-12.371,8.244-19.884s-2.928-14.575-8.237-19.877c-5.309-5.315-12.372-8.243-19.886-8.243
	c-2.367,0-4.69,0.291-6.927,0.854v-2.64c0-4.194-3.399-7.593-7.593-7.593c-21.257,0-23.089-19.73-23.224-21.936
	c-0.149-2.999-2.051-5.629-4.854-6.708c-2.802-1.079-5.975-0.408-8.101,1.716c-12.459,12.459-43.649,13.414-61.091,12.399
	c3.34-21.151,21.697-37.378,43.772-37.378h23.135c24.434,0,44.314,19.879,44.314,44.314c0,4.194,3.399,7.593,7.593,7.593
	c4.195,0,7.593-3.4,7.593-7.593c0-32.808-26.691-59.5-59.5-59.5h-23.135c-32.808,0-59.501,26.692-59.501,59.5
	c0,3.853,2.887,7.096,6.715,7.543c0.582,0.068,14.43,1.647,31.017,0.664c16.547-0.981,29.801-4.119,39.591-9.355
	c3.856,10.095,12.239,20.742,28.082,23.335v8.396c0,3.071,1.85,5.84,4.688,7.015c2.838,1.175,6.103,0.525,8.276-1.646
	c2.445-2.445,5.695-3.792,9.15-3.792c3.454,0,6.7,1.346,9.147,3.796c2.443,2.44,3.789,5.685,3.789,9.138
	c0,3.453-1.346,6.698-3.793,9.142c-1.395,1.396-3.038,2.43-4.883,3.075c-2.692,0.941-4.631,3.312-5.019,6.137
	c-3.778,27.568-27.648,48.356-55.521,48.356c-30.907,0-56.052-25.145-56.052-56.052V83.146c0-4.194-3.399-7.593-7.593-7.593
	s-7.593,3.4-7.593,7.593v32.465C311.142,154.891,343.098,186.849,382.38,186.849z"/>
<path d="M506.438,361.338c-6.89-1.914-11.605-8.156-11.467-15.183c0.893-45.816-15.697-80.335-29.77-101.226
	c-12.924-19.184-25.996-30.601-30.125-33.971c-2.81-7.855-5.842-15.414-9.094-22.328c-1.786-3.795-6.311-5.424-10.103-3.639
	c-3.795,1.785-5.424,6.309-3.64,10.103c12.024,25.56,21.047,60.933,26.499,86.107c0.77,3.557,3.916,5.988,7.414,5.988
	c0.532,0,1.073-0.057,1.615-0.173c4.098-0.888,6.701-4.93,5.813-9.029c-2.235-10.322-5.063-22.325-8.452-34.728
	c16.075,20.331,35.587,54.965,34.658,102.602c-0.272,13.96,9.016,26.342,22.587,30.111c0.68,0.189,1.365,0.279,2.037,0.279
	c3.326,0,6.379-2.202,7.313-5.563C512.843,366.646,510.477,362.46,506.438,361.338z"/>
<path d="M157.225,100.742V90.215c0-4.194-3.4-7.593-7.593-7.593s-7.593,3.4-7.593,7.593v10.527c0,4.194,3.4,7.593,7.593,7.593
	S157.225,104.935,157.225,100.742z"/>
<path d="M169.408,90.215v10.527c0,4.194,3.4,7.593,7.593,7.593c4.194,0,7.593-3.4,7.593-7.593V90.215c0-4.194-3.4-7.593-7.593-7.593
	C172.808,82.621,169.408,86.021,169.408,90.215z"/>
<path d="M133.064,129.739c-2.082-3.642-6.721-4.906-10.36-2.826c-3.641,2.081-4.906,6.719-2.826,10.36
	c6.508,11.39,17.657,17.822,32.241,18.601c0.138,0.007,0.274,0.011,0.411,0.011c4.007,0,7.36-3.14,7.576-7.188
	c0.224-4.187-2.99-7.763-7.177-7.987C143.493,140.206,136.996,136.618,133.064,129.739z"/>
<path d="M55.549,86.544c0.466,0,0.94-0.044,1.414-0.133c4.121-0.777,6.833-4.746,6.055-8.868
	c-4.667-24.774,1.542-42.346,18.458-52.225c3.622-2.115,4.843-6.765,2.728-10.387s-6.766-4.841-10.387-2.728
	C57.968,21.461,40.64,40.798,48.094,80.355C48.782,84.002,51.969,86.544,55.549,86.544z"/>
<path d="M100.971,18.108c7.856-1.7,16.897-2.562,26.872-2.562c51.763,0,64.42,18.536,67.515,33.579
	c-22.909-10.29-51.501-16.687-75.688-2.342c-13.715,8.134-22.302,21.005-26.222,31.678c-6.204-2.205-13.119-2.215-19.495,0.233
	c-3.677,1.402-6.979,3.55-9.809,6.379c-5.315,5.308-8.241,12.369-8.241,19.881c0,7.512,2.927,14.573,8.237,19.877
	c1.893,1.893,4.001,3.482,6.298,4.751c6.561,32.933,35.869,57.268,69.861,57.268c39.285,0,71.246-31.956,71.246-71.235V84.888
	c0-4.194-3.4-7.593-7.593-7.593c-4.194,0-7.593,3.4-7.593,7.593v30.728c0,30.906-25.148,56.049-56.059,56.049
	c-27.874,0-51.743-20.787-55.521-48.353c-0.387-2.822-2.321-5.189-5.007-6.133c-1.849-0.649-3.495-1.688-4.895-3.088
	c-2.442-2.439-3.787-5.683-3.787-9.135s1.345-6.697,3.79-9.138c1.311-1.31,2.82-2.297,4.501-2.938
	c4.768-1.83,10.178-0.681,13.732,2.871c0.002,0.003,0.005,0.006,0.008,0.009c0.005,0.005,0.01,0.01,0.014,0.014
	c0.001,0.001,0.002,0.002,0.003,0.003c0.014,0.014,0.028,0.029,0.043,0.043l0.001,0.001c0.002,0.002,0.003,0.003,0.005,0.005
	c0.001,0.001,0.003,0.003,0.004,0.004c2.935,2.923,7.684,2.955,10.659,0.053c1.59-1.55,2.354-3.628,2.287-5.685
	c0.097-2.118,1.416-7.303,4.743-13.189c2.851-5.046,8.036-12.12,16.537-17.162c17.872-10.6,43.078-7.59,72.894,8.703
	c2.352,1.286,5.208,1.235,7.515-0.133c2.305-1.368,3.72-3.849,3.72-6.531c0-17.625-4.852-31.057-14.834-41.062
	c-13.739-13.77-36.266-20.463-68.868-20.463c-11.054,0-21.176,0.978-30.085,2.906c-4.098,0.887-6.702,4.929-5.815,9.028
	C92.83,16.391,96.869,18.995,100.971,18.108z"/>
<path d="M48.322,102.736c-3.7-1.976-8.3-0.579-10.275,3.12c-6.78,12.694-14.597,24.271-20.608,32.544
	c-6.17-35.61,0.458-58.228,18.902-62.903c4.066-1.031,6.525-5.161,5.496-9.226c-1.03-4.065-5.161-6.526-9.225-5.496
	c-10.033,2.543-23.275,9.775-29.389,29.79c-5.101,16.695-4.141,39.344,2.853,67.317c0.691,2.768,2.877,4.914,5.657,5.556
	c0.568,0.132,1.141,0.195,1.709,0.195c2.213,0,4.351-0.97,5.812-2.707c0.738-0.878,18.244-21.809,32.189-47.917
	C53.417,109.312,52.02,104.712,48.322,102.736z"/>
<g>
</g>
<g>
</g>
<g>
</g>
<g>
</g>
<g>
</g>
<g>
</g>
<g>
</g>
<g>
</g>
<g>
</g>
<g>
</g>
<g>
</g>
<g>
</g>
<g>
</g>
<g>
</g>
<g>
</g>
</svg>
