<svg id="Capa_1" enable-background="new 0 0 495.012 495.012" height="512" viewBox="0 0 495.012 495.012" width="512" xmlns="http://www.w3.org/2000/svg"><g><g><path d="m62.443 190.705v266.807c0 16.569 13.431 30 30 30h209.999c16.569 0 30-13.431 30-30v-28.932h38.964c22.483 0 42.319-15.149 48.237-36.839l28.63-104.938c4.136-15.161 1.038-31.019-8.5-43.508-9.539-12.489-24.022-19.652-39.737-19.652h-67.594v-32.938zm347.24 85.57-28.63 104.938c-1.184 4.338-5.151 7.368-9.647 7.368h-39.088v-124.939h67.719c4.303 0 6.826 2.462 7.947 3.93 1.12 1.469 2.832 4.551 1.699 8.703z" fill="#e17272"/><g fill="#dd514d"><path d="m312.317 263.642h20v124.938h-20z"/><path d="m312.442 190.705h20v32.938h-20z"/><path d="m439.773 243.295c-9.539-12.489-24.022-19.652-39.737-19.652h-20c15.715 0 30.198 7.163 39.737 19.652 9.538 12.489 12.636 28.348 8.5 43.508l-28.63 104.938c-5.918 21.69-25.754 36.839-48.237 36.839h20c22.483 0 42.319-15.149 48.237-36.839l28.63-104.938c4.136-15.161 1.038-31.019-8.5-43.508z"/><path d="m312.442 457.512c0 16.569-13.431 30-30 30h20c16.569 0 30-13.431 30-30v-28.932h-20z"/></g><path d="m185.946 168.6 14.371-6.619v-5.339c0-11.046-8.954-20-20-20h-80c-11.046 0-20 8.954-20 20v34.062h94.404c-1.791-8.879 2.639-18.149 11.225-22.104z" fill="#fef2e2"/><path d="m180.317 136.642h-20c11.046 0 20 8.954 20 20v15.833c1.595-1.564 3.482-2.886 5.629-3.875l14.371-6.619v-5.339c0-11.045-8.954-20-20-20z" fill="#ffe1ba"/><path d="m306.225 190.705-21.083-45.774c-4.621-10.032-16.5-14.42-26.533-9.799l-72.663 33.468c-8.586 3.955-13.016 13.225-11.225 22.104h131.504z" fill="#fef2e2"/><path d="m265.142 148.931 19.241 41.774h21.842l-21.083-45.774c-4.621-10.032-16.5-14.42-26.533-9.799l-6.298 2.901c5.473 1.519 10.269 5.336 12.831 10.898z" fill="#ffe1ba"/><path d="m262.317 378.58-21.979-45.716h11.979l-55-89.222-55 89.222h12.064l-22.064 45.716z" fill="#bce59c"/><path d="m240.338 332.864h11.979l-55-89.222-10 16.223 34.98 56.944h-11.98l32 61.771h20z" fill="#83cb8e"/></g><g><path d="m412.408 389.767c-5.03 18.437-21.891 31.313-41.002 31.313h-46.464v36.432c0 12.407-10.093 22.5-22.5 22.5h-210c-12.407 0-22.5-10.093-22.5-22.5v-46.221h-15v46.221c0 20.678 16.822 37.5 37.5 37.5h210c20.678 0 37.5-16.822 37.5-37.5v-21.432h31.464c25.856 0 48.667-17.421 55.473-42.365l19.142-70.161-14.471-3.948z"/><path d="m388.289 383.187 28.63-104.938c1.448-5.306.364-10.856-2.975-15.229-3.339-4.371-8.408-6.878-13.908-6.878h-75.219v139.938h46.588c7.87 0 14.812-5.302 16.884-12.893zm-48.472-112.044h60.219c.37 0 1.236 0 1.986.981.75.983.522 1.819.425 2.176l-28.63 104.938c-.292 1.067-1.306 1.842-2.412 1.842h-31.588z"/><path d="m445.733 238.743c-10.969-14.363-27.625-22.6-45.697-22.6h-60.094v-17.938h17.375v-15h-46.29l-19.074-41.412c-3.073-6.671-8.56-11.747-15.451-14.292-6.892-2.546-14.36-2.254-21.032.819l-48.335 22.263c-2.768-12.257-13.738-21.441-26.819-21.441h-80c-15.164 0-27.5 12.336-27.5 27.5v26.562h-35.374v15h17.5v198.438h15v-198.437h51.042v-15h-33.167v-26.562c0-6.893 5.607-12.5 12.5-12.5h80c6.893 0 12.5 5.607 12.5 12.5v.536l-10.009 4.61c-8.813 4.059-14.584 12.232-15.758 21.417h-31.191v15h189.083v32.938h75.094c13.357 0 25.668 6.088 33.776 16.705 8.107 10.616 10.741 24.095 7.225 36.982l-5.396 19.777 14.471 3.948 5.396-19.777c4.757-17.437 1.194-35.674-9.775-50.036zm-256.649-63.33 72.663-33.468c3.032-1.397 6.429-1.53 9.56-.372 3.132 1.156 5.626 3.463 7.023 6.496l16.183 35.136h-112.177c.991-3.361 3.377-6.24 6.748-7.792z"/><path d="m173.665 68.599c7.666 4.469 11.277 7.012 11.277 11.011 0 4.784-4.533 11.492-12.437 18.403l9.874 11.292c11.654-10.191 17.563-20.182 17.563-29.695 0-13.054-10.821-19.363-18.723-23.97-7.666-4.469-11.277-7.012-11.277-11.011 0-4.783 4.533-11.489 12.437-18.4l-9.873-11.292c-11.654 10.189-17.563 20.18-17.563 29.692-.001 13.055 10.821 19.363 18.722 23.97z"/><path d="m226.54 53.662c7.666 4.469 11.277 7.012 11.277 11.011 0 4.784-4.533 11.492-12.437 18.403l9.874 11.292c11.654-10.191 17.563-20.182 17.563-29.695 0-13.054-10.821-19.363-18.723-23.97-7.666-4.469-11.277-7.012-11.277-11.011 0-4.783 4.533-11.489 12.437-18.4l-9.873-11.292c-11.654 10.189-17.563 20.18-17.563 29.692-.001 13.054 10.821 19.363 18.722 23.97z"/><path d="m189.817 386.08v30.562h15v-30.562h69.428l-21.979-45.716h13.486l-68.435-111.014-68.434 111.014h13.55l-22.063 45.716zm-30.728-45.716h51.228v-15h-54.566l41.566-67.429 41.566 67.429h-10.473l21.979 45.716h-106.124z"/><path d="m236.941 457.546h-15v-15h15zm-30 0h-15v-15h15zm-30 0h-15v-15h15z" fill="#fff"/></g></g></svg>