<?xml version="1.0" encoding="iso-8859-1"?>
<!-- Generator: Adobe Illustrator 19.0.0, SVG Export Plug-In . SVG Version: 6.00 Build 0)  -->
<svg version="1.1" id="Capa_1" xmlns="http://www.w3.org/2000/svg" xmlns:xlink="http://www.w3.org/1999/xlink" x="0px" y="0px"
	 viewBox="0 0 511.999 511.999" style="enable-background:new 0 0 511.999 511.999;" xml:space="preserve">
<path style="fill:#31D1F6;" d="M240.614,5.266c-6.123-0.422-15.053,3.791-19.719,7.534c-6.167,4.947-10.664,12.057-12.965,19.55
	c-1.395,4.544-1.917,9.873-1.87,14.616c0.014,1.343-0.517,3.941,0.928,4.751c0.926,0.519,6.823-1.248,8.167-1.444
	c10.452-1.522,20.665-2.736,31.2-3.211c8.494-0.383,16.969-1.969,25.498-1.603c6.068,0.26,14.339,2.273,20.303,0.574
	c2.61-0.743,2.569-1.016,2.267-3.581c-0.425-3.61-2.681-7.319-3.838-10.741c-3.081-9.108-8.984-19.053-17.02-24.581
	C263.931,0.501,249.38,2.209,240.614,5.266z"/>
<g>
	<path style="fill:#F9F9F2;" d="M192.866,287.042c-4.792,8.181-12.412,15.939-19.152,22.585c-3.484,3.435-6.412,7.611-9.248,11.581
		c-3.62,5.068-7.912,9.758-11.332,14.92c-3.193,4.819-5.684,9.197-7.755,14.512c-1.863,4.782-2.315,9.993-4.389,14.663
		c-3.429,7.718-8.587,14.978-13.444,21.833c-11.1,15.666-25.248,44.773-2.207,56.659c8.115,4.186,19.495,5.235,26.659,10.898
		c5.641,4.459,6.611,9.881,14.129,11.646c6.358,1.492,12.604,3.388,19.122,3.734c6.025,0.32,9.279,3.607,14.145,6.879
		c5.426,3.648,11.131,6.321,17.746,6.753c9.642,0.63,19.122-2.121,27.949-5.671c7.348-2.955,11.766-2.317,18.77,0.941
		c13.066,6.079,29.998,6.258,43.562,2.042c9.829-3.055,18.432-8.456,28.619-10.526c22.23-4.517,45.904-17.645,60.984-34.849
		c3.632-4.143,6.819-9.915,6.945-15.565c0.113-5.044-3-8.932-5.993-12.732c-10.471-13.295-22.829-26.647-27.548-43.272
		c-2.515-8.857-1.975-17.092-7.304-25.141c-2.255-3.406-5.343-6.003-8.324-8.725c-3.76-3.434-6.546-7.611-9.849-11.48
		c-6.401-7.498-11.299-15.968-18.116-23.17c-5.796-6.123-6.793-14.43-16.344-9.529c-10.498,5.387-19.803,12.708-32.495,12.668
		c-7.836-0.025-15.6-0.618-23.288-2.113c-13.247-2.577-26.059-7.062-39.27-10.115c-4.785-1.106-9.124-1.777-13.994-2.003
		c-1.809-0.084-4.451-1.007-6.186-0.717C192.577,284.198,191.885,286.719,192.866,287.042z"/>
	<path style="fill:#F9F9F2;" d="M300.299,128.406c7.562-7.411,17.519-13.574,26.399-19.485c7.581-5.047,14.424-11.072,21.978-16.012
		c3.921-2.564,8.383-4.798,12.924-6.212c4.022-1.252,8.132-0.963,12.19-2.419c5.373-1.927,9.024-5.425,13.767-8.354
		c5.275-3.258,11.892-5.448,17.892-6.913c6.475-1.581,14.621-2.518,20.266,1.858c5.829,4.519,6.842,16.12,6.536,22.949
		c-0.202,4.51-0.135,7.607,1.923,11.735c4.967,9.966,8.461,23.123,6.267,34.3c-1.721,8.768-5.944,15.775-5.402,25.098
		c0.575,9.89,3.553,18.764-1.305,28.105c-4.466,8.587-10.323,20.083-20.7,21.115c-6.261,0.623-11.23,1.423-17.513-0.285
		c-6.611-1.798-13.378-3.615-19.94-5.615c-5.704-1.738-11.349-4.194-17.155-5.562c-5.425-1.278-10.94-1.863-16.393-3.288
		c-5.26-1.374-10.982-3.915-15.616-6.762c-5.18-3.182-11.443-4.709-15.984-8.955c-7.712-7.211-10.551-17.855-12.981-27.684
		c-1.16-4.691-1.993-9.312-1.528-14.169C296.515,135.655,299.67,132.593,300.299,128.406z"/>
	<path style="fill:#F9F9F2;" d="M205.745,126.207c-5.278-3.884-11.968-5.58-17.969-8.001c-6.623-2.672-13.658-5.43-20.91-5.545
		c-3.695-0.059-7.677,1.049-11.366,0.32c-2.981-0.589-6.029-2.85-8.626-4.342c-7.131-4.098-13.909-9.012-21.398-12.446
		c-9.154-4.197-19.706-1.758-29.273-0.701c-9.431,1.042-17.858,2.898-22.963,11.798c-5.979,10.423-5.357,21.367-5.091,32.774
		c0.199,8.542,0.927,17.046,0.648,25.614c-0.218,6.7-1.928,14.201,0.219,20.701c2.311,6.994,7.313,13.1,10.386,19.766
		c3.721,8.073,3.632,17.466,7.25,25.573c3.263,7.31,8.118,5.967,15.052,6.304c2.865,0.139,5.348,0.566,8.101-0.628
		c3.68-1.596,7.025-4.95,10.291-7.301c4.93-3.549,8.768-6.329,14.49-8.54c7.36-2.843,14.869-5.109,22.278-7.773
		c8.53-3.067,14.516-7.942,20.603-14.533c2.752-2.98,4.866-6.106,7.261-9.32c2.03-2.725,4.917-4.612,7.1-7.223
		c8.114-9.706,10.242-21.179,11.972-33.41c0.765-5.409,0.324-10.579,0.53-15.967C204.44,130.426,204.801,126.903,205.745,126.207z"
		/>
</g>
<path style="fill:#31D1F6;" d="M311.515,180.536c5.071-1.77,11.53-0.586,16.839-0.912c6.62-0.407,13.375-1.799,19.945-2.54
	c4.955-0.559,10.198-1.989,11.072-7.669c0.956-6.217-0.001-13.248,0.306-19.546c0.261-5.347-0.613-13.108-5.316-15.863
	c-4.287-2.511-9.247-3.99-14.168-4.03c-7.854-0.063-15.633,1.33-23.496,0.959c-8.694-0.41-17.534-4.554-26.184-1.998
	c-6.031,1.783-11.281,6.374-16.949,9.075c-10.168,4.845-23.388,3.956-33.827,0.395c-10.104-3.447-15.13-13.483-26.871-12.471
	c-4.758,0.41-9.586,2.069-14.34,2.837c-5.875,0.949-11.707,1.624-17.61,2.438c-6.296,0.868-12.769,2.101-18.898,3.762
	c-15.387,4.169-12.624,29.185-8.487,40.322c1.558,4.196,4.329,7.087,8.99,6.688c4.98-0.427,10.222-1.158,15.23-1.763
	c4.542-0.549,19.892-4.818,21.772,1.14c1.482,4.694-2.233,12.603-3.034,17.214c-1.573,9.06-1.294,18.576-1.825,27.738
	c-0.805,13.892-0.253,27.922-0.227,41.837c0.012,6.557-0.062,14.137,4.238,19.556c4.388,5.53,12.13,7.847,18.701,9.467
	c2.865,0.706,6.153,1.782,9.066,2.061c4.778,0.459,9.658-1.145,14.511-0.725c8.741,0.755,17.301,0.756,26.047,0.785
	c10.482,0.035,23.584-2.46,32.748-7.853c3.55-2.089,7.323-4.874,9.919-8.096c2.719-3.374,2.332-5.177,1.923-9.175
	c-1.191-11.619-1.856-23.831-4.055-35.306c-1.441-7.517-3.062-14.921-4.017-22.551c-0.874-6.98-0.157-13.991,0.137-20.983
	C303.923,188.962,304.38,183.026,311.515,180.536z"/>
<g>
	<path style="fill:#387BD2;" d="M190.667,333.533c-2.838,5.919-2.269,13.74-2.749,20.14c-0.622,8.296-1.972,16.553-1.494,24.876
		c0.465,8.108,1.413,18.017,8.775,22.98c6.494,4.379,17.237,4.492,24.841,4.889c6.77,0.353,17.341-0.176,21.586-6.511
		c1.932-2.884,1.578-6.26,1.432-9.63c-0.251-5.8-0.934-11.612-1.736-17.386c-1.511-10.874-2.953-29.521,7.137-37.296
		c4.608-3.55,12.128-5.532,16.675-1.464c4.692,4.198,5.291,10.229,6.449,15.976c2.252,11.171,2.637,22.751,3.525,34.076
		c0.321,4.096,0.148,7.863,1.611,11.773c1.843,4.925,3.833,5.115,8.701,5.497c14.258,1.12,40.747,0.483,42.3-18.253
		c2.126-25.64-5.67-52.154-11.375-76.909c-1.299-5.638-1.095-11.378-2.148-17.041c-0.767-4.127-1.201-5.181-5.364-3.887
		c-5.216,1.622-9.223,5.203-14.327,6.892c-4.689,1.551-8.487,3.536-13.493,3.791c-5.192,0.264-10.401-0.074-15.605-0.047
		c-11.749,0.063-23.491,0.762-35.243,0.496c-4.951-0.112-10.275-0.62-15.087-1.885c-4.08-1.073-5.791-3.273-8.704-6.01
		c-4.461-4.192-9.938-4.74-11.454,1.927C191.947,303.604,190.339,318.908,190.667,333.533z"/>
	<path style="fill:#387BD2;" d="M305.583,56.479c-2.183-6.535-9.911-8.751-15.994-9.697c-3.323-0.517-6.172-0.443-9.43-0.069
		c-4.375,0.502-8.713-0.706-13.128-0.54c-5.575,0.21-11.019,0.236-16.592,0.212c-9.226-0.041-19.128,0.939-28.241,2.38
		c-7.061,1.117-17.026,3.129-21.728,9.19c-3.44,4.434-3.65,12.221-0.394,16.733c4.253,5.893,11.413,4.705,17.916,4.957
		c13.35,0.518,26.82,0.08,40.163,0.07c9.791-0.007,19.494,0.591,29.187-0.636c5.644-0.715,11.897-1.444,15.798-6.196
		C306.283,69.053,307.118,61.076,305.583,56.479z"/>
</g>
<g>
	<path style="fill:#FFDBC4;" d="M153.6,142.228c-1.477-2.8-5.729-4.018-8.304-5.494c-3.94-2.259-7.7-5.549-12.359-6.772
		c-7.432-1.951-9.414,5.044-8.827,10.871c0.708,7.029-3.129,4.439-8.426,5.778c-5.335,1.349-7.812,4.483-5.308,9.282
		c1.692,3.243,4.069,3.783,3.948,7.375c-0.166,4.93-1.905,6.605,2.863,9.304c4.269,2.416,4.227,4.804,4.702,9.677
		c0.229,2.354-0.278,3.402,2.075,4.273c2.224,0.823,6.222-0.362,8.481-0.852c3.364-0.73,6.537-1.884,9.742-3.11
		c2.725-1.043,6.265-1.461,8.773-2.935c5.328-3.132,2.603-9.521,1.84-14.57C151.622,157.26,151.812,149.31,153.6,142.228z"/>
	<path style="fill:#FFDBC4;" d="M208.258,84.113c-4.272,6.322-2.874,19.358-0.651,26.094c1.473,4.463,2.408,9.468,5.814,12.852
		c3.445,3.422,7.628,6.544,12.061,8.511c11.533,5.118,23.254,8.386,35.928,7.817c11.073-0.497,25.89-3.915,33.707-12.45
		c6.171-6.739,6.307-16.226,6.682-24.77c0.267-6.066,0.445-13.432-1.306-19.279c-1.614-5.391-5.456-5.979-10.712-6.005
		c-11.6-0.057-23.345,1.379-34.913,2.134c-11.029,0.72-21.961,1.511-33.003,0.997C218.303,79.848,207.674,79.811,208.258,84.113z"/>
	<path style="fill:#FFDBC4;" d="M370.664,111.443c-3.547,5.702-5.411,12.426-9.509,17.836c-2.95,3.894-7.055,4.614-4.547,9.863
		c3.283,6.873,6.563,14.788,6.83,22.562c0.084,2.452-0.827,6.742,1.418,8.615c2.2,1.834,7.532,1.761,10.231,2.372
		c6.174,1.399,12.166,2.243,18.359,0.333c3.521-1.086,4.695-3.474,4.852-7.024c0.115-2.601-2.967-6.172-2.211-8.384
		c1.356-3.968,11.933-3.235,7.753-9.903c-1.31-2.09-3.831-3.463-4.92-5.697c-1.802-3.697,2.233-4.935,1.837-8.269
		c-1.156-9.736-15.261-3.092-19.342-8.147c-1.989-2.463-1.283-6.834-3.024-9.775C377.122,113.683,372.595,109.063,370.664,111.443z"
		/>
</g>
<g>
	<path style="fill:#76746E;" d="M194.123,401.7c-4.609,8.338-11.535,14.847-12.895,24.831c-1.416,10.398,3.307,16.23,14.056,16.004
		c12.987-0.273,27.949-6.894,36.612-16.642c3.882-4.368,12.352-22.628,2.521-24.821c-6.656-1.485-15.227,0.595-22.064,0.627
		C206.473,401.727,199.784,400.614,194.123,401.7z"/>
	<path style="fill:#76746E;" d="M280.509,402.956c0.018,5.48,1.117,10.166,3.089,15.269c2.056,5.322,6.338,7.12,11.317,9.58
		c11.256,5.562,27.341,8.624,39.729,6.563c9.096-1.513,16.096-10.201,12.399-19.233c-1.821-4.45-5.467-8.283-8.333-12.048
		c-2.436-3.2-6.737-6.099-10.444-7.608c-6.6-2.685-16.084,1.582-22.678,2.833C297.931,399.767,287.172,398.276,280.509,402.956z"/>
</g>
<path d="M407.165,427.026c2.534-8.814-1.026-19.614-6.512-26.666c-4.056-5.214-9.75-8.881-14.116-13.816
	c-4.9-5.539-7.858-11.704-9.554-18.905c-3.096-13.148-4.733-25.81-12.81-37.081c-6.789-9.474-14.136-19.477-23.319-26.742
	c-6.74-5.332-10.768-11.312-15.327-18.43c-2.262-3.533-4.548-6.935-7.809-9.44c1.702-10.017-0.132-20.944-1.894-30.795
	c-2.555-14.284-4.904-28.69-6.32-43.141c-0.383-3.904-1.094-8.513,0.074-12.139c3.641,1.842,7.628,2.983,11.298,4.813
	c6.552,3.267,11.625,7.394,19.02,9.034c6.902,1.531,14.076,1.155,20.958,2.605c8.294,1.748,16.124,5.833,24.108,8.573
	c12.165,4.173,28.312,8.721,40.167,1.003c4.451-2.898,6.418-8.059,8.989-12.533c3.245-5.649,6.208-11.461,7.193-17.975
	c1.274-8.424-1.232-16.553-1.836-24.911c-0.657-9.088,2.811-16.854,4.209-25.617c2.164-13.57-5.74-26.117-7.836-39.384
	c-1.925-12.187,1.76-27.975-13.554-31.452c-13.433-3.051-24.476,1.262-35.766,8.719c-7.631,5.041-14.28,9.941-23.479,11.606
	c-7.578,1.372-14.263,4.056-20.823,8.092c-14.369,8.841-27.102,26.246-43.456,31.648c8.913-13,11.848-29.959,4.99-45.479
	c7.019-4.282,9.222-13.234,5.788-21.971c-2.075-5.28-5.61-8.433-9.876-10.378c2.036-11.29-7.824-23.942-14.415-31.814
	C276.595,4.101,264.162-1.211,250.6,0.234c-12.75,1.358-29.667,4.491-38.301,14.852c-7.361,8.834-11.047,23.612-8.103,35.029
	c-3.06,1.945-5.554,4.513-7.003,7.97c-3.79,9.037-3.32,21.177,6.546,25.288c0.463,0.193,0.933,0.365,1.404,0.535
	c-4.137,12.663-3.684,29.98,4.205,41.464c-12.385-4.504-22.982-12.083-36.465-13.642c-8.442-0.976-16.649-1.374-23.99-6.154
	c-5.825-3.793-10.444-8.824-16.82-11.819c-12.582-5.91-29.1-2.622-42.483-1.53c-11.411,0.931-17.661,10.055-20.727,20.377
	c-1.96,6.597-2.703,14.036-2.443,20.88c0.369,9.713,3.152,18.613,1.36,28.37c-2.319,12.629-4.855,26.457,2.864,37.821
	c1.891,2.784,4.646,5.111,6.123,8.175c2.013,4.176,1.467,8.859,1.832,13.294c0.427,5.184,1.599,10.279,5.279,14.173
	c7.799,8.252,21.489,7.767,30.863,2.905c7.163-3.716,13.279-9.136,20.255-13.142c8.43-4.842,17.834-5.46,26.763-8.867
	c13.162-5.023,19.492-19.193,31.838-25.374c0,0.024,0,0.044,0,0.069c0.051,3.58-0.611,7.301-0.748,10.893
	c-0.275,7.2-0.415,14.32-1.087,21.503c-1.264,13.512-3.472,26.808-3.102,40.427c0.182,6.686,0.765,13.865,3.684,19.836
	c-11.892,21.639-33.3,36.27-43.659,59.04c-5.629,12.374-9.489,24.217-18.412,34.769c-6.811,8.054-14.704,15.759-18.606,25.773
	c-6.752,17.329-5.481,43.474,16.42,47.176c6.212,1.05,12.973,0.244,17.999,4.793c4.11,3.72,6.115,8.832,10.76,12.135
	c8.214,5.839,18.51,5.993,28.104,6.456c7.129,0.344,10.356,4.356,15.817,7.947c4.528,2.977,9.187,4.664,14.568,5.36
	c12.836,1.663,23.953-4.75,36.469-4.448c7.613,0.184,14.367,4.39,21.727,5.902c6.125,1.259,12.6,1.775,18.815,1.037
	c12.844-1.527,23.786-8.43,36.198-11.184c11.341-2.516,22.362-4.602,31.887-11.792c9.28-7.005,19.906-11.691,29.089-18.762
	C396.501,442.395,404.632,435.836,407.165,427.026z M319.551,116.68c11.57-8.963,22.73-20.024,37.082-24.39
	c5.836-1.775,11.933-1.47,17.673-3.681c5.343-2.059,10.061-5.385,14.85-8.453c9.489-6.079,34.699-18.551,37.716,0.373
	c1.96,12.295,1.971,23.996,6.178,35.962c2.678,7.618,4.035,13.191,2.008,21.282c-1.449,5.786-3.42,11.452-3.654,17.468
	c-0.274,7.028,1.612,13.861,2.158,20.82c0.689,8.786-2.023,15.793-6.376,23.251c-4.058,6.952-7.045,11.635-15.805,12.447
	c-7.746,0.718-15.38-1.759-22.663-4.156c-7.547-2.485-14.767-5.892-22.393-8.164c-6.125-1.825-12.263-1.842-18.556-2.634
	c-8.771-1.104-14.191-4.759-21.697-8.81c-3.005-1.621-6.285-2.698-9.478-3.947c4.132-0.896,9.057-0.429,13.132-0.744
	c9.521-0.735,25.204,1.016,32.042-7.35c0.238-0.292,0.451-0.613,0.664-0.932c0.079-0.006,0.156-0.003,0.237-0.014
	c11.263-1.566,21.827,7.547,33.042,0.349c5.976-3.835,7.374-9.963,4.842-15.653c3.459-1.651,6.633-2.829,7.831-7.904
	c1.156-4.891-1.845-8.118-5.157-10.926c2.992-3.77,3.564-8.275-1.499-12.006c-4.319-3.183-8.607-2.776-13.569-3.346
	c-4.675-0.537-3.256,0.555-3.033-4.229c0.065-1.386,0.157-2.734-0.041-4.128c-0.981-6.898-7.351-11.768-14.147-8.618
	c-9.745,4.517-7.833,17.035-14.616,22.982c-2.14-1.638-4.672-3.012-7.652-4.163c-10.974-4.239-21.815-4.283-33.331-2.871
	c-3.287,0.403-6.497,1.003-9.702,1.583C310.606,123.604,315.261,120.003,319.551,116.68z M395.912,143.503
	c3.65,3.034,8.173,7.012,2.515,10.452c-1.254,0.762-2.901,0.692-4.214,1.525c-1.438,0.911-2.292,3.077-1.209,4.61
	c4.77,6.753-4.212,11.197-9.509,11.254c-4.728,0.05-7.866-1.795-12.223-2.649c-2.217-0.435-4.202-0.823-6.11-0.738
	c1.331-6.531,0.747-14.38,0.056-19.562c-0.703-5.269-2.273-9.465-4.847-12.838c1.781-0.967,3.285-2.487,4.533-4.235
	c2.283-3.196,8.191-24.419,12.766-9.07c1.038,3.482-0.701,5.737,2.676,8.271c1.519,1.14,4.322,1.744,6.132,2.056
	c1.157,0.237,2.313,0.164,3.47-0.217c4.344-1.041,6.558,0.915,6.643,5.866C395.048,139.415,394.064,141.968,395.912,143.503z
	 M307.204,135.576c10.282-1.975,21.396-3.411,31.687-1.023c3.523,0.818,7.623,1.727,10.745,3.626
	c5.931,3.608,6.668,11.699,6.576,17.901c-0.043,2.908,0.325,6.884-0.472,9.633c-2.705,9.332-14.273,6.978-21.533,7.67
	c-12.856,1.226-29.319-0.958-34.692,13.866c-2.71,7.477-0.99,15.738,0.021,23.4c1.43,10.839,2.762,21.761,4.744,32.514
	c1.697,9.206,3.729,18.546,3.213,27.975c-0.764,13.95-11.38,17.393-23.285,19.803c-7.009,1.418-14.35,1.678-21.635,1.625
	c-0.057-25.096-0.19-50.161,1.123-75.28c0.65-12.435,0.315-24.887,0.714-37.333c0.366-11.43,2.065-23.256,1.297-34.724
	c7.921-1.175,15.184-4.333,21.349-8.902C293.179,134.743,300.892,136.788,307.204,135.576z M296.641,54.499
	c6.199,4.391,6.029,14.362-1.087,17.386c-1.058,0.45-2.183,0.808-3.341,1.12c0.237-7.112,0.831-13.948-0.961-20.742
	C293.292,52.771,295.182,53.466,296.641,54.499z M218.46,20.507c7.45-8.22,22.902-10.793,33.566-11.701
	c10.69-0.91,20.355,3.712,26.944,11.929c6.043,7.538,7.74,14.649,10.242,22.85c-3.354-0.408-6.803-0.565-10.14-0.722
	c-16.639-0.78-34.104-1.144-50.673,0.798c-6.353,0.744-14.49,1.731-21.052,4.762C208.77,38.703,212.174,27.444,218.46,20.507z
	 M277.071,60.058c-0.414-2.963-0.831-6.398-1.843-9.483c1.286,0.078,2.574,0.156,3.845,0.242c2.551,0.173,5.849,0.32,9.055,0.81
	c0.811,4.127,0.844,8.339,0.559,12.583c-0.215,3.198-1.225,6.516-1.329,9.751c-3.187,0.422-6.554,0.555-9.927,0.586
	C278.52,69.914,277.715,64.665,277.071,60.058z M273.332,74.556c-4.109-0.014-8.11-0.046-11.655,0.279
	c-0.167,0.015-0.339,0.024-0.506,0.039c-0.384-4.674-1.044-9.356-1.862-13.963c-0.602-3.397-0.857-7.591-2.217-11.023
	c5.108,0.049,10.184,0.247,15.174,0.518C275.16,57.672,272.681,66.975,273.332,74.556z M240.569,50.318
	c4.581-0.313,9.195-0.441,13.797-0.446c0.237,8.304,0.523,17.179,2.123,25.333c-3.817,0.216-7.712,0.326-11.647,0.408
	c-0.099-1.821-0.242-4.115-0.31-4.562c-0.456-2.962-1.048-5.864-1.698-8.788C242.078,58.861,242.168,53.807,240.569,50.318z
	 M240.61,75.699c-3.904,0.08-7.824,0.173-11.717,0.374c-1.553-3.866-1.586-9.078-2.331-13.218
	c-0.645-3.583-1.225-7.103-1.563-10.686c4.47-0.808,9.03-1.364,13.631-1.733c0.625,4.485,0.165,9.3,0.796,13.806
	C239.958,68.04,240.206,71.892,240.61,75.699z M213.249,54.98c0.245-0.082,0.486-0.168,0.736-0.242
	c2.579-0.757,5.205-1.408,7.867-1.966c0.03,3.718,0.33,7.364,0.873,11.141c0.583,4.053,0.587,8.472,1.76,12.453
	c-2.9,0.224-5.782,0.502-8.61,0.929c-0.347-4.131-1.88-8.558-2.449-12.43C213.013,62.056,213.598,58.276,213.249,54.98z
	 M203.444,69.842c-1.084-6.374,1.957-11.021,6.893-13.634c-0.094,1.187-0.263,2.352-0.292,3.268
	c-0.081,2.612,0.183,5.088,0.503,7.67c0.396,3.186,0.572,6.466,1.176,9.641C207.725,76.02,204.222,74.423,203.444,69.842z
	 M208.882,85.001c7.923,1.809,16.596,0.853,24.836-0.793c5.679-0.096,11.363-0.084,17.032-0.487
	c14.203-1.009,29.436-0.164,43.598-2.328c12.881,25.685-9.461,54.371-36.141,54.787c-12.601,0.196-28.24-4.423-37.876-12.875
	C209.598,113.889,212.416,97.723,208.882,85.001z M180.846,190.164c-6.066,5.169-10.51,12.608-17.287,16.971
	c-6.71,4.321-15.484,4.625-22.931,7.067c-7.422,2.434-13.593,7.022-20.035,11.294c-8.178,5.424-18.068,12.051-28.12,6.542
	c-7.907-4.333-5.465-14.548-7-21.899c-1.503-7.199-6.829-10.691-10.148-16.848c-5.145-9.544-2.096-21.356-0.605-31.321
	c2.717-18.15-7.418-36.284,2.645-53.789c6.06-10.542,15.033-8.369,25.239-8.689c9.529-0.299,18.891-1.853,27.705,2.815
	c6.453,3.417,11.357,9.136,18.044,12.193c5.431,2.482,10.931,2.99,16.813,3.207c10.502,0.387,19.624,2.334,29.357,6.45
	c2.357,0.997,4.444,1.949,6.544,2.688c-8.221,0.014-16.474,0.589-24.611,1.27c-8.388,0.702-18.648,1.684-24.082,9.073
	c-0.341,0.463-0.656,0.95-0.953,1.452c-6.821-5.001-14.102-15.555-22.649-13.449c-7.974,1.965-8.918,9.537-7.867,16.188
	c-9.195,2.76-23.422,7.857-13.257,18.78c0.746,0.802,1.745,1.403,2.589,2.103c0.338,0.281,0.635,0.521,0.902,0.733
	c-0.278-0.024-0.516,0.064-0.633,0.372c-0.947,2.481-1.864,3.27-1.351,6.212c0.783,4.49,4.011,6.84,7.812,8.08
	c-1.397,6.188-0.108,11.355,8.528,12.678c5.044,0.773,9.977-0.828,14.61-2.603c4.021-1.54,8.787-3.099,12.873-5.239
	c1.485,1.823,3.41,3.334,5.967,4.346c9.626,3.809,19.236-1.587,28.725-1.405C185.277,186.765,183.01,188.32,180.846,190.164z
	 M147.868,164.573c0.278,3.761,0.67,7.761,1.771,11.384c-3.219,1.599-6.849,2.688-10.084,4.082
	c-2.608,1.124-8.298,4.253-11.146,3.163c-2.472-0.947-4.105-4.961-3.311-7.228c0.878-2.51-1.371-4.356-3.539-4.645
	c-7.863-1.049-2.207-6.786-2.037-10.086c0.066-1.271-0.746-2.555-1.823-3.178c-12.502-7.233,3.39-9.175,8.345-10.715
	c4.983-1.549,0.606-9.565,4.614-12.848c3.368-2.759,5.348-1.076,7.85,0.933c3.751,3.012,6.201,5.707,11.41,6.346
	C147.222,148.775,147.373,157.889,147.868,164.573z M178.953,177.458c-6.549,1.115-16.643,3.803-20.658-3.374
	c-2.92-5.22-2.036-15.921-1.236-21.576c0.936-6.62,2.6-12.011,9.814-14.104c5.048-1.464,10.807-1.452,16.007-1.96
	c10.959-1.07,21.746-2.977,32.632-4.489c12.259,9.859,30.779,14.753,46.233,13.699c-6.86,48.401-6.719,98.016-6.887,146.779
	c-1.278-0.031-2.551-0.062-3.815-0.09c-10.956-0.237-23.174-1.165-33.728-4.127c-4.179-1.173-10.105-2.587-13.409-5.528
	c-5.032-4.478-5.01-12.791-5.184-18.958c-0.282-10.003,0.76-19.793,1.912-29.71c1.249-10.752,1.816-21.42,2.304-32.221
	c0.306-6.755,3.525-17.887-1.789-23.667C195.938,172.464,185.245,176.386,178.953,177.458z M192.033,366.488
	c0.294-9.541,1.286-19.097,1.968-28.618c0.674-9.409,1.512-18.798,2.289-28.198c0.429-5.191,0.93-10.391,1.165-15.594
	c0.055-1.222,0.009-2.483-0.065-3.756c0.509,0.45,1.046,0.882,1.616,1.293c7.297,5.264,17.788,7.276,26.554,8.445
	c14.159,1.888,28.179,2.8,42.466,2.601c13.614-0.189,31.082-1.919,41.403-11.19c0.455,10.947,1.291,21.618,3.917,32.669
	c3.411,14.353,6.855,28.797,9.156,43.371c0.934,5.914,2.853,17.272-2.274,21.804c-5.583,4.935-20.158,5.575-27.334,6.796
	c-4.121,0.701-10.017,2.106-12.668-2.43c-1.984-3.394-0.711-10.625-0.672-14.59c0.078-7.987-0.338-15.647-2.061-23.464
	c-2.039-9.246-6.844-26.758-18.333-27.966c-11.968-1.258-19.911,11.083-22.303,21.183c-1.552,6.55-1.324,13.721-0.776,20.372
	c0.327,3.971,0.781,7.932,1.112,11.904c0.3,3.605,2.018,9.247,0.837,12.664c-1.683,4.866-13.712,4.086-18.442,4.427
	c-8.611,0.621-20.583,2.859-24.989-6.587C191.25,384.444,191.795,374.226,192.033,366.488z M326.399,398.433
	c5.871,5.238,13.182,9.964,16.229,17.123c6.375,14.977-18.356,15.693-26.797,14.391c-6.851-1.057-12.606-2.811-18.943-5.647
	c-8.631-3.864-12.276-9.589-14.643-17.303c3.091,0.388,6.365,0.115,9.347-0.204C301.512,405.733,317.198,405.181,326.399,398.433z
	 M234.971,408.015c-0.465,6.409-1.709,12.056-7.467,17.296c-6.504,5.918-15.01,10.491-23.563,12.503
	c-6.499,1.528-13.925,2.156-19.549-2.173c-3.74-2.88-2.124-7.217-1.159-11.052c0.628-2.493,1.77-5.034,2.985-7.303
	c2.096-3.916,6.051-7.474,7.613-11.708c3.405,2.024,7.603,3.291,12.71,3.818c8.163,0.843,16.599-0.671,24.77-1.15
	C232.517,408.176,233.747,408.113,234.971,408.015z M387.882,437.633c-7.362,6.466-15.963,9.877-24.042,15.152
	c-4.063,2.653-7.455,6.146-11.57,8.71c-5.929,3.694-12.99,5.867-19.802,7.334c-10.965,2.361-20.578,6.813-31.316,9.864
	c-14.666,4.167-25.687,1.074-39.715-3.116c-9.212-2.751-17.414-0.877-26.521,1.339c-6.061,1.475-12.201,2.488-18.455,1.783
	c-7.334-0.827-11.313-4.54-16.915-8.439c-8.1-5.636-16.045-3.414-25.181-5.052c-5.901-1.058-11.757-2.748-15.971-7.285
	c-3.035-3.268-4.943-7.418-8.554-10.202c-6.595-5.085-14.928-3.691-22.395-6.179c-14.988-4.995-11.542-29.106-5.267-39.955
	c5.172-8.941,12.985-16.23,19.125-24.484c7.187-9.661,9.475-20.756,13.998-31.707c8.21-19.877,24.52-34.701,35.76-52.828
	c-0.302,2.606-0.561,5.178-0.948,7.515c-1.586,9.573-3.067,19.102-4.159,28.746c-2.13,18.811-5.556,37.95-3.226,56.887
	c0.966,7.853,3.529,13.623,7.927,17.543c-3.246,4.651-8.448,8.182-11.158,13.447c-2.688,5.222-4.398,11.44-3.367,17.346
	c2.077,11.899,14.18,12.643,24.104,11.551c11.77-1.295,23.374-6.774,32.292-14.553c6.426-5.607,11.542-15.994,11.043-25.247
	c1.308-0.76,2.498-1.774,3.503-3.161c3.925-5.421,2.006-13.737,1.523-19.873c-0.794-10.095-3.29-21.027-1.59-31.125
	c0.68-4.039,3.759-13.744,9.237-14.024c5.119-0.261,9.023,10.204,10.29,13.927c3.664,10.768,2.936,21.754,3.077,32.889
	c0.077,6.039-0.151,13.741,4.157,18.521c1.069,1.186,2.301,2.054,3.636,2.69c-1.75,23.486,30.575,35.46,50.412,33.179
	c10.39-1.195,23.227-6.396,24.28-18.275c0.56-6.322-2.275-11.076-6.476-15.518c-3.945-4.17-8.813-9.227-13.956-12.5
	c0.504-0.927,0.936-1.913,1.271-2.978c4.768-15.186-0.472-33.631-4.138-48.509c-4.221-17.131-6.974-34.462-10.485-51.675
	c3.546,5.353,6.383,11.72,10.64,15.916c7.862,7.749,15.497,14.435,22.428,23.205c7.153,9.051,11.782,17.197,14.357,28.468
	c2.195,9.608,3.188,19.306,8.408,27.892c4.892,8.048,12.486,12.923,18.514,19.874c3.337,3.847,5.852,9.309,6.263,14.441
	C399.598,427.621,393.697,432.526,387.882,437.633z"/>
<path d="M229.275,104.278c2.434,1.319,5.416,0.454,6.741-1.986c0.01-0.018,0.015-0.037,0.025-0.055
	c1.224-1.038,1.961-2.6,1.563-4.397c-0.869-3.928-7.323-8.058-10.118-3.575c-0.466,0.748-0.623,1.588-0.903,2.402
	c-0.295,0.858-0.621,1.682-0.572,2.615C226.117,101.349,227.471,103.3,229.275,104.278z"/>
<path d="M273.607,100.391c1.49,1.723,3.979,1.855,5.859,0.711c3.219-1.96,4.341-6.607,2.136-9.732
	c-1.429-2.026-3.85-2.779-6.162-1.834c-2.274,0.929-3.715,3.02-3.857,5.473c-0.076,1.31,0.316,2.505,1.038,3.455
	C272.807,99.153,273.096,99.801,273.607,100.391z"/>
<path d="M256.252,106.237c2.14-0.356,4.878-1.453,6.215-3.243c1.132-1.516,2.291-3.983,1.834-5.842c-0.5-2.03-3.036-1.602-3.706,0
	c-0.937,2.242-2.233,4.264-4.761,4.854c-3.001,0.701-5.317-1.745-7.103-3.82c-0.707-0.822-2.198-0.165-2.149,0.89
	C246.798,103.75,251.819,106.976,256.252,106.237z"/>
<path d="M258.328,123.55c4.942-0.802,11.452-4.265,11.623-9.866c0.042-1.387-1.536-2.786-2.936-2.236
	c-1.283,0.504-1.834,1.053-2.75,2.031c-1.68,1.795-3.429,3.071-5.831,3.859c-3.942,1.295-9.006-1.021-12.428-2.995
	c-1.738-1.003-3.614,0.979-2.69,2.69C245.84,121.699,253.273,124.37,258.328,123.55z"/>
<path d="M64.634,89.27c1.636-1.672,3.167-3.342,4.661-5.133c3.424-4.106,4.295-5.576,9.988-6.982
	c5.189-1.281,9.359-0.491,14.546-1.183c6.187-0.825,10.465-3.449,16.738-2.654c6.221,0.789,7.573,4.296,12.855,6.557
	c3.418,1.463,6.924,1.65,10.572,1.227c3.716-0.43,6.953-1.924,10.938-0.886c4.516,1.176,6.714,4.941,9.687,7.937
	c1.73,1.744,3.004,3.103,5.314,4.191c4.215,1.986,9.204,0.926,13.25,3.184c1.527,0.852,2.796-1.372,1.36-2.326
	c-5.21-3.463-11.858-2.047-16.293-7.171c-2.943-3.4-4.598-7.065-8.675-9.471c-5.149-3.039-9.942-2.162-15.582-2.202
	c-8.423-0.06-11.492-5.367-18.535-8.14c-3.841-1.513-6.225-1.243-10.109,0.321c-8.486,3.418-13.606,4.025-22.826,3.68
	c-10.556-0.395-16.787,8.577-20.327,17.634C61.65,89.253,63.675,90.251,64.634,89.27z"/>
<path d="M66.16,216.34c-4.215-3.923-8.188-4.883-9.949-11.611c-0.788-3.012-0.289-6.44,0.253-9.439
	c1.59-8.795,1.774-14.316-1.883-22.593c-4.916-11.128,3.596-20.439,1.925-31.594c-0.725-4.843-3.817-8.744-4.255-13.649
	c-0.46-5.156,1.369-13.205,4.308-17.719c0.364-0.559-0.44-1.136-0.902-0.696c-5.408,5.158-9.229,14.767-7.971,22.236
	c0.485,2.882,2.144,5.508,2.642,8.4c0.811,4.705-0.631,8.66-1.891,12.974c-1.532,5.244-3.595,10.949-2.729,16.521
	c0.967,6.224,5.458,10.371,5.757,17.023c0.249,5.544-1.61,10.986-0.823,16.56c1.542,10.917,10.537,14.792,17.992,21.343
	c1.228,1.079,3.553-0.39,2.428-1.874C69.473,220.123,68.085,218.132,66.16,216.34z"/>
<path d="M118.028,252.379c1.895-1.434,3.982-4.097,6.012-4.953c3.475-1.467,7.557-0.964,11.138-0.733
	c3.184,0.205,5.256,0.311,8.375-0.782c8.415-2.948,12.9-11.217,19.982-16.048c1.808-1.233,0.708-4.046-1.498-3.552
	c-5.389,1.205-8.981,5.267-13.234,8.57c-5.92,4.598-7.338,4.943-15.717,4.895c-2.755-0.016-4.993-0.512-7.667,0.295
	c-6.12,1.848-9.719,7.72-14.952,11.04c-9.352,5.932-21.575,3.966-30.543-1.767c-0.562-0.359-1.241,0.491-0.723,0.937
	C90.679,260.146,105.908,261.552,118.028,252.379z"/>
<path d="M442.619,207.67c-6.288,8.942-15.061,16.965-25.01,21.542c-8.957,4.12-19.32-4.021-28.999-3.512
	c-5.24,0.276-10.194,1.85-15.446,0.503c-5.577-1.43-10.494-4.999-15.296-8.022c-8.362-5.264-15.549-9.702-25.683-9.027
	c-1.434,0.095-1.464,2.233,0,2.253c15.169,0.205,23.487,14.094,36.539,19.521c4.359,1.812,8.628,2.504,13.327,2.132
	c8.263-0.653,12.751-0.232,20.603,2.801c9.46,3.653,15.833,2.065,24.296-3.474c8.414-5.507,15.053-14.071,18.294-23.609
	C445.798,207.144,443.501,206.415,442.619,207.67z"/>
<path d="M330.098,88.703c3.628-9.886,19.356-8.176,27.586-11.316c9.075-3.462,13.419-11.251,21.457-16.027
	c8.497-5.049,17.699-0.247,26.078-5.459c4.32-2.687,7.972-6.153,12.712-8.176c7.512-3.206,13.976-1.236,21.095,1.944
	c1.098,0.49,2.549-0.936,1.419-1.839c-7.917-6.324-15.417-10.499-25.639-6.371c-5.356,2.163-9.286,6.704-14.403,8.969
	c-6.365,2.818-13.105-0.701-19.548,2.058c-5.322,2.278-9.878,6.362-13.551,10.718c-5.216,6.185-11.191,10.41-19.214,12.098
	c-8.138,1.713-18.394,3.168-21.357,12.473C326.043,89.94,329.335,90.783,330.098,88.703z"/>
<path d="M466.253,121.346c-0.722-4.873-3.182-8.163-5.187-12.482c-2.677-5.768-2.767-9.259-2.344-15.616
	c0.104-1.563,0.244-3.132-0.006-4.695c-1.261-7.874-6.875-13.77-13.659-17.244c-0.482-0.247-1.094,0.422-0.616,0.798
	c4.519,3.545,7.692,9.126,8.543,14.836c0.701,4.702-1.32,8.917-1.464,13.596c-0.333,10.814,9.095,17.279,6.675,28.915
	c-1.52,7.312-5.119,14.285-4.057,21.989c1.242,9.007,3.947,16.969,3.509,26.324c-0.103,2.209,3.119,3.04,4.157,1.126
	c4.45-8.205,2.983-15.777,0.975-24.463C460.071,142.717,467.956,132.846,466.253,121.346z"/>
<path d="M109.646,395.739c2.623-6.277,2.615-12.822,6.211-18.95c3.515-5.991,8.758-11.508,13.958-16.068
	c3.431-3.009,7.232-6.086,9.074-10.405c1.76-4.128,1.121-8.66,1.629-13.019c1.673-14.36,9.284-26.4,19.171-36.587
	c1.743-1.797-0.974-4.521-2.749-2.749c-8.447,8.436-15.945,18.076-19.614,29.528c-1.887,5.891-1.807,14.75-4.654,20.206
	c-3.287,6.298-11.457,10.445-16.094,15.833c-4.158,4.831-8.03,9.871-10.437,15.832c-1.15,2.848-1.74,5.553-2.503,8.506
	c-1.25,4.841-3.36,8.426-6.267,12.471c-7.604,10.582-8.731,24.16-4.094,36.169c0.927,2.4,4.13,1.445,3.791-1.046
	c-1.115-8.204-1.863-16.498,1.734-24.214C101.521,405.417,107.191,401.613,109.646,395.739z"/>
<path d="M182.625,493.397c-7.164-5.258-15.555-8.267-21.183-15.537c-2.861-3.696-4.811-7.918-8.934-10.423
	c-4.111-2.497-8.929-2.651-13.537-2.184c-5.404,0.548-11.327,1.584-16.584-0.61c-3.608-1.505-6.221-4.676-9.186-7.107
	c-0.849-0.696-1.844,0.337-1.187,1.187c3.299,4.265,5.822,9.09,11.03,11.357c7.371,3.209,15.694-0.234,22.903,2.335
	c7.066,2.517,10.414,11.777,16.359,16.628c5.331,4.349,11.349,7.937,17.733,10.491C183.842,501.055,185.433,495.457,182.625,493.397
	z"/>
<path d="M365.972,479.002c-13.475,5.026-26.105,7.921-38.622,15.229c-13.162,7.684-27.977,1.99-42.252,6.799
	c-7.608,2.563-14.501,4.118-22.389,1.756c-5.771-1.728-10.271-4.618-16.47-4.977c-6.265-0.363-11.751,1.139-17.691,2.758
	c-8.084,2.203-17.282,1.882-25.147-1.526c-0.754-0.327-1.323,0.616-0.646,1.106c4.788,3.469,11.223,5.393,17.073,6.13
	c7.008,0.883,13.438-1.991,20.434-2.09c9.127-0.129,14.951,4.694,23.255,6.764c6.06,1.51,12.121,1.355,18.129-0.248
	c8.352-2.229,15.005-4.655,23.879-4.193c7.183,0.374,13.647,0.999,20.388-2.062c8.808-3.998,15.819-9.839,25.211-12.98
	c6.309-2.11,11.888-4.353,17.083-8.626C369.953,481.405,368.079,478.216,365.972,479.002z"/>
<path d="M407.847,372.769c-4.87-8.211-5.239-15.938-7.277-24.882c-1.211-5.313-3.916-9.449-7.509-13.48
	c-5.752-6.454-11.508-12.85-17.219-19.358c-1.33-1.516-3.815,0.443-2.775,2.141c6.635,10.835,18.138,19.755,20.628,32.592
	c1.175,6.057,0.806,11.638,3.06,17.517c2.189,5.711,5.375,11.102,9.061,15.955c3.714,4.889,8.12,9.028,10.416,14.844
	c2.682,6.79,2.721,13.846,2.273,21.009c-0.949,15.168-10.386,28.071-20.08,39.295c-1.345,1.558,0.761,3.73,2.28,2.281
	c18.589-17.738,35.012-45.883,19.424-71.277C416.522,383.527,411.391,378.745,407.847,372.769z"/>
<path d="M248.783,177.094c0.118,0,0.233-0.027,0.35-0.038c0.879,0.222,1.823,0.141,2.639-0.4l0.156-0.103
	c1.291-0.857,2.167-2.505,1.659-4.076c-0.26-0.805-0.706-1.401-1.282-1.83c-0.737-1.182-1.998-1.99-3.522-1.99
	c-2.207,0-4.321,1.941-4.219,4.219C244.667,175.161,246.418,177.094,248.783,177.094z"/>
<path d="M248.521,201.064l0.205-0.076c1.606-0.597,2.871-1.626,3.344-3.344c0.408-1.483,0.067-2.978-0.857-4.174
	c-0.913-1.182-2.24-1.887-3.76-1.887c-1.802,0-3.136,0.959-4.135,2.372c-0.042,0.06-0.084,0.119-0.126,0.179
	c-1.079,1.526-0.693,3.867,0.369,5.24C244.633,200.76,246.765,201.717,248.521,201.064z"/>
<path d="M245.797,226.223c2.255,0.018,3.876-1.527,4.616-3.514c0.041-0.11,0.082-0.219,0.122-0.329
	c0.824-2.214-0.743-4.755-2.75-5.602c-2.221-0.937-4.638-0.067-5.93,1.943c-0.064,0.1-0.128,0.2-0.192,0.299
	c-0.839,1.305-0.96,3.542,0,4.832C242.73,225.285,243.931,226.208,245.797,226.223z"/>
<path d="M243.101,250.565c2.052,0.394,3.876,0,5.348-1.518c1.41-1.452,1.88-3.962,0.74-5.731c-1.119-1.736-3.28-2.798-5.341-2.174
	c-1.06,0.321-2.026,0.796-2.815,1.587C238.691,245.074,239.553,249.884,243.101,250.565z"/>
<path d="M245.956,264.253c-2.576,0-5.045,2.265-4.925,4.926c0.119,2.669,2.164,4.926,4.925,4.926c2.576,0,5.045-2.266,4.926-4.926
	C250.762,266.51,248.717,264.253,245.956,264.253z"/>
<g>
</g>
<g>
</g>
<g>
</g>
<g>
</g>
<g>
</g>
<g>
</g>
<g>
</g>
<g>
</g>
<g>
</g>
<g>
</g>
<g>
</g>
<g>
</g>
<g>
</g>
<g>
</g>
<g>
</g>
</svg>
