<svg id="Filled" height="512" viewBox="0 0 512 512" width="512" xmlns="http://www.w3.org/2000/svg"><path d="m408 151.794c0-70.579-55.84-127.794-125.882-127.794-70.043 0-130.118 57.215-130.118 127.794v62.075l-33.272-36.847a45.872 45.872 0 0 0 -65.22 0 46.722 46.722 0 0 0 0 65.72l98.492 94.934v54.324h256v-54.324z" fill="#f0dfce"/><path d="m408 151.79v240.21h-256v-54.32l-98.49-94.94a46.723 46.723 0 0 1 0-65.72 45.866 45.866 0 0 1 65.22 0l33.27 36.85v-62.08a122.759 122.759 0 0 1 4.45-32.82l-.42 17.03a136.054 136.054 0 0 0 247.94 0v-16.53a130.735 130.735 0 0 1 4.03 32.32z" fill="#f0dfce"/><path d="m403.97 119.47v16.53a136.054 136.054 0 0 1 -247.94 0l.42-17.03a128.115 128.115 0 0 1 34.34-57.54 131.307 131.307 0 0 1 91.33-37.43c58.96 0 107.86 40.55 121.85 95.47z" fill="#eb423f"/><path d="m416.5 424a23.752 23.752 0 0 0 7.5-17.455c0-12.853-9.881-23.272-22.069-23.272 0-12.853-9.881-23.273-22.069-23.273a21.532 21.532 0 0 0 -16.552 7.915 21.263 21.263 0 0 0 -33.1 0 21.264 21.264 0 0 0 -33.1 0 21.263 21.263 0 0 0 -33.1 0 21.263 21.263 0 0 0 -33.1 0 21.264 21.264 0 0 0 -33.1 0 21.263 21.263 0 0 0 -33.1 0 21.532 21.532 0 0 0 -16.572-7.915c-12.188 0-22.069 10.42-22.069 23.273-12.188 0-22.069 10.419-22.069 23.272a23.752 23.752 0 0 0 7.5 17.455 23.752 23.752 0 0 0 -7.5 17.455c0 12.853 9.881 23.272 22.069 23.272 0 12.853 9.881 23.273 22.069 23.273a21.532 21.532 0 0 0 16.552-7.915 21.263 21.263 0 0 0 33.1 0 21.264 21.264 0 0 0 33.1 0 21.263 21.263 0 0 0 33.1 0 21.263 21.263 0 0 0 33.1 0 21.264 21.264 0 0 0 33.1 0 21.263 21.263 0 0 0 33.1 0 21.532 21.532 0 0 0 16.572 7.915c12.188 0 22.069-10.42 22.069-23.273 12.188 0 22.069-10.419 22.069-23.272a23.752 23.752 0 0 0 -7.5-17.455z" fill="#eb423f"/><g fill="#e9eef2"><circle cx="280" cy="216" r="96"/><circle cx="88" cy="96" r="24"/><circle cx="72" cy="344" r="16"/><circle cx="456" cy="256" r="16"/></g><path d="m416 378.915v-227.121a136.041 136.041 0 0 0 -38.968-95.97 132.057 132.057 0 0 0 -94.914-39.824 138.429 138.429 0 0 0 -96.9 39.7c-26.581 25.849-41.218 59.977-41.218 96.094v41.279l-19.335-21.412c-.084-.093-.171-.184-.259-.274a53.872 53.872 0 0 0 -76.577 0 54.8 54.8 0 0 0 0 76.99l.127.124 96.044 92.576v11.223c-12.37 1.779-22.361 11.41-25.151 23.885-13.105 3.371-22.849 15.705-22.849 30.36a32.127 32.127 0 0 0 5.143 17.455 32.127 32.127 0 0 0 -5.143 17.455c0 14.655 9.744 26.989 22.849 30.361 3.095 13.84 15.051 24.184 29.289 24.184a29.17 29.17 0 0 0 16.551-5.184 29.016 29.016 0 0 0 33.1 0 29.015 29.015 0 0 0 33.1 0 29.016 29.016 0 0 0 33.1 0 29.016 29.016 0 0 0 33.1 0 29.015 29.015 0 0 0 33.1 0 29.016 29.016 0 0 0 33.1 0 29.17 29.17 0 0 0 16.573 5.184c14.237 0 26.194-10.344 29.289-24.184 13.105-3.372 22.849-15.706 22.849-30.361a32.127 32.127 0 0 0 -5.143-17.455 32.127 32.127 0 0 0 5.143-17.455 31.484 31.484 0 0 0 -16-27.63zm-219.629-311.75a122.509 122.509 0 0 1 85.747-35.165 116.178 116.178 0 0 1 83.5 35.036 119.587 119.587 0 0 1 33.4 69.125c-5.362 10.306-14.044 21.079-26.349 32.653a104.593 104.593 0 0 0 -56.787-50.433c7.411-4.461 10.355-9.092 11.138-10.537l.04-.076c.038-.07.074-.139.1-.19h-.006a8 8 0 0 0 -14.166-7.417c-.361.539-8.288 11.839-40.988 11.839s-40.627-11.305-40.983-11.842a8 8 0 0 0 -14.166 7.417h-.006c.025.051.061.12.1.19l.04.076c1 1.851 5.542 8.931 18.493 14.182a104.686 104.686 0 0 0 -48.142 46.788c-12.26-11.531-20.922-22.267-26.288-32.539 3.497-25.934 15.73-50.048 35.323-69.107zm116.57 264.6c-.06-.109-.1-.185-.1-.185h.006c.035.057.062.12.094.183zm-120.941-115.765a88 88 0 1 1 88 88 88.1 88.1 0 0 1 -88-88zm120.845-115.578s.036-.076.1-.185c-.032.061-.059.126-.09.188zm-81.786-.185c.06.109.1.185.1.185h-.006c-.035-.059-.062-.122-.094-.185zm-171.932 136.81a38.753 38.753 0 0 1 .06-54.389 37.869 37.869 0 0 1 53.735-.128l33.14 36.7a8 8 0 0 0 13.938-5.361v-50.658a198.557 198.557 0 0 0 20.855 21.368 104 104 0 0 0 54.622 125.395c-12.951 5.251-17.49 12.331-18.493 14.182l-.04.076c-.038.07-.074.139-.1.19h.006a8 8 0 0 0 14.166 7.417c.357-.534 8.284-11.839 40.984-11.839s40.627 11.305 40.983 11.842a8 8 0 0 0 14.166-7.417h.006c-.025-.051-.061-.12-.1-.19l-.04-.076c-.783-1.445-3.727-6.076-11.138-10.537a104.023 104.023 0 0 0 63.267-129.04 198.557 198.557 0 0 0 20.856-21.371v196.866a29.086 29.086 0 0 0 -36.689-2.893 29.016 29.016 0 0 0 -33.1 0 29.015 29.015 0 0 0 -33.1 0 29.016 29.016 0 0 0 -33.1 0 29.016 29.016 0 0 0 -33.1 0 29.015 29.015 0 0 0 -33.1 0 29.016 29.016 0 0 0 -33.1 0 29.7 29.7 0 0 0 -4.711-2.616v-16.892a8 8 0 0 0 -2.448-5.759zm172.028 94.531s-.036.076-.1.185c.032-.061.059-.126.09-.188zm179.9 98.284a15.822 15.822 0 0 1 4.945 11.593c0 8.421-6.312 15.272-14.069 15.272a8 8 0 0 0 -8 8c0 8.421-6.311 15.273-14.069 15.273a13.447 13.447 0 0 1 -10.411-5.042 8 8 0 0 0 -12.28 0 13.27 13.27 0 0 1 -20.823 0 8 8 0 0 0 -6.14-2.873 8 8 0 0 0 -6.14 2.872 13.27 13.27 0 0 1 -20.823 0 8 8 0 0 0 -12.281 0 13.27 13.27 0 0 1 -20.822 0 8 8 0 0 0 -12.282 0 13.27 13.27 0 0 1 -20.822 0 8 8 0 0 0 -12.281 0 13.27 13.27 0 0 1 -20.823 0 8 8 0 0 0 -12.281 0 13.27 13.27 0 0 1 -20.823 0 8 8 0 0 0 -12.28 0 13.447 13.447 0 0 1 -10.412 5.043c-7.758 0-14.069-6.852-14.069-15.273a8 8 0 0 0 -8-8c-7.757 0-14.069-6.851-14.069-15.272a15.822 15.822 0 0 1 4.949-11.593 8 8 0 0 0 0-11.724 15.822 15.822 0 0 1 -4.949-11.593c0-8.421 6.312-15.272 14.069-15.272a8 8 0 0 0 8-8c0-8.421 6.311-15.273 14.069-15.273a13.447 13.447 0 0 1 10.411 5.042 8 8 0 0 0 12.28 0 13.27 13.27 0 0 1 20.823 0 8 8 0 0 0 6.14 2.873 8 8 0 0 0 6.14-2.872 13.27 13.27 0 0 1 20.823 0 8 8 0 0 0 12.281 0 13.27 13.27 0 0 1 20.822 0 8 8 0 0 0 12.282 0 13.27 13.27 0 0 1 20.822 0 8 8 0 0 0 12.281 0 13.27 13.27 0 0 1 20.823 0 8 8 0 0 0 12.281 0 13.27 13.27 0 0 1 20.823 0 8 8 0 0 0 12.28 0 13.447 13.447 0 0 1 10.412-5.043c7.758 0 14.069 6.852 14.069 15.273a8 8 0 0 0 8 8c7.757 0 14.069 6.851 14.069 15.272a15.822 15.822 0 0 1 -4.949 11.593 8 8 0 0 0 0 11.724z"/><path d="m88 128a32 32 0 1 0 -32-32 32.036 32.036 0 0 0 32 32zm0-48a16 16 0 1 1 -16 16 16.019 16.019 0 0 1 16-16z"/><path d="m72 320a24 24 0 1 0 24 24 24.027 24.027 0 0 0 -24-24zm0 32a8 8 0 1 1 8-8 8.009 8.009 0 0 1 -8 8z"/><path d="m456 232a24 24 0 1 0 24 24 24.027 24.027 0 0 0 -24-24zm0 32a8 8 0 1 1 8-8 8.009 8.009 0 0 1 -8 8z"/><path d="m336 208a8 8 0 0 0 -8 8 48.054 48.054 0 0 1 -48 48 8 8 0 0 0 0 16 64.072 64.072 0 0 0 64-64 8 8 0 0 0 -8-8z"/></svg>