<svg id="Capa_1" enable-background="new 0 0 512 512" height="512" viewBox="0 0 512 512" width="512" xmlns="http://www.w3.org/2000/svg"><g><g><path d="m475.995 50v134l-347.037 20-92.953-20v-134z" fill="#feda9b"/><path d="m36.005 184h439.99v132.89h-439.99z" fill="#ffc66c"/><path d="m475.995 316.89v115.11c0 9.94-8.05 18-18 18h-403.99c-9.95 0-18-8.06-18-18v-115.11z" fill="#feda9b"/><path d="m121.625 450-14.15 36.8c-3.53 9.16-12.32 15.2-22.14 15.2-13.09 0-23.71-10.62-23.71-23.71v-28.29z" fill="#77797d"/><path d="m451.295 450v28.29c0 13.09-10.62 23.71-23.72 23.71-9.81 0-18.61-6.04-22.13-15.2l-14.15-36.8z" fill="#77797d"/><path d="m502.005 30c0 5.52-2.24 10.52-5.86 14.14s-8.62 5.86-14.14 5.86h-452.01c-11.04 0-19.99-8.95-19.99-20 0-.01 0-.01 0-.02 0-11.04 8.96-19.98 19.99-19.98h452.01c11.04 0 20 8.95 20 20z" fill="#ffb954"/><g fill="#edf2fa"><path d="m296 50.056v19.639c0 11.184-9.066 20.25-20.25 20.25h-39.5c-11.184 0-20.25-9.066-20.25-20.25v-19.639z"/><path d="m296 184v19.639c0 11.184-9.066 20.25-20.25 20.25h-39.5c-11.184 0-20.25-9.066-20.25-20.25v-19.639z"/><path d="m296 317v19.639c0 11.184-9.066 20.25-20.25 20.25h-39.5c-11.184 0-20.25-9.066-20.25-20.25v-19.639z"/></g></g><g><path d="m512 30c0-16.542-13.458-30-30-30h-452c-16.542 0-30 13.458-30 30 0 15.185 11.343 27.763 26 29.725v372.275c0 14.639 11.294 26.682 25.625 27.892v18.395c0 18.59 15.124 33.713 33.713 33.713 13.849 0 26.495-8.685 31.467-21.611l11.688-30.389h255.93l11.688 30.389c4.972 12.926 17.618 21.611 31.467 21.611 18.59 0 33.713-15.124 33.713-33.713v-18.487c13.894-1.635 24.709-13.475 24.709-27.8v-372.275c14.657-1.962 26-14.54 26-29.725zm-306 30v9.694c0 16.68 13.57 30.25 30.25 30.25h39.5c16.68 0 30.25-13.57 30.25-30.25v-9.694h160v114h-293.736c-5.523 0-10 4.477-10 10s4.477 10 10 10h33.736v9.639c0 16.68 13.57 30.25 30.25 30.25h39.5c16.68 0 30.25-13.57 30.25-30.25v-9.639h160v112.889h-420v-112.889h25.625c5.523 0 10-4.477 10-10s-4.477-10-10-10h-25.625v-114zm20 0h60v9.694c0 5.652-4.598 10.25-10.25 10.25h-39.5c-5.652 0-10.25-4.598-10.25-10.25zm0 134h60v9.639c0 5.652-4.598 10.25-10.25 10.25h-39.5c-5.652 0-10.25-4.598-10.25-10.25zm0 132.889h60v9.75c0 5.652-4.598 10.25-10.25 10.25h-39.5c-5.652 0-10.25-4.598-10.25-10.25zm-127.862 156.32c-2.022 5.258-7.166 8.791-12.8 8.791-7.562 0-13.713-6.152-13.713-13.713v-18.287h35.44zm343.154-4.922c0 7.562-6.152 13.713-13.713 13.713-5.634 0-10.777-3.533-12.799-8.791l-8.928-23.209h35.439v18.287zm16.708-38.287h-404c-4.411 0-8-3.589-8-8v-105.111h160v9.75c0 16.68 13.57 30.25 30.25 30.25h39.5c16.68 0 30.25-13.57 30.25-30.25v-9.75h160v105.111c0 4.411-3.589 8-8 8zm24-400h-452c-5.514 0-10-4.486-10-10s4.486-10 10-10h452c5.514 0 10 4.486 10 10s-4.486 10-10 10z"/><circle cx="122.259" cy="183.995" r="10.005"/></g></g></svg>