<svg id="Capa_1" enable-background="new 0 0 512 512" height="512" viewBox="0 0 512 512" width="512" xmlns="http://www.w3.org/2000/svg"><g><g clip-rule="evenodd" fill-rule="evenodd"><path d="m504.517 260.024v161.916c0 22.677-18.568 41.244-41.273 41.244h-414.487c-22.677 0-41.245-18.567-41.245-41.244v-161.916c0-5.244 2.636-7.568 7.568-7.568h481.867c5.302 0 7.57 2.608 7.57 7.568z" fill="#b3e59f"/><path d="m7.512 387.952v-127.928c0-5.244 2.636-7.568 7.568-7.568h260.45c0 16.951-6.435 32.372-16.781 43.568-10.374 11.197-24.662 18.144-40.337 18.144h-38.495c-9.779.026-17.716 8.56-17.83 19.104-1.587 15.137-8.334 28.687-18.312 38.551-10.12 10.006-23.669 16.129-38.495 16.129z" fill="#62d9fa"/><path d="m7.512 387.952v-24.264h73.503c14.825 0 28.347-6.123 38.495-16.13 9.978-9.864 16.725-23.414 18.312-38.551.113-10.573 8.05-19.077 17.83-19.105h38.495c15.676 0 29.962-6.945 40.337-18.142 5.103-5.5 9.242-12.047 12.133-19.305h28.914c0 16.951-6.435 32.372-16.781 43.568-10.374 11.197-24.662 18.144-40.337 18.144h-38.495c-9.779.026-17.716 8.56-17.83 19.104-1.587 15.137-8.334 28.687-18.312 38.551-10.12 10.006-23.669 16.129-38.495 16.129h-97.769z" fill="#52cef0"/><path d="m387.812 48.815c36.766 0 66.559 29.424 66.559 65.707 0 7.852-1.39 15.363-3.94 22.337-1.984 5.442-2.154 6.577 2.239 10.856 17.008 16.555 27.553 39.544 27.553 64.971 0 50.4-41.386 91.247-92.411 91.247-51.024 0-92.411-40.847-92.411-91.247 0-25.257 10.403-48.104 27.213-64.63 4.876-4.819 4.791-5.046 2.466-11.452-2.466-6.889-3.827-14.315-3.827-22.082.001-36.283 29.794-65.707 66.559-65.707z" fill="#78c2a4"/><path d="m387.812 48.815c36.766 0 66.559 29.424 66.559 65.707 0 7.852-1.39 15.363-3.94 22.337-1.984 5.442-2.154 6.577 2.239 10.856 17.008 16.555 27.553 39.544 27.553 64.971 0 50.4-41.386 91.247-92.411 91.247-4.11 0-8.164-.255-12.132-.765 45.298-5.868 80.278-44.137 80.278-90.482 0-25.427-10.545-48.416-27.553-64.971-4.394-4.279-4.224-5.414-2.239-10.856 2.551-6.974 3.94-14.485 3.94-22.337 0-32.201-23.471-58.988-54.426-64.63 3.941-.707 7.994-1.077 12.132-1.077z" fill="#66b394"/><path d="m190.15 114.438c10.715 3.997 18.397 14.343 18.397 26.419 0 15.477-12.671 28.148-28.148 28.148h-98.902c-15.477 0-28.148-12.672-28.148-28.148 0-15.506 12.671-28.176 28.148-28.176 0-12.559 10.205-22.734 22.763-22.734 5.641 0 10.772 2.041 14.74 5.414 5.783-13.125 18.879-22.28 34.13-22.28 20.58 0 37.247 16.668 37.247 37.247 0 1.388-.085 2.777-.227 4.11z" fill="#d2f6ff"/><path d="m438.978 438.919h-427.781c6.491 14.287 20.92 24.266 37.56 24.266h414.487c22.705 0 41.273-18.567 41.273-41.244v-161.917c0-4.96-2.268-7.568-7.569-7.568h-16.696v145.219c-.001 22.678-18.568 41.244-41.274 41.244z" fill="#95d6a4"/><path d="m81.497 169.005h98.902c15.478 0 28.148-12.672 28.148-28.148 0-4.337-.992-8.447-2.749-12.133-4.564 9.439-14.259 16.016-25.399 16.016h-98.902c-11.14 0-20.835-6.576-25.371-16.016-1.786 3.686-2.778 7.796-2.778 12.133.001 15.476 12.672 28.148 28.149 28.148z" fill="#b8f0ff"/></g><path d="m442.805 93.178c-1.559-3.854.312-8.192 4.139-9.751 3.854-1.531 8.192.34 9.751 4.166 1.672 4.252 3.005 8.675 3.855 13.21.879 4.507 1.333 9.1 1.333 13.72 0 4.309-.397 8.532-1.105 12.671-.539 2.948-1.247 5.868-2.126 8.731-2.466 7.936-3.458 3.457 2.098 9.325 8.05 8.504 14.598 18.425 19.219 29.367 4.989 11.764 7.739 24.633 7.739 38.069 0 11.311-1.928 22.167-5.471 32.287h22.281c4.138 0 7.483 3.344 7.483 7.482v169.485c0 13.407-5.471 25.596-14.315 34.44-8.815 8.815-21.005 14.315-34.441 14.315h-414.488c-13.408 0-25.597-5.5-34.441-14.315-8.817-8.844-14.316-21.032-14.316-34.44 0-56.495 0-112.989 0-169.484 0-4.139 3.373-7.482 7.512-7.482h117.016c4.139 0 7.512 3.344 7.512 7.482 0 4.139-3.373 7.512-7.512 7.512h-109.532v42.066h57.232c4.139 0 7.483 3.373 7.483 7.512s-3.345 7.484-7.483 7.484h-57.232v63.41h90.284c6.265 0 12.274-1.247 17.774-3.571 5.754-2.409 10.999-5.951 15.477-10.375 4.422-4.394 8.136-9.609 10.914-15.448 2.693-5.642 4.479-11.85 5.188-18.369.198-7.029 2.948-13.379 7.285-18 4.564-4.932 10.942-7.965 18-7.965v-.029h38.495c6.605 0 12.926-1.445 18.681-4.024 6.095-2.75 11.594-6.747 16.158-11.679 4.649-5.018 8.391-11.027 10.97-17.689 1.616-4.195 2.75-8.645 3.345-13.323h-109.05c-4.139 0-7.512-3.373-7.512-7.512s3.373-7.482 7.512-7.482h117.015 17.859c-3.543-10.12-5.471-20.977-5.471-32.287 0-13.351 2.722-26.164 7.654-37.871 4.422-10.517 10.63-20.126 18.255-28.432 7.683-8.361 5.641-1.021 2.353-13.238-1.616-6.065-2.438-12.33-2.438-18.623 0-20.211 8.306-38.522 21.77-51.789 13.38-13.238 31.89-21.43 52.3-21.43 8.589 0 16.866 1.475 24.606 4.167 8.021 2.806 15.392 6.888 21.827 12.048 3.26 2.579 3.798 7.284 1.219 10.516-2.58 3.232-7.285 3.771-10.517 1.191-5.187-4.139-11.083-7.399-17.433-9.639-6.123-2.126-12.756-3.288-19.701-3.288-16.356 0-31.125 6.548-41.811 17.093-10.658 10.517-17.263 25.059-17.263 41.131 0 6.662 1.134 13.295 3.373 19.559 1.644 4.479 2.466 6.832 1.757 10.348-.708 3.543-2.466 5.471-6.009 8.957-7.881 7.738-14.202 16.98-18.539 27.241-4.139 9.836-6.406 20.664-6.406 32.059 0 23.131 9.467 44.051 24.804 59.188 13.72 13.549 32.116 22.479 52.583 24.236v-20.438l-27.638-27.639c-2.92-2.92-2.92-7.682 0-10.602 2.919-2.92 7.682-2.92 10.602 0l17.036 17.037v-28.063l-27.638-27.667c-2.92-2.919-2.92-7.682 0-10.602 2.919-2.919 7.682-2.919 10.602 0l17.036 17.037v-28.064l-27.638-27.666c-2.92-2.919-2.92-7.682 0-10.602 2.919-2.919 7.682-2.919 10.602 0l17.036 17.036v-29.084c0-4.138 3.373-7.512 7.512-7.512s7.512 3.374 7.512 7.512v29.084l17.037-17.036c2.919-2.919 7.682-2.919 10.602 0 2.919 2.92 2.919 7.683 0 10.602l-27.639 27.666v28.064l17.037-17.037c2.919-2.919 7.682-2.919 10.602 0 2.919 2.92 2.919 7.683 0 10.602l-27.639 27.667v28.063l17.037-17.037c2.919-2.92 7.682-2.92 10.602 0 2.919 2.92 2.919 7.682 0 10.602l-27.639 27.639v20.438c20.467-1.758 38.863-10.688 52.583-24.236 15.337-15.137 24.804-36.057 24.804-59.188 0-11.48-2.325-22.393-6.492-32.287-4.365-10.289-10.8-19.559-18.766-27.326-3.401-3.316-5.074-5.669-5.669-9.07-.567-3.288.198-5.754 1.616-9.694 1.134-3.061 2.013-6.321 2.608-9.694.566-3.26.878-6.633.878-10.092 0-3.77-.368-7.398-1.021-10.913-.711-3.63-1.731-7.117-3.064-10.433zm-265.892-.738c-2.495-3.316-1.843-8.021 1.474-10.488 3.288-2.494 7.993-1.842 10.488 1.446 2.864 3.798 5.131 8.079 6.69 12.729 1.446 4.364 2.268 8.956 2.324 13.69 4.677 2.664 8.703 6.35 11.764 10.715 4.025 5.783 6.407 12.784 6.407 20.324 0 9.809-4.025 18.736-10.488 25.172-6.463 6.463-15.364 10.488-25.172 10.488h-98.903c-9.808 0-18.709-4.025-25.172-10.488-6.463-6.436-10.488-15.363-10.488-25.172 0-9.808 4.025-18.736 10.488-25.2 4.932-4.933 11.339-8.447 18.454-9.836 1.304-5.585 4.167-10.601 8.079-14.514 5.499-5.471 13.04-8.872 21.402-8.872 3.656 0 7.172.652 10.432 1.871.539.198 1.077.396 1.616.623 3.345-4.848 7.597-8.957 12.444-12.104 7.171-4.648 15.675-7.257 24.605-7.229 4.11.028 7.455 3.373 7.427 7.512 0 4.11-3.373 7.455-7.483 7.427-5.953 0-11.623 1.729-16.413 4.819-4.706 3.061-8.561 7.482-10.942 12.84-.312.709-.709 1.418-1.247 2.041-2.693 3.119-7.398 3.487-10.545.822-2.778-2.381-6.265-3.628-9.893-3.628-4.195 0-8.022 1.7-10.772 4.479-2.778 2.75-4.479 6.577-4.479 10.772 0 4.166-3.345 7.512-7.512 7.512-5.669 0-10.828 2.324-14.57 6.065-3.742 3.771-6.066 8.929-6.066 14.599s2.324 10.828 6.066 14.57c3.742 3.77 8.901 6.094 14.57 6.094h98.902c5.669 0 10.829-2.324 14.571-6.094 3.742-3.742 6.094-8.9 6.094-14.57 0-4.365-1.389-8.419-3.713-11.764s-5.612-5.982-9.411-7.483c-3.374-1.049-5.641-4.366-5.244-7.993.142-1.135.17-2.155.17-3.289 0-3.373-.51-6.52-1.502-9.439-1.023-3.06-2.525-5.896-4.452-8.447zm-123.876 264.983c-4.139 0-7.483-3.373-7.483-7.512s3.345-7.482 7.483-7.482h64.659c4.139 0 7.483 3.344 7.483 7.482 0 4.139-3.345 7.512-7.483 7.512zm79.938-66.586c-4.139 0-7.483-3.373-7.483-7.512s3.345-7.482 7.483-7.482h88.64c4.139 0 7.483 3.344 7.483 7.482s-3.345 7.512-7.483 7.512zm262.349 81.865c0 4.139-3.373 7.483-7.512 7.483s-7.512-3.345-7.512-7.483v-61.54c-24.549-1.814-46.659-12.388-63.072-28.602-6.747-6.661-12.529-14.259-17.122-22.593h-17.461c-.68 6.52-2.211 12.812-4.479 18.709-3.26 8.419-8.022 16.016-13.946 22.422-5.981 6.463-13.096 11.68-20.977 15.223-7.682 3.458-16.073 5.357-24.832 5.357h-38.495c-2.693 0-5.216 1.19-7.058 3.175-2.835 3.062-2.948 5.442-3.316 9.185-.879 8.334-3.146 16.242-6.548 23.385-3.543 7.428-8.277 14.117-13.975 19.729-5.839 5.755-12.671 10.403-20.239 13.55-7.285 3.062-15.222 4.762-23.5 4.762h-90.284v26.477c0 9.269 3.798 17.716 9.922 23.839 6.123 6.095 14.57 9.921 23.839 9.921h414.487c9.297 0 17.716-3.826 23.839-9.921 6.123-6.123 9.921-14.57 9.921-23.839v-161.973h-21.487c-4.592 8.334-10.375 15.932-17.121 22.593-16.413 16.214-38.523 26.787-63.072 28.602z"/></g></svg>