<svg id="Capa_1" enable-background="new 0 0 512 512" height="512" viewBox="0 0 512 512" width="512" xmlns="http://www.w3.org/2000/svg"><g><g><path d="m334.814 36.614c38.818-38.818 101.755-38.818 140.573 0s38.818 101.755 0 140.573l-298.2 298.2c-38.818 38.818-101.755 38.818-140.573 0s-38.818-101.755 0-140.573z" fill="#fddeb0"/><path d="m475.386 36.614c-22.339-22.339-52.665-31.819-81.786-28.446 21.482 2.488 42.307 11.967 58.786 28.446 38.818 38.818 38.818 101.755 0 140.573l-298.2 298.2c-16.479 16.479-37.305 25.958-58.786 28.446 29.121 3.372 59.447-6.107 81.786-28.446l298.2-298.2c38.819-38.819 38.819-101.755 0-140.573z" fill="#fccd7f"/><path d="m298.408 268.482-15.814-36.9c-.419-.978-1.198-1.756-2.175-2.175l-36.9-15.814c-1.557-.667-3.363-.319-4.56.878l-17.12 17.12c-2.072 2.072-1.396 5.581 1.297 6.735l13.355 5.723c2.693 1.154 3.369 4.663 1.297 6.735l-23.316 23.316c-1.617 1.617-1.617 4.24 0 5.857l17.572 17.572c1.617 1.617 4.24 1.617 5.857 0l23.316-23.316c2.072-2.072 5.581-1.396 6.735 1.297l5.723 13.355c1.154 2.693 4.664 3.369 6.735 1.297l17.12-17.121c1.197-1.196 1.545-3.002.878-4.559z" fill="#b3e59f"/><path d="m298.408 268.482-15.814-36.9c-.419-.977-1.198-1.756-2.175-2.175l-36.9-15.814c-1.557-.667-3.363-.319-4.56.878l-4.917 4.917 23.378 10.019c.978.419 1.756 1.198 2.175 2.175l15.814 36.9c.667 1.557.319 3.363-.878 4.56l-5.346 5.346 4.49 10.477c1.154 2.693 4.663 3.369 6.735 1.297l17.12-17.12c1.197-1.197 1.545-3.003.878-4.56z" fill="#95d6a4"/><g><path d="m402.085 156.772 11.714-11.714c6.47-6.47 6.47-16.959 0-23.429l-23.428-23.429c-6.47-6.47-16.959-6.47-23.429 0l-11.714 11.714 10.428 28.57z" fill="#365e7d"/><path d="m413.8 121.629-23.429-23.429c-6.401-6.401-16.73-6.458-23.214-.194.07.067.146.125.214.194l23.429 23.429c6.469 6.47 6.469 16.959 0 23.429l-4.028 4.028 15.313 7.687 11.715-11.715c6.469-6.47 6.469-16.959 0-23.429z" fill="#2b4d66"/><g><path d="m331.799 86.486-17.323 4.998-6.105 18.43 18.164 18.165c2.782 2.782 3.221 7.138 1.048 10.418-8.524 12.865-7.118 30.369 4.217 41.704s28.839 12.74 41.704 4.217c3.28-2.173 7.636-1.734 10.418 1.048l18.165 18.164 17.797-5.728 5.632-17.7z" fill="#f9f6f6"/><path d="m395.827 232.515 24.23 24.23c6.248 6.248 16.379 6.248 22.627 0l35.945-35.945c6.248-6.248 6.248-16.379 0-22.627l-24.23-24.23c-6.248-6.248-16.379-6.248-22.627 0l-35.945 35.945c-6.248 6.248-6.248 16.379 0 22.627z" fill="#dd636e"/><path d="m478.629 198.173-24.23-24.23c-6.248-6.248-16.379-6.248-22.627 0l-.176.175 24.055 24.055c6.249 6.249 6.249 16.379 0 22.627l-35.769 35.769.176.175c6.248 6.249 16.379 6.249 22.627 0l35.945-35.945c6.248-6.246 6.248-16.377-.001-22.626z" fill="#da4a54"/><path d="m255.255 91.943 24.23 24.23c6.248 6.248 16.379 6.248 22.627 0l35.945-35.945c6.248-6.248 6.248-16.379 0-22.627l-24.23-24.23c-6.248-6.248-16.379-6.248-22.627 0l-35.945 35.945c-6.249 6.248-6.249 16.378 0 22.627z" fill="#dd636e"/><path d="m338.057 57.601-24.23-24.23c-6.248-6.249-16.379-6.249-22.628 0l-.176.175 24.055 24.055c6.249 6.248 6.249 16.379 0 22.627l-35.769 35.769.176.175c6.248 6.249 16.379 6.249 22.627 0l35.945-35.945c6.248-6.247 6.248-16.378 0-22.626z" fill="#da4a54"/></g></g><g><g><path d="m156.772 402.085-11.714 11.715c-6.47 6.47-16.959 6.47-23.429 0l-23.429-23.429c-6.47-6.47-6.47-16.959 0-23.429l11.714-11.714 28.57 10.428z" fill="#365e7d"/><path d="m121.629 413.8-23.429-23.429c-6.401-6.401-6.458-16.73-.194-23.214.067.07.125.146.194.214l23.429 23.429c6.47 6.469 16.959 6.469 23.429 0l4.028-4.028 7.687 15.313-11.715 11.715c-6.47 6.469-16.959 6.469-23.429 0z" fill="#2b4d66"/><g><path d="m180.193 425.522 17.323-4.998 6.105-18.431-18.164-18.164c-2.782-2.782-3.221-7.138-1.048-10.418 8.524-12.865 7.118-30.369-4.217-41.704s-28.839-12.74-41.704-4.217c-3.28 2.173-7.636 1.734-10.418-1.048l-18.164-18.164-17.797 5.728-5.632 17.7z" fill="#f9f6f6"/><path d="m173.935 454.407 24.23 24.23c6.248 6.248 16.379 6.248 22.627 0l35.945-35.945c6.248-6.248 6.248-16.379 0-22.627l-24.23-24.23c-6.248-6.248-16.379-6.248-22.627 0l-35.945 35.945c-6.248 6.248-6.248 16.379 0 22.627z" fill="#dd636e"/><path d="m256.738 420.065-24.23-24.23c-6.248-6.249-16.379-6.249-22.627 0l-.176.175 24.055 24.055c6.249 6.249 6.249 16.379 0 22.628l-35.769 35.769.176.176c6.248 6.249 16.379 6.249 22.628 0l35.945-35.945c6.246-6.249 6.246-16.379-.002-22.628z" fill="#da4a54"/><path d="m33.363 313.834 24.23 24.23c6.248 6.248 16.379 6.248 22.627 0l35.945-35.945c6.248-6.248 6.248-16.379 0-22.627l-24.23-24.23c-6.248-6.248-16.379-6.248-22.627 0l-35.945 35.945c-6.249 6.248-6.249 16.379 0 22.627z" fill="#dd636e"/><path d="m116.165 279.492-24.23-24.23c-6.248-6.249-16.379-6.249-22.627 0l-.176.175 24.055 24.055c6.249 6.249 6.249 16.379 0 22.628l-35.769 35.769.175.176c6.248 6.248 16.379 6.248 22.627 0l35.945-35.945c6.248-6.248 6.248-16.379 0-22.628z" fill="#da4a54"/></g></g></g></g><g><path d="m355.228 164.273c1.919 0 3.839-.733 5.304-2.197l2.929-2.929c2.929-2.929 2.929-7.678 0-10.606-2.93-2.929-7.678-2.929-10.607 0l-2.929 2.929c-2.929 2.929-2.929 7.678 0 10.607 1.464 1.463 3.384 2.196 5.303 2.196z"/><path d="m477.122 186.058 3.569-3.569c41.679-41.681 41.679-109.499 0-151.179-20.192-20.19-47.037-31.31-75.59-31.31-28.555 0-55.399 11.12-75.591 31.311l-3.568 3.568-6.811-6.811c-4.439-4.438-10.34-6.883-16.617-6.883s-12.179 2.445-16.617 6.883l-35.943 35.944c-4.439 4.439-6.884 10.34-6.884 16.618 0 6.277 2.444 12.179 6.883 16.617l6.811 6.812-152.706 152.704-6.812-6.811c-9.162-9.162-24.07-9.163-33.234 0l-35.945 35.945c-9.162 9.162-9.162 24.071 0 33.234l6.812 6.812-3.569 3.569c-41.679 41.681-41.679 109.499 0 151.179 20.191 20.189 47.036 31.309 75.589 31.309 28.555 0 55.399-11.12 75.591-31.31l3.568-3.568 6.812 6.811c4.438 4.439 10.34 6.883 16.617 6.883s12.179-2.445 16.617-6.883l35.943-35.944c4.439-4.439 6.884-10.34 6.884-16.618 0-6.277-2.444-12.179-6.883-16.617l-6.811-6.812 152.705-152.705 6.811 6.811c4.439 4.439 10.34 6.883 16.617 6.883s12.179-2.445 16.617-6.883l35.945-35.945c9.162-9.162 9.162-24.071 0-33.234zm-137.005-144.141c17.358-17.357 40.436-26.917 64.984-26.917 24.547 0 47.625 9.56 64.982 26.917 35.831 35.832 35.831 94.134 0 129.966l-3.568 3.568-6.811-6.812c-4.439-4.438-10.34-6.883-16.617-6.883s-12.179 2.444-16.618 6.883l-.954.954-12.822-12.822 6.412-6.411c9.383-9.383 9.383-24.652 0-34.035l-23.429-23.429c-9.385-9.384-24.651-9.383-34.036 0l-6.411 6.411-12.822-12.822.955-.955c9.161-9.162 9.161-24.071 0-33.234l-6.812-6.812zm-8.279 80.859-12.861-12.861 12.822-12.823 83.108 83.108-12.822 12.822-12.86-12.86c-3.038-3.039-7.092-4.607-11.172-4.607-3.016 0-6.046.857-8.692 2.61-10.104 6.695-23.671 5.32-32.258-3.268-8.588-8.588-9.962-22.154-3.268-32.257 4.125-6.225 3.286-14.58-1.997-19.864zm76.659 16.979-6.412 6.411-36.251-36.251 6.412-6.411c1.712-1.712 3.989-2.655 6.41-2.655 2.422 0 4.699.943 6.411 2.655l23.429 23.429c3.535 3.535 3.535 9.287.001 12.822zm-147.938-65.137 18.525-18.525 18.125 18.125c1.465 1.464 3.385 2.197 5.304 2.197s3.839-.732 5.304-2.197c2.929-2.929 2.929-7.678 0-10.606l-18.126-18.125 6.812-6.812c1.605-1.605 3.739-2.49 6.01-2.49s4.404.884 6.01 2.49l24.23 24.23c3.315 3.314 3.315 8.707 0 12.021l-35.943 35.944c-3.315 3.316-8.708 3.314-12.022 0l.001.001-24.23-24.231c-1.605-1.605-2.489-3.74-2.489-6.01-.002-2.272.882-4.406 2.489-6.012zm-221.885 221.884 6.812-6.811 18.125 18.125c1.465 1.464 3.385 2.197 5.304 2.197s3.839-.732 5.304-2.197c2.929-2.929 2.929-7.678 0-10.606l-18.125-18.125 18.527-18.526c1.656-1.657 3.833-2.485 6.01-2.485s4.354.829 6.01 2.485l24.23 24.23c3.314 3.314 3.314 8.706 0 12.021l-35.943 35.944c-1.606 1.606-3.741 2.49-6.012 2.49s-4.404-.884-6.01-2.49l-24.23-24.23c-3.317-3.315-3.317-8.708-.002-12.022zm141.488 92.722 12.861 12.861-12.822 12.823-18.117-18.117c-.003-.003-.005-.006-.008-.009l-46.857-46.857c-.002-.002-.004-.004-.006-.006l-18.12-18.12 12.822-12.822 12.86 12.86c5.283 5.284 13.637 6.122 19.864 1.998 10.104-6.694 23.672-5.32 32.258 3.268 8.588 8.588 9.962 22.154 3.268 32.257-4.125 6.225-3.286 14.58 1.997 19.864zm-76.659-16.979 6.412-6.411 36.251 36.251-6.412 6.411c-1.712 1.712-3.989 2.655-6.41 2.655-2.422 0-4.699-.943-6.411-2.655l-23.429-23.429c-3.535-3.535-3.535-9.287-.001-12.822zm68.38 97.838c-17.358 17.357-40.436 26.917-64.984 26.917-24.547 0-47.625-9.56-64.982-26.917-35.831-35.832-35.831-94.134 0-129.966l3.568-3.568 6.812 6.811c4.438 4.438 10.34 6.883 16.617 6.883s12.179-2.444 16.618-6.883l.954-.954 12.822 12.822-6.412 6.411c-9.383 9.383-9.383 24.652 0 34.035l23.429 23.429c4.692 4.692 10.855 7.038 17.018 7.038s12.326-2.346 17.018-7.038l6.411-6.411 12.822 12.822-.955.954c-9.161 9.163-9.161 24.071 0 33.234l6.812 6.812zm79.558-32.701-18.525 18.525-18.125-18.125c-2.93-2.929-7.678-2.929-10.607 0s-2.929 7.678 0 10.607l18.126 18.125-6.812 6.812c-1.605 1.605-3.739 2.49-6.01 2.49s-4.404-.884-6.01-2.49l-24.23-24.23c-3.314-3.314-3.314-8.707 0-12.021l35.943-35.944c1.657-1.657 3.834-2.485 6.011-2.485 2.178 0 4.354.828 6.012 2.485h-.001l24.23 24.231c1.605 1.605 2.489 3.74 2.489 6.01s-.884 4.404-2.491 6.01zm-6.81-40.046-6.811-6.812h-.001c-9.162-9.162-24.07-9.16-33.234 0l-.954.954-12.86-12.86c-.259-.259-.302-.668-.1-.973 10.618-16.027 8.446-37.538-5.165-51.149-13.613-13.613-35.125-15.783-51.15-5.166-.305.203-.714.16-.972-.099l-12.861-12.861.955-.955c9.162-9.163 9.162-24.072 0-33.234l-6.812-6.812 152.705-152.705 6.811 6.812h.001c4.581 4.58 10.599 6.871 16.616 6.871 6.018 0 12.036-2.29 16.618-6.871l.954-.954 12.86 12.86c.259.259.302.668.1.973-10.618 16.027-8.446 37.538 5.165 51.149 13.612 13.612 35.123 15.783 51.15 5.166.304-.204.713-.161.972.099l12.861 12.861-.955.955c-9.162 9.163-9.162 24.072 0 33.234l6.812 6.812zm228.695-181.838-6.812 6.811-18.125-18.125c-2.93-2.929-7.678-2.929-10.607 0s-2.929 7.678 0 10.606l18.126 18.125-18.527 18.527c-1.605 1.605-3.739 2.49-6.01 2.49s-4.404-.884-6.01-2.49l-24.23-24.23c-3.314-3.314-3.314-8.707 0-12.021l6.257-6.257s.001-.001.001-.001l23.429-23.429c.001-.001.002-.003.004-.004l6.253-6.253c1.607-1.606 3.741-2.49 6.012-2.49s4.404.884 6.01 2.49l24.23 24.23c3.314 3.314 3.314 8.707-.001 12.021z"/><path d="m151.469 349.924-2.929 2.929c-2.929 2.929-2.929 7.678 0 10.607 1.465 1.464 3.385 2.197 5.304 2.197s3.839-.732 5.304-2.197l2.929-2.929c2.929-2.929 2.929-7.678 0-10.606-2.931-2.929-7.679-2.929-10.608-.001z"/><path d="m305.302 265.528-15.814-36.9c-1.183-2.76-3.354-4.931-6.115-6.114l-36.898-15.814c-4.399-1.886-9.433-.918-12.819 2.468l-17.121 17.121c-2.734 2.735-3.931 6.635-3.198 10.433.731 3.798 3.29 6.975 6.846 8.499l8.795 3.77-19.81 19.809c-4.539 4.539-4.539 11.924 0 16.463l17.572 17.572c2.27 2.269 5.25 3.404 8.231 3.404 2.98-.001 5.963-1.135 8.233-3.404l19.808-19.809 3.77 8.796c1.523 3.554 4.701 6.113 8.498 6.845 3.796.732 7.697-.463 10.435-3.2l17.118-17.119c3.385-3.387 4.355-8.418 2.469-12.82zm-26.689 15.824-3.77-8.796c-1.523-3.554-4.701-6.113-8.498-6.845-3.795-.729-7.696.464-10.435 3.2l-20.94 20.941-12.823-12.822 20.942-20.941c2.735-2.735 3.932-6.636 3.199-10.435-.731-3.798-3.291-6.975-6.846-8.498l-8.795-3.77 12.005-12.005 33.576 14.39 14.39 33.575z"/></g></g></svg>