<?xml version="1.0" encoding="iso-8859-1"?>
<!-- Generator: Adobe Illustrator 19.0.0, SVG Export Plug-In . SVG Version: 6.00 Build 0)  -->
<svg version="1.1" id="Capa_1" xmlns="http://www.w3.org/2000/svg" xmlns:xlink="http://www.w3.org/1999/xlink" x="0px" y="0px"
	 viewBox="0 0 512.004 512.004" style="enable-background:new 0 0 512.004 512.004;" xml:space="preserve">
<g>
	<path style="fill:#38444C;" d="M488.747,208.834c-1.849-3.702-6.349-5.202-10.054-3.351l-21.101,10.551l-22.06-3.288l37.275-49.758
		c2.481-3.312,1.807-8.009-1.505-10.49c-3.312-2.482-8.01-1.808-10.491,1.505l-15.739,21.009l-7.923-19.356
		c-1.568-3.83-5.945-5.666-9.773-4.096c-3.831,1.568-5.664,5.944-4.097,9.773l11.321,27.657l-18.578,24.801
		c-0.005,0.006-0.009,0.012-0.014,0.019l-28.385,37.891c-2.481,3.312-1.807,8.009,1.505,10.49c1.348,1.009,2.924,1.497,4.487,1.497
		c2.279,0,4.531-1.036,6.004-3.001l25.703-34.311l32.402,4.83c0.367,0.055,0.736,0.082,1.104,0.082c1.158,0,2.307-0.269,3.351-0.791
		l23.217-11.609C489.098,217.037,490.598,212.536,488.747,208.834z"/>
	<path style="fill:#38444C;" d="M71.347,201.244c1.258-1.3,2.721-2.84,4.46-4.674c4.241-4.468,8.431-9.001,8.473-9.046
		c1.28-1.385,1.991-3.201,1.991-5.086v-30.473c0-4.138-3.354-7.493-7.493-7.493s-7.493,3.355-7.493,7.493v27.532
		c-3.133,3.367-6.406,6.836-9.051,9.583l-26.279-35.079c-2.481-3.312-7.179-3.985-10.491-1.505
		c-3.311,2.481-3.985,7.178-1.505,10.49l31.347,41.845c0,0,0,0,0,0.001l0,0l11.174,14.916l-27.862-3.393
		c-4.118-0.503-7.845,2.424-8.346,6.532c-0.5,4.108,2.425,7.844,6.532,8.345l42.12,5.13l18.223,24.324
		c1.473,1.965,3.724,3.001,6.004,3.001c1.563,0,3.14-0.488,4.487-1.497c3.311-2.481,3.985-7.178,1.505-10.49L71.347,201.244z"/>
</g>
<circle style="fill:#F1F2F2;" cx="248.611" cy="122.611" r="122.611"/>
<path style="fill:#DDDDDD;" d="M357.132,179.687c-20.528,38.968-61.428,65.528-108.527,65.528c-67.717,0-122.6-54.895-122.6-122.611
	c0-43.849,23.018-82.314,57.631-103.981c-9.002,17.044-14.083,36.467-14.083,57.072c0,67.716,54.894,122.611,122.611,122.611
	C316.02,198.305,338.29,191.492,357.132,179.687z"/>
<circle style="fill:#F1F2F2;" cx="248.611" cy="340.996" r="171.008"/>
<path style="fill:#DDDDDD;" d="M399.971,420.604c-28.632,54.351-85.677,91.394-151.367,91.394
	c-94.447,0-170.995-76.564-170.995-171.011c0-61.158,32.105-114.807,80.38-145.027c-12.556,23.772-19.643,50.861-19.643,79.601
	c0,94.447,76.564,171.011,171.011,171.011C342.63,446.572,373.691,437.07,399.971,420.604z"/>
<path style="fill:#00997C;" d="M376.546,225.026H120.671c-3.015,0-5.46-2.445-5.46-5.46v-51.172c0-3.015,2.445-5.46,5.46-5.46
	h255.875c3.015,0,5.46,2.445,5.46,5.46v51.172C382.006,222.582,379.561,225.026,376.546,225.026z"/>
<path style="fill:#02876E;" d="M189.467,225.026h-68.796c-3.014,0-5.46-2.446-5.46-5.46v-51.17c0-3.014,2.446-5.46,5.46-5.46h68.796
	c-3.014,0-5.46,2.446-5.46,5.46v51.17C184.006,222.58,186.452,225.026,189.467,225.026z"/>
<circle style="fill:#565656;" cx="248.611" cy="269.55" r="20.062"/>
<path style="fill:#474747;" d="M265.694,280.072c-3.533,5.726-9.862,9.541-17.084,9.541c-11.081,0-20.063-8.982-20.063-20.06
	c0-6.702,3.965-15.047,10.568-17.552c-0.029,2.191-0.55,5.061-0.003,7.19c1.784,6.954,8.509,14.498,15.043,17.26
	C255.228,276.902,265.415,280.523,265.694,280.072z"/>
<circle style="fill:#565656;" cx="248.611" cy="336.161" r="20.062"/>
<path style="fill:#474747;" d="M265.694,346.683c-3.533,5.726-9.862,9.541-17.084,9.541c-11.081,0-20.063-8.982-20.063-20.06
	c0-6.702,3.965-15.047,10.568-17.552c-0.029,2.191-0.55,5.06-0.003,7.19c1.784,6.954,8.509,14.498,15.043,17.26
	C255.228,343.514,265.415,347.135,265.694,346.683z"/>
<rect x="307.938" y="225.03" style="fill:#00997C;" width="58.238" height="97.114"/>
<g>
	<circle style="fill:#38444C;" cx="199.465" cy="81.859" r="14.137"/>
	<circle style="fill:#38444C;" cx="297.747" cy="81.859" r="14.137"/>
	<path style="fill:#38444C;" d="M248.609,141.485c-9.297,0-17.749-5.122-22.056-13.368c-1.982-3.796-0.514-8.479,3.282-10.462
		c3.794-1.982,8.478-0.514,10.462,3.282c1.625,3.11,4.81,5.042,8.313,5.042c3.503,0,6.687-1.931,8.311-5.041
		c1.982-3.797,6.669-5.265,10.462-3.283c3.796,1.982,5.265,6.666,3.284,10.462C266.358,136.362,257.907,141.485,248.609,141.485z"/>
</g>
<circle style="fill:#FF8E7B;" cx="248.611" cy="95.995" r="8.637"/>
<g>
	<path style="fill:#00997C;" d="M315.259,354.802c-4.139,0-7.493-3.355-7.493-7.493v-25.394c0-4.138,3.354-7.493,7.493-7.493
		s7.493,3.355,7.493,7.493v25.394C322.752,351.447,319.398,354.802,315.259,354.802z"/>
	<path style="fill:#00997C;" d="M336.787,354.802c-4.139,0-7.493-3.355-7.493-7.493v-25.394c0-4.138,3.354-7.493,7.493-7.493
		s7.493,3.355,7.493,7.493v25.394C344.281,351.447,340.927,354.802,336.787,354.802z"/>
	<path style="fill:#00997C;" d="M358.686,354.802c-4.139,0-7.493-3.355-7.493-7.493v-25.394c0-4.138,3.354-7.493,7.493-7.493
		s7.493,3.355,7.493,7.493v25.394C366.179,351.447,362.825,354.802,358.686,354.802z"/>
</g>
<g>
</g>
<g>
</g>
<g>
</g>
<g>
</g>
<g>
</g>
<g>
</g>
<g>
</g>
<g>
</g>
<g>
</g>
<g>
</g>
<g>
</g>
<g>
</g>
<g>
</g>
<g>
</g>
<g>
</g>
</svg>
