<?xml version="1.0" encoding="iso-8859-1"?>
<!-- Generator: Adobe Illustrator 19.0.0, SVG Export Plug-In . SVG Version: 6.00 Build 0)  -->
<svg version="1.1" id="Capa_1" xmlns="http://www.w3.org/2000/svg" xmlns:xlink="http://www.w3.org/1999/xlink" x="0px" y="0px"
	 viewBox="0 0 512 512" style="enable-background:new 0 0 512 512;" xml:space="preserve">
<circle style="fill:#FFE17D;" cx="256" cy="256" r="144.29"/>
<path style="fill:#FFD164;" d="M280.048,376.242c-79.689,0-144.29-64.601-144.29-144.29c0-33.712,11.654-64.651,31.028-89.214
	C133.288,169.161,111.71,210.023,111.71,256c0,79.689,64.601,144.29,144.29,144.29c45.977,0,86.839-21.578,113.262-55.077
	C344.699,364.588,313.761,376.242,280.048,376.242z"/>
<g>
	<path style="fill:#FF8087;" d="M205.159,272.032h-24.123c-12.128,0-22.358-9.031-23.863-21.066l-3.13-25.043
		c-1.196-9.569,6.265-18.021,15.908-18.021h49.483c10.43,0,18.083,9.802,15.554,19.921l-6.498,25.993
		C225.813,264.522,216.194,272.032,205.159,272.032z"/>
	<path style="fill:#FF8087;" d="M306.841,272.032h24.123c12.128,0,22.358-9.031,23.863-21.066l3.13-25.043
		c1.196-9.569-6.265-18.021-15.908-18.021h-49.483c-10.43,0-18.083,9.802-15.554,19.921l6.498,25.993
		C286.187,264.522,295.806,272.032,306.841,272.032z"/>
</g>
<g>
	<path style="fill:#E6646E;" d="M155.854,240.416c2.689-4.993,7.931-8.464,14.098-8.464h49.482c5.386,0,9.996,2.639,12.881,6.561
		l2.671-10.689c2.53-10.119-5.124-19.92-15.553-19.92h-49.482c-9.644,0-17.105,8.452-15.909,18.021L155.854,240.416z"/>
	<path style="fill:#E6646E;" d="M279.684,238.513c2.885-3.922,7.495-6.562,12.881-6.562h49.482c6.167,0,11.409,3.471,14.098,8.464
		l1.811-14.492c1.196-9.569-6.265-18.021-15.909-18.021h-49.482c-10.429,0-18.083,9.802-15.553,19.92L279.684,238.513z"/>
</g>
<path d="M79.129,256c0-4.142-3.358-7.5-7.5-7.5H7.5c-4.142,0-7.5,3.358-7.5,7.5s3.358,7.5,7.5,7.5h64.129
	C75.771,263.5,79.129,260.142,79.129,256z"/>
<path d="M504.5,248.5h-64.129c-4.142,0-7.5,3.358-7.5,7.5s3.358,7.5,7.5,7.5H504.5c4.142,0,7.5-3.358,7.5-7.5
	S508.642,248.5,504.5,248.5z"/>
<path d="M256,79.129c4.142,0,7.5-3.357,7.5-7.5V7.5c0-4.142-3.358-7.5-7.5-7.5s-7.5,3.358-7.5,7.5v64.129
	C248.5,75.771,251.858,79.129,256,79.129z"/>
<path d="M256,432.871c-4.142,0-7.5,3.357-7.5,7.5V504.5c0,4.142,3.358,7.5,7.5,7.5s7.5-3.358,7.5-7.5v-64.129
	C263.5,436.229,260.142,432.871,256,432.871z"/>
<path d="M120.327,130.934c1.464,1.464,3.384,2.196,5.303,2.196s3.839-0.732,5.303-2.196c2.929-2.929,2.929-7.678,0-10.606
	L85.587,74.98c-2.929-2.929-7.678-2.929-10.606,0c-2.929,2.929-2.929,7.678,0,10.606L120.327,130.934z"/>
<path d="M391.673,381.066c-2.928-2.929-7.677-2.929-10.606,0s-2.929,7.678,0,10.606l45.346,45.347
	c1.464,1.464,3.384,2.196,5.303,2.196s3.839-0.732,5.303-2.196c2.929-2.929,2.929-7.678,0-10.606L391.673,381.066z"/>
<path d="M386.37,133.13c1.919,0,3.839-0.732,5.303-2.196l45.346-45.347c2.929-2.929,2.929-7.678,0-10.606
	c-2.929-2.929-7.678-2.929-10.606,0l-45.346,45.347c-2.929,2.929-2.929,7.678,0,10.606
	C382.531,132.398,384.451,133.13,386.37,133.13z"/>
<path d="M120.327,381.066l-45.346,45.347c-2.929,2.929-2.929,7.678,0,10.606c1.464,1.464,3.384,2.196,5.303,2.196
	s3.839-0.732,5.303-2.196l45.346-45.347c2.929-2.929,2.929-7.678,0-10.606C128.004,378.138,123.255,378.138,120.327,381.066z"/>
<path d="M256,335.646c17.929,0,34.527-6.703,45.539-18.39c2.841-3.015,2.7-7.761-0.315-10.602s-7.762-2.7-10.602,0.315
	c-8.069,8.563-21.012,13.676-34.622,13.676s-26.553-5.113-34.622-13.676c-2.84-3.015-7.587-3.156-10.602-0.315
	s-3.156,7.587-0.315,10.602C221.473,328.942,238.071,335.646,256,335.646z"/>
<path d="M374.555,161.285c-2.589-3.233-7.309-3.756-10.542-1.167c-3.233,2.589-3.756,7.309-1.167,10.542
	c9.34,11.665,16.471,24.425,21.438,37.759h-24.545c-0.016-0.019-0.031-0.039-0.048-0.057c-4.465-5.058-10.895-7.959-17.642-7.959
	h-49.483c-6.848,0-13.222,2.905-17.693,8.016h-37.747c-4.47-5.111-10.845-8.016-17.693-8.016H169.95
	c-6.747,0-13.177,2.901-17.642,7.959c-0.017,0.019-0.031,0.038-0.048,0.057h-24.565c6.668-17.963,17.213-34.78,31.578-49.145
	c49.357-49.357,127.628-53.708,182.065-10.12c3.233,2.589,7.953,2.065,10.542-1.167c2.589-3.233,2.066-7.953-1.167-10.542
	C290.3,89.071,203.438,93.896,148.666,148.668s-59.597,141.633-11.223,202.047c1.481,1.85,3.66,2.812,5.859,2.812
	c1.644,0,3.3-0.538,4.683-1.646c3.233-2.589,3.756-7.309,1.167-10.542c-27.425-34.251-35.866-77.937-26.065-117.92h23.342
	c-0.025,1.141,0.026,2.288,0.169,3.435l3.13,25.043c1.969,15.754,15.427,27.635,31.305,27.635h24.123
	c14.503,0,27.089-9.827,30.606-23.896l6.499-25.993c0.517-2.066,0.741-4.156,0.7-6.223h26.072c-0.041,2.067,0.184,4.157,0.7,6.224
	l6.499,25.992c3.517,14.07,16.103,23.897,30.606,23.897h24.123c15.877,0,29.335-11.881,31.305-27.635l3.13-25.042
	c0.143-1.146,0.195-2.294,0.169-3.435h23.336c11.092,45.133-1.308,94.435-36.179,129.306
	c-49.357,49.357-127.628,53.708-182.065,10.12c-3.234-2.59-7.953-2.066-10.542,1.167s-2.066,7.953,1.167,10.542
	c27.861,22.309,61.342,33.302,94.712,33.302c38.988,0,77.823-15.013,107.335-44.524C418.104,308.56,422.929,221.699,374.555,161.285
	z M227.712,226.005l-6.499,25.993c-1.845,7.38-8.447,12.535-16.054,12.535h-24.123c-8.328,0-15.388-6.231-16.421-14.496
	l-3.13-25.043c-0.308-2.463,0.427-4.844,2.07-6.705c1.643-1.861,3.915-2.886,6.396-2.886h49.483c2.646,0,5.097,1.196,6.725,3.281
	C227.788,220.77,228.354,223.438,227.712,226.005z M350.515,224.994l-3.13,25.042c-1.033,8.265-8.093,14.496-16.421,14.496h-24.123
	c-7.607,0-14.209-5.154-16.054-12.535l-6.498-25.992c-0.642-2.566-0.076-5.235,1.552-7.32s4.08-3.281,6.725-3.281h49.483
	c2.482,0,4.753,1.025,6.396,2.886C350.088,220.149,350.823,222.531,350.515,224.994z"/>
<path d="M178.515,88.533c1.196,2.889,3.989,4.632,6.932,4.632c0.957,0,1.929-0.184,2.867-0.572c3.827-1.585,5.644-5.973,4.059-9.8
	l-12.27-29.623c-1.585-3.827-5.973-5.644-9.799-4.06c-3.827,1.585-5.644,5.973-4.059,9.8L178.515,88.533z"/>
<path d="M333.485,423.467c-1.585-3.827-5.972-5.644-9.799-4.06c-3.827,1.585-5.644,5.973-4.059,9.8l12.271,29.623
	c1.196,2.889,3.989,4.632,6.932,4.632c0.957,0,1.929-0.184,2.867-0.572c3.827-1.585,5.644-5.973,4.059-9.8L333.485,423.467z"/>
<path d="M419.407,188.314c1.196,2.889,3.989,4.632,6.932,4.632c0.957,0,1.929-0.184,2.867-0.573l29.624-12.271
	c3.827-1.585,5.644-5.972,4.059-9.799s-5.973-5.644-9.799-4.059l-29.624,12.271C419.64,180.101,417.822,184.487,419.407,188.314z"/>
<path d="M92.593,323.686c-1.585-3.827-5.972-5.644-9.799-4.059L53.17,331.898c-3.827,1.585-5.644,5.972-4.059,9.799
	c1.196,2.889,3.989,4.632,6.932,4.632c0.957,0,1.929-0.184,2.867-0.573l29.624-12.271C92.36,331.899,94.178,327.513,92.593,323.686z
	"/>
<path d="M323.686,92.593c0.938,0.389,1.911,0.572,2.867,0.572c2.943,0,5.736-1.743,6.932-4.632l12.271-29.623
	c1.585-3.827-0.232-8.214-4.059-9.8c-3.826-1.584-8.214,0.232-9.799,4.06l-12.271,29.623
	C318.042,86.62,319.859,91.007,323.686,92.593z"/>
<path d="M188.314,419.407c-3.826-1.584-8.214,0.232-9.799,4.06l-12.271,29.623c-1.585,3.827,0.232,8.214,4.059,9.8
	c0.938,0.389,1.911,0.572,2.867,0.572c2.943,0,5.736-1.743,6.932-4.632l12.271-29.623
	C193.958,425.38,192.141,420.993,188.314,419.407z"/>
<path d="M458.831,331.897l-29.624-12.271c-3.828-1.584-8.214,0.232-9.799,4.059s0.232,8.214,4.059,9.799l29.624,12.271
	c0.939,0.389,1.911,0.573,2.867,0.573c2.943,0,5.736-1.744,6.932-4.632C464.475,337.869,462.657,333.482,458.831,331.897z"/>
<path d="M53.169,180.103l29.624,12.271c0.939,0.389,1.911,0.573,2.867,0.573c2.943,0,5.736-1.744,6.932-4.632
	c1.585-3.827-0.232-8.214-4.059-9.799L58.91,166.245c-3.829-1.584-8.214,0.232-9.799,4.059
	C47.525,174.131,49.343,178.518,53.169,180.103z"/>
<g>
</g>
<g>
</g>
<g>
</g>
<g>
</g>
<g>
</g>
<g>
</g>
<g>
</g>
<g>
</g>
<g>
</g>
<g>
</g>
<g>
</g>
<g>
</g>
<g>
</g>
<g>
</g>
<g>
</g>
</svg>
