<svg id="Capa_1" enable-background="new 0 0 512 512" height="512" viewBox="0 0 512 512" width="512" xmlns="http://www.w3.org/2000/svg"><g><g clip-rule="evenodd" fill-rule="evenodd"><path d="m256 363.376c69.79 0 126.682-56.92 126.682-126.68 0-69.761-56.892-126.681-126.682-126.681-69.762 0-126.681 56.92-126.681 126.681s56.919 126.68 126.681 126.68z" fill="#fcbf66"/><path d="m256 110.016c69.96 0 126.682 56.721 126.682 126.681 0 69.959-56.722 126.68-126.682 126.68-4.082 0-8.136-.199-12.133-.595 64.263-6.095 114.55-60.208 114.55-126.085 0-65.878-50.287-119.991-114.55-126.086 3.997-.397 8.051-.595 12.133-.595z" fill="#f7b551"/><path d="m7.512 468.003h497.005v-160.526c0-7.653-3.771-12.047-11.877-14.74-16.243-5.357-32.288-17.688-48.474-17.688-20.92 0-41.811 20.381-62.731 20.381-20.892 0-41.812-20.381-62.703-20.381-20.921 0-41.812 20.381-62.731 20.381-20.892 0-41.811-20.381-62.703-20.381-20.92 0-41.812 20.381-62.732 20.381-20.892 0-41.812-20.381-62.703-20.381-16.27 0-32.23 12.217-48.502 17.688-10.119 3.43-11.849 10.403-11.849 14.74v160.526z" fill="#62d9fa"/><path d="m7.512 344.044v123.959h497.005v-123.959c-20.126 1.417-40.253 20.296-60.351 20.296-20.92 0-41.811-20.381-62.731-20.381-20.892 0-41.812 20.381-62.703 20.381-20.921 0-41.812-20.381-62.731-20.381-20.892 0-41.811 20.381-62.703 20.381-20.92 0-41.812-20.381-62.732-20.381-20.892 0-41.812 20.381-62.703 20.381-20.127 0-40.254-18.879-60.351-20.296z" fill="#98e5fa"/><path d="m67.862 412.869c-20.126 0-40.253 18.879-60.351 20.296v37.275c0 8.816 4.337 12.132 12.133 12.132h472.739c8.476 0 12.133-3.855 12.133-12.132v-37.275c-20.126-1.418-40.253-20.296-60.351-20.296-20.92 0-41.811 20.381-62.731 20.381-20.892 0-41.812-20.381-62.703-20.381-20.921 0-41.812 20.381-62.731 20.381-20.892 0-41.811-20.381-62.703-20.381-20.92 0-41.812 20.381-62.732 20.381-20.891 0-41.811-20.381-62.703-20.381z" fill="#c8effc"/><path d="m130.565 319.694c-20.892 0-41.812 20.381-62.703 20.381-20.126 0-40.253-18.879-60.351-20.296v24.265c20.098 1.417 40.225 20.296 60.351 20.296 20.892 0 41.812-20.381 62.703-20.381 20.92 0 41.812 20.381 62.732 20.381 8.136 0 16.27-3.09 24.407-6.86 12.756-5.925 25.54-13.521 38.296-13.521 12.784 0 25.54 7.597 38.296 13.521 8.165 3.77 16.301 6.86 24.436 6.86 20.892 0 41.812-20.381 62.703-20.381 20.92 0 41.811 20.381 62.731 20.381 20.098 0 40.225-18.879 60.351-20.296v-24.265c-20.126 1.418-40.253 20.296-60.351 20.296-20.92 0-41.811-20.381-62.731-20.381-16.215 0-32.429 12.246-48.643 17.745-4.678 1.616-9.383 2.636-14.061 2.636-20.921 0-41.812-20.381-62.731-20.381-20.892 0-41.811 20.381-62.703 20.381-4.706 0-9.383-1.021-14.089-2.636-16.214-5.499-32.428-17.745-48.643-17.745z" fill="#52cef0"/><path d="m67.862 388.604c-20.126 0-40.253 18.879-60.351 20.296v24.265c20.098-1.418 40.225-20.296 60.351-20.296 20.892 0 41.812 20.381 62.703 20.381 20.92 0 41.812-20.381 62.732-20.381 20.893 0 41.811 20.381 62.703 20.381 20.92 0 41.81-20.381 62.731-20.381 20.892 0 41.812 20.381 62.703 20.381 20.92 0 41.811-20.381 62.731-20.381 20.098 0 40.225 18.879 60.351 20.296v-24.265c-20.126-1.418-40.253-20.296-60.351-20.296-20.92 0-41.811 20.381-62.731 20.381-20.892 0-41.812-20.381-62.703-20.381-20.921 0-41.812 20.381-62.731 20.381-20.892 0-41.811-20.381-62.703-20.381-20.92 0-41.812 20.381-62.732 20.381-20.891.001-41.811-20.381-62.703-20.381z" fill="#8bdef5"/></g><path d="m497.005 337.609v-35.83c-8.533-1.899-16.64-5.839-24.775-9.808-4.819-2.353-9.639-4.706-14.089-6.406-3.884-1.446-5.81-5.754-4.365-9.638 1.445-3.855 5.754-5.811 9.638-4.366 5.386 2.041 10.376 4.479 15.393 6.916 8.873 4.337 17.773 8.674 25.881 9.355 4.054.113 7.314 3.43 7.314 7.512v48.699 89.122 49.408c0 4.139-3.345 7.483-7.483 7.483h-497.007c-4.138 0-7.512-3.345-7.512-7.483v-49.408-89.122-48.699c0-3.912 3.033-7.2 6.974-7.483 8.191-.567 17.234-4.989 26.249-9.383 11.226-5.471 22.451-10.941 34.64-10.941 12.161 0 23.386 5.471 34.64 10.941 8.561 4.195 19.729 9.95 29.481 9.411-2.722-6.548-4.934-13.351-6.577-20.324-2.324-9.921-3.572-20.268-3.572-30.869 0-37.049 15.024-70.583 39.29-94.876 24.293-24.293 57.827-39.288 94.876-39.288s70.612 14.995 94.876 39.288c24.293 24.293 39.318 57.827 39.318 94.876 0 10.602-1.247 20.948-3.6 30.869-1.645 6.973-3.855 13.776-6.549 20.324 9.724.539 20.893-5.216 29.482-9.411 4.989-2.438 10.007-4.875 15.364-6.916 3.883-1.445 8.191.51 9.637 4.366 1.475 3.883-.481 8.192-4.365 9.638-4.422 1.701-9.269 4.054-14.088 6.406-11.225 5.471-22.45 10.942-34.64 10.942-12.161 0-23.414-5.471-34.64-10.942-9.667-4.734-19.333-9.44-28.063-9.44s-18.425 4.706-28.092 9.44c-11.225 5.471-22.45 10.942-34.64 10.942-12.16 0-23.386-5.471-34.64-10.942-9.667-4.734-19.333-9.44-28.063-9.44-8.732 0-18.425 4.706-28.092 9.44-11.225 5.471-22.45 10.942-34.64 10.942-12.161 0-23.386-5.471-34.64-10.942-9.666-4.734-19.332-9.44-28.063-9.44-8.73 0-18.425 4.706-28.092 9.44-8.107 3.968-16.242 7.909-24.775 9.808v35.83c8.533 1.871 16.668 5.839 24.775 9.808 9.667 4.705 19.361 9.411 28.092 9.411 8.732 0 18.398-4.705 28.063-9.411 11.254-5.5 22.479-10.97 34.64-10.97 12.189 0 23.415 5.471 34.64 10.97 9.667 4.705 19.36 9.411 28.092 9.411 8.73 0 18.396-4.705 28.063-9.411 5.018-2.438 10.007-4.876 15.393-6.917 3.855-1.474 8.192.482 9.638 4.365 1.445 3.855-.51 8.164-4.365 9.638-4.451 1.672-9.27 4.025-14.088 6.378-11.254 5.471-22.48 10.942-34.641 10.942-12.189 0-23.414-5.471-34.64-10.942-9.666-4.706-19.36-9.439-28.092-9.439-8.731 0-18.397 4.734-28.063 9.439-11.254 5.471-22.479 10.942-34.64 10.942-12.188 0-23.414-5.471-34.64-10.942-6.151-3.005-12.331-6.009-18.228-7.795v71.037c5.896-1.786 12.076-4.791 18.228-7.795 11.226-5.471 22.451-10.942 34.64-10.942 12.161 0 23.386 5.471 34.64 10.942 4.818 2.353 9.638 4.706 14.088 6.378 3.855 1.474 5.812 5.783 4.365 9.638-1.445 3.883-5.782 5.839-9.637 4.365-5.387-2.04-10.375-4.478-15.393-6.917-9.666-4.706-19.332-9.411-28.063-9.411-8.73 0-18.425 4.706-28.092 9.411-8.107 3.969-16.242 7.937-24.775 9.808v35.461h482.01v-35.462c-8.533-1.871-16.64-5.839-24.775-9.808-9.667-4.706-19.333-9.411-28.064-9.411-8.73 0-18.426 4.706-28.092 9.411-11.225 5.5-22.45 10.97-34.64 10.97-12.161 0-23.387-5.471-34.64-10.97-9.667-4.706-19.333-9.411-28.063-9.411s-18.425 4.706-28.092 9.411c-11.225 5.5-22.45 10.97-34.64 10.97-12.16 0-23.386-5.471-34.64-10.97-9.667-4.706-19.333-9.411-28.063-9.411-8.732 0-18.425 4.706-28.092 9.411-4.989 2.438-10.006 4.876-15.363 6.917-3.884 1.474-8.192-.482-9.638-4.365-1.475-3.855.481-8.164 4.337-9.638 4.45-1.672 9.298-4.025 14.116-6.378 11.226-5.471 22.45-10.942 34.64-10.942 12.16 0 23.387 5.471 34.641 10.942 9.666 4.706 19.332 9.439 28.062 9.439s18.426-4.734 28.092-9.439c11.225-5.471 22.451-10.942 34.64-10.942 12.161 0 23.386 5.471 34.64 10.942 9.666 4.706 19.332 9.439 28.064 9.439 8.731 0 18.426-4.734 28.092-9.439 11.226-5.471 22.45-10.942 34.64-10.942 12.16 0 23.386 5.471 34.64 10.942 6.151 3.004 12.303 6.009 18.199 7.795v-71.037c-5.897 1.786-12.048 4.791-18.199 7.795-11.254 5.471-22.479 10.942-34.64 10.942-12.189 0-23.414-5.471-34.64-10.942-9.694-4.706-19.36-9.439-28.092-9.439s-18.397 4.734-28.064 9.439c-11.254 5.471-22.478 10.942-34.64 10.942-12.188 0-23.415-5.471-34.64-10.942-4.848-2.353-9.666-4.706-14.117-6.378-3.855-1.474-5.811-5.783-4.365-9.638 1.475-3.883 5.783-5.839 9.638-4.365 5.386 2.041 10.403 4.478 15.392 6.917 9.667 4.705 19.361 9.411 28.092 9.411 8.73 0 18.396-4.705 28.063-9.411 11.226-5.5 22.479-10.97 34.64-10.97 12.189 0 23.415 5.471 34.64 10.97 9.666 4.705 19.361 9.411 28.092 9.411s18.397-4.705 28.064-9.411c8.134-3.968 16.241-7.937 24.774-9.808zm-156.135-232.951c-2.069 3.572-6.633 4.79-10.205 2.721-3.6-2.069-4.818-6.633-2.749-10.233l25.229-43.682c2.098-3.571 6.661-4.791 10.233-2.721 3.571 2.069 4.79 6.633 2.721 10.205zm-77.358-24.746c0 4.139-3.373 7.512-7.512 7.512s-7.483-3.373-7.483-7.512v-50.457c0-4.139 3.345-7.512 7.483-7.512s7.512 3.373 7.512 7.512zm-79.428 17.234c2.069 3.6.851 8.164-2.722 10.233-3.571 2.069-8.163.851-10.232-2.721l-25.229-43.71c-2.069-3.572-.851-8.136 2.721-10.205s8.164-.85 10.233 2.721zm-60.124 54.681c3.572 2.069 4.792 6.633 2.722 10.233-2.069 3.571-6.633 4.79-10.205 2.721l-43.71-25.229c-3.571-2.069-4.79-6.661-2.722-10.233 2.069-3.572 6.662-4.79 10.233-2.721zm-75.203 92.353c-4.138 0-7.513-3.345-7.513-7.483 0-4.139 3.375-7.512 7.513-7.512h50.485c4.139 0 7.483 3.374 7.483 7.512s-3.345 7.483-7.483 7.483zm364.029 0c-4.139 0-7.512-3.345-7.512-7.483 0-4.139 3.373-7.512 7.512-7.512h50.457c4.167 0 7.513 3.374 7.513 7.512s-3.346 7.483-7.513 7.483zm-17.234-79.399c-3.571 2.069-8.164.85-10.233-2.721-2.07-3.6-.852-8.164 2.722-10.233l43.71-25.228c3.572-2.069 8.136-.851 10.205 2.721 2.068 3.572.85 8.164-2.722 10.233zm-30.134 119.282c2.75-6.35 4.961-12.983 6.577-19.871 2.098-8.816 3.174-18.029 3.174-27.496 0-32.911-13.322-62.703-34.895-84.274-21.571-21.571-51.364-34.895-84.274-34.895s-62.703 13.323-84.274 34.895c-21.544 21.572-34.895 51.364-34.895 84.274 0 9.467 1.105 18.68 3.174 27.496 1.645 6.888 3.855 13.521 6.577 19.871 3.968-1.644 8.021-3.6 12.075-5.585 11.226-5.471 22.45-10.941 34.64-10.941 12.16 0 23.387 5.471 34.641 10.941 9.666 4.734 19.332 9.44 28.062 9.44s18.426-4.706 28.092-9.44c11.225-5.471 22.451-10.941 34.64-10.941 12.161 0 23.386 5.471 34.64 10.941 4.025 1.985 8.078 3.941 12.046 5.585z"/></g></svg>