<?xml version="1.0" encoding="iso-8859-1"?>
<!-- Generator: Adobe Illustrator 19.0.0, SVG Export Plug-In . SVG Version: 6.00 Build 0)  -->
<svg version="1.1" id="Capa_1" xmlns="http://www.w3.org/2000/svg" xmlns:xlink="http://www.w3.org/1999/xlink" x="0px" y="0px"
	 viewBox="0 0 512 512" style="enable-background:new 0 0 512 512;" xml:space="preserve">
<path style="fill:#455256;" d="M298.992,400.94c0,0,9.259,22.486,43.378,28.883c34.119,6.397,55.977-27.189,89.564,6.397
	c0,0-26.656-62.908-106.914-45.072"/>
<path style="fill:#F9DCA2;" d="M331.623,288.227h2.836H444.59c16.185,0,29.311-13.114,29.311-29.301
	c0-8.093-3.284-15.418-8.583-20.727c-5.31-5.299-12.635-8.583-20.727-8.583H334.459v-76.811c0-18.105,12.453-33.843,30.068-38.012
	l139.869-33.094v-5.363c0-32.2-29.535-56.298-61.074-49.836L266.209,62.772c-6.738,1.386-13.68,1.386-20.418,0L68.678,26.499
	C37.139,20.037,7.604,44.135,7.604,76.335v5.363l140.051,33.096c17.625,4.169,30.078,19.906,30.078,38.022v124.215v11.195v169.01
	c0,16.185,13.125,29.311,29.311,29.311c8.093,0,15.418-3.284,20.717-8.583c5.299-5.31,8.583-12.635,8.583-20.727v-80.053"/>
<g>
	<path style="fill:#E5C691;" d="M177.733,133.046c0-18.116-12.453-33.853-30.078-38.022L9.539,62.386
		c-1.252,4.414-1.935,9.087-1.935,13.949v5.363l140.051,33.096c17.625,4.169,30.078,19.907,30.078,38.022L177.733,133.046
		L177.733,133.046z"/>
	<path style="fill:#E5C691;" d="M364.527,95.024c-17.615,4.169-30.068,19.907-30.068,38.012v19.769
		c0-18.105,12.453-33.843,30.068-38.012l139.869-33.095v-5.363c0-4.861-0.683-9.533-1.935-13.949L364.527,95.024z"/>
	<path style="fill:#E5C691;" d="M444.59,265.417H334.459h-2.837l-95.279,88.956v22.811l95.279-88.956h2.837H444.59
		c16.185,0,29.311-13.114,29.311-29.3c0-4.045-0.82-7.899-2.303-11.405C467.148,258.039,456.729,265.417,444.59,265.417z"/>
</g>
<path id="SVGCleanerId_0" style="fill:#E5C691;" d="M203.584,457.237v-169.01v-11.195V152.816c0-18.116-12.453-33.853-30.078-38.022
	l-22.433,0.977c15.794,5.283,26.659,20.125,26.659,37.044v124.215v11.195v169.01c0,16.185,13.125,29.311,29.311,29.311
	c4.64,0,9.025-1.084,12.925-3.004C210.265,478.765,203.584,468.781,203.584,457.237z"/>
<g>
	<path id="SVGCleanerId_0_1_" style="fill:#E5C691;" d="M203.584,457.237v-169.01v-11.195V152.816
		c0-18.116-12.453-33.853-30.078-38.022l-22.433,0.977c15.794,5.283,26.659,20.125,26.659,37.044v124.215v11.195v169.01
		c0,16.185,13.125,29.311,29.311,29.311c4.64,0,9.025-1.084,12.925-3.004C210.265,478.765,203.584,468.781,203.584,457.237z"/>
</g>
<path style="fill:#455256;" d="M367.275,114.066v0.01l-2.768,0.649c-17.611,4.167-30.061,19.902-30.061,38.01v12.592l-130.96-15.147
	l-25.772-2.981l-0.395,0.061c-2.038-14.518-12.116-26.766-26.097-31.501c-1.166-0.395-2.362-0.74-3.579-1.034l-3.072-0.72v-0.01
	l26.046-66.682l75.158,15.39c6.742,1.379,13.677,1.379,20.419,0l75.026-15.37l26.036,66.672L367.275,114.066z"/>
<path style="fill:#8D4AD3;" d="M355.149,288.156h-78.99l4.562,48.321H177.713c0,0,0.01-0.781,0.02-2.362
	c0.091-9.104,0.355-44.671,0-110.075l25.853-6.681l130.879-33.833l-0.02,46.019h20.703L355.149,288.156L355.149,288.156z"/>
<circle style="fill:#F9DCA2;" cx="287.572" cy="336.551" r="65.384"/>
<path style="fill:#313C3F;" d="M203.485,150.179l-25.772-2.981l-0.395,0.061c-2.038-14.518-12.116-26.766-26.097-31.501
	l22.285-0.963C190.264,118.76,202.36,133.187,203.485,150.179z"/>
<path style="fill:#E5C691;" d="M263.885,336.55c0-28.819,18.652-53.265,44.537-61.971c-6.55-2.203-13.555-3.415-20.848-3.415
	c-36.112,0-65.386,29.274-65.386,65.386s29.274,65.386,65.386,65.386c7.293,0,14.298-1.212,20.848-3.415
	C282.537,389.815,263.885,365.369,263.885,336.55z"/>
<path style="fill:#733BBC;" d="M203.586,217.358v119.119h-25.853v-2.362c0.091-9.104,0.355-44.671,0-110.075L203.586,217.358z"/>
<path style="fill:#455256;" d="M352.959,336.547c0,28.865-18.706,53.36-44.661,62.028c-6.509,2.18-13.474,3.356-20.723,3.356
	c-28.155,0-52.153-17.793-61.359-42.755c10.514-0.01,23.4-12.633,37.776-26.381c24.951-23.836,54.424-51.028,83.867-21.595
	l0.01,0.01C351.144,318.998,352.959,327.565,352.959,336.547z"/>
<path style="fill:#313C3F;" d="M308.42,398.525c-0.041,0.01-0.081,0.03-0.122,0.051c-6.509,2.18-13.474,3.356-20.723,3.356
	c-28.155,0-52.153-17.793-61.359-42.755c10.514-0.01,23.4-12.633,37.776-26.381c-0.071,1.247-0.112,2.494-0.112,3.751
	C263.881,365.372,282.536,389.816,308.42,398.525z"/>
<path d="M490.715,31.209c-13.697-11.286-31.546-15.719-48.919-12.159L264.678,55.325c-5.759,1.184-11.597,1.184-17.361-0.001
	L70.204,19.05c-17.372-3.56-35.215,0.871-48.912,12.153C7.611,42.472,0,59.511,0,77.235v4.463c0,3.526,2.424,6.589,5.855,7.4
	l140.049,33.096c14.263,3.373,24.225,15.966,24.225,30.622v208.388c0,4.199,3.405,7.604,7.604,7.604l0,0
	c4.199,0,7.604-3.405,7.604-7.604v-17.05h29.644c1.373,13.2,6.285,25.36,13.758,35.528v77.555c0,5.792-2.26,11.246-6.357,15.351
	c-4.081,4.082-9.501,6.338-15.269,6.356c-11.981,0.039-21.778-10.294-21.778-22.275v-59.978c0-4.199-3.405-7.604-7.604-7.604l0,0
	c-4.199,0-7.604,3.405-7.604,7.604V456.5c0,20.24,15.98,37.274,36.216,37.646c10.116,0.186,19.657-3.668,26.797-10.81
	c6.967-6.981,10.805-16.25,10.805-26.099v-62.204c12.179,9.108,27.284,14.507,43.626,14.507c2.479,0,4.928-0.127,7.344-0.369
	c5.291,8.076,18.487,22.959,46.051,28.128c14.847,2.783,27.494-1.027,38.653-4.389c17.06-5.142,29.391-8.856,46.935,8.689
	c1.47,1.47,3.418,2.227,5.38,2.227c1.473,0,2.954-0.427,4.248-1.299c3.018-2.034,4.17-5.921,2.751-9.273
	c-0.302-0.714-7.612-17.645-25.581-32.171c-13.576-10.975-35.587-22.273-67.614-20.503c9.294-12.248,14.824-27.503,14.824-44.03
	c0-15.066-4.59-29.08-12.442-40.719h95.741c20.223,0,37.249-15.958,37.637-36.177c0.194-10.12-3.659-19.675-10.809-26.838
	c-6.982-6.968-16.25-10.805-26.099-10.805h-38.029c-4.199,0-7.604,3.405-7.604,7.604l0,0c0,4.199,3.405,7.604,7.604,7.604h38.029
	c5.792,0,11.246,2.26,15.346,6.351c4.089,4.097,6.347,9.528,6.361,15.301c0.029,11.967-10.3,21.751-22.266,21.751H362.77v-43.403
	h8.306c4.199,0,7.604-3.405,7.604-7.604l0,0c0-4.199-3.405-7.604-7.604-7.604h-29.013v-69.207c0-14.649,9.957-27.236,24.215-30.612
	l139.869-33.096c3.431-0.811,5.853-3.874,5.853-7.399v-4.462C512,59.515,504.392,42.479,490.715,31.209z M31.121,42.81
	c10.114-8.251,23.249-11.479,36.031-8.861l93.119,19.072l-20.361,52.131L15.213,75.683C15.402,62.875,21.178,50.923,31.121,42.81z
	 M185.337,155.804l141.518,16.367v5.464L185.337,214.22V155.804z M229.792,336.551c0-31.861,25.92-57.782,57.782-57.782
	c13.268,0,25.498,4.507,35.262,12.055c-5.846-0.331-11.888,0.617-18.108,2.846l-2.261-5.395c-1.624-3.874-6.084-5.699-9.951-4.075
	c-3.873,1.623-5.698,6.079-4.075,9.952l2.63,6.277c-5.883,3.663-11.586,8.105-17.072,12.834l-2.192-7.204
	c-1.223-4.018-5.473-6.284-9.488-5.061c-4.018,1.223-6.283,5.471-5.06,9.488l4.299,14.129c-1.387,1.317-2.761,2.628-4.111,3.919
	c-8.918,8.527-18.774,17.945-26.044,21.533C230.36,345.728,229.792,341.205,229.792,336.551z M236.885,364.257
	c9.795-4.394,19.875-14.025,31.074-24.731c13.21-12.628,24.752-23.015,35.49-28.755c0.059-0.022,0.118-0.04,0.176-0.064
	c0.445-0.187,0.859-0.414,1.247-0.67c12.773-6.373,24.445-5.934,36.494,5.457c2.565,6.529,3.99,13.627,3.99,21.056
	c0,31.861-25.92,57.781-57.781,57.781C265.747,394.332,246.712,382.163,236.885,364.257z M404.873,413.665
	c-10.637-1.044-20.453,1.914-29.638,4.683c-10.415,3.139-20.256,6.104-31.463,4.002c-17.283-3.24-27.214-10.896-32.517-16.775
	c5.427-1.868,10.564-4.355,15.331-7.382l0.084,0.38C364.827,390.095,389.693,401.013,404.873,413.665z M347.562,237.219v43.403
	h-13.154c-12.684-10.64-29.021-17.063-46.833-17.063c-37.679,0-68.778,28.699-72.593,65.386h-29.644v-99.018l141.518-36.585v36.273
	c0,4.199,3.404,7.604,7.604,7.604L347.562,237.219L347.562,237.219z M326.855,152.805v4.057l-143.213-16.563
	c-3.962-14.369-14.617-26.093-28.907-31.302l20.655-52.881l68.869,14.105c7.792,1.603,15.694,1.603,23.476,0.001l68.746-14.079
	l20.684,52.955C339.06,115.829,326.855,133.053,326.855,152.805z M371.977,105.218l-20.378-52.171l93.249-19.098
	c12.786-2.621,25.917,0.611,36.031,8.861c9.946,8.115,15.72,20.066,15.909,32.875L371.977,105.218z"/>
<g>
</g>
<g>
</g>
<g>
</g>
<g>
</g>
<g>
</g>
<g>
</g>
<g>
</g>
<g>
</g>
<g>
</g>
<g>
</g>
<g>
</g>
<g>
</g>
<g>
</g>
<g>
</g>
<g>
</g>
</svg>
